<?xml version="1.0" encoding="utf-8"?>
<!-- Generator: Adobe Illustrator 24.0.0, SVG Export Plug-In . SVG Version: 6.00 Build 0)  -->
<svg version="1.1" id="Capa_1" xmlns="http://www.w3.org/2000/svg" xmlns:xlink="http://www.w3.org/1999/xlink" x="0px" y="0px"
	 viewBox="0 0 400 400" style="enable-background:new 0 0 400 400;" xml:space="preserve">
<style type="text/css">
	.st0{fill:url(#SVGID_1_);}
	.st1{opacity:0.5;}
	.st2{fill:#609695;}
	.st3{fill:#EBEBEB;}
	.st4{fill:#CACECC;}
	.st5{fill:url(#SVGID_2_);stroke:#0E4F5E;stroke-width:0.65;stroke-miterlimit:10;}
	.st6{fill:none;stroke:#FFFFFF;stroke-miterlimit:10;}
	.st7{fill:url(#SVGID_3_);}
	.st8{opacity:0.5;fill:#126189;}
	.st9{fill:#D3D3D3;}
	.st10{fill:url(#SVGID_4_);}
	.st11{fill:url(#SVGID_5_);}
	.st12{fill:url(#SVGID_6_);}
	.st13{fill:url(#SVGID_7_);}
	.st14{fill:#455A64;}
	.st15{fill:#CBE7FF;}
	.st16{fill:#295DB1;}
	.st17{fill:#56DB92;}
	.st18{fill:#9CD6FB;}
	.st19{opacity:0.8;}
	.st20{fill:url(#SVGID_8_);}
	.st21{fill:url(#SVGID_9_);}
	.st22{fill:url(#SVGID_10_);}
	.st23{fill:url(#SVGID_11_);}
	.st24{fill:#5BDCDA;}
	.st25{fill:#263238;}
	.st26{fill:#83FFCF;}
	.st27{opacity:0.3;}
	.st28{fill:#FFFFFF;}
	.st29{fill:#C4C4C4;}
	.st30{fill:#DDDDDD;}
	.st31{fill:#EDF3F9;}
	.st32{fill:#DDE6ED;}
	.st33{fill:#1A2E35;}
	.st34{fill:#007CFF;}
	.st35{fill:#E0E0E0;}
	.st36{fill:url(#SVGID_12_);}
	.st37{fill:#0A457A;}
	.st38{fill:url(#SVGID_13_);}
	.st39{fill:#266E7A;}
	.st40{fill:url(#SVGID_14_);}
	.st41{fill:url(#SVGID_15_);}
	.st42{fill:url(#SVGID_16_);}
	.st43{fill:url(#SVGID_17_);}
	.st44{fill:url(#SVGID_18_);}
	.st45{fill:url(#SVGID_19_);}
	.st46{fill:url(#SVGID_20_);}
	.st47{fill:url(#SVGID_21_);}
	.st48{opacity:0.2;}
	.st49{fill:none;stroke:#1A2E35;stroke-width:0.25;stroke-miterlimit:10;}
	.st50{opacity:0.5;fill-rule:evenodd;clip-rule:evenodd;fill:url(#SVGID_22_);}
	.st51{fill:#EAEAEA;}
	.st52{fill-rule:evenodd;clip-rule:evenodd;fill:#56D8B3;}
	.st53{fill-rule:evenodd;clip-rule:evenodd;fill:#75F2AA;}
	.st54{opacity:0.5;fill-rule:evenodd;clip-rule:evenodd;fill:url(#SVGID_23_);}
	.st55{fill-rule:evenodd;clip-rule:evenodd;fill:#2B3F35;}
	.st56{fill-rule:evenodd;clip-rule:evenodd;fill:#007CFF;}
	.st57{fill-rule:evenodd;clip-rule:evenodd;fill:url(#SVGID_24_);}
	.st58{fill:none;stroke:#000000;stroke-miterlimit:10;}
	.st59{fill:#EBFBFF;}
	.st60{fill:url(#SVGID_25_);}
	.st61{fill:url(#SVGID_26_);}
	.st62{fill:url(#SVGID_27_);}
	.st63{fill:#EBEDED;}
	.st64{fill:#1D525B;}
	.st65{fill:url(#SVGID_28_);}
	.st66{opacity:0.7;fill:#FFFFFF;}
	.st67{fill:url(#SVGID_29_);stroke:#0E4F5E;stroke-width:0.65;stroke-miterlimit:10;}
	.st68{fill:none;stroke:#000000;stroke-width:0.25;stroke-miterlimit:10;}
	.st69{fill:#0E4F5E;}
	.st70{fill:url(#SVGID_30_);}
	.st71{fill:#CEEFE7;}
	.st72{fill:url(#SVGID_31_);stroke:#0E4F5E;stroke-width:0.65;stroke-miterlimit:10;}
	.st73{fill:#1F3C88;}
	.st74{fill:#5F81CE;}
	.st75{fill:#D3DFFF;}
	.st76{fill:#FAFCFF;}
	.st77{fill:#FFD91D;}
	.st78{opacity:0.8;fill:#D4F1F9;}
	.st79{fill:none;stroke:#FFFFFF;stroke-width:0.75;stroke-miterlimit:10;}
	.st80{fill:#42CC70;}
	.st81{fill:#5BF378;}
	.st82{fill:url(#SVGID_32_);}
	.st83{opacity:0.2;fill:#2B6ADB;}
	.st84{fill:url(#SVGID_33_);}
	.st85{fill:#2BBE9A;stroke:#000000;stroke-width:0.25;stroke-miterlimit:10;}
</style>
<g>
	<g>
		<g>
			<path class="st9" d="M328.46,160.16c-0.03-0.29,4.62,0.05,12.57-1.96c3.98-0.94,8.67-2.84,13.64-5.8
				c4.95-2.99,10.11-7.28,14.48-13.1c4.33-5.81,8.01-13.12,9.49-21.55c1.42-8.37,1.15-17.82-2.28-26.8
				c-1.58-4.52-3.95-8.89-6.96-12.89c-2.94-4.05-6.6-7.73-10.83-10.77c-8.34-6.27-19.06-9.8-30.11-9.9
				c-11.05,0.1-21.78,3.63-30.12,9.9c-4.24,3.03-7.89,6.71-10.83,10.77c-3,4.01-5.38,8.37-6.96,12.89
				c-3.43,8.99-3.7,18.43-2.28,26.81c1.48,8.43,5.15,15.74,9.49,21.55c4.37,5.82,9.54,10.11,14.48,13.1
				c4.97,2.96,9.66,4.86,13.64,5.8C323.84,160.21,328.49,159.87,328.46,160.16c0,0.03-0.28,0.05-0.84,0.05
				c-0.67-0.01-1.48-0.02-2.47-0.03c-1.09,0-2.44-0.06-4.01-0.32c-1.58-0.21-3.41-0.41-5.41-0.97c-4.06-0.85-8.87-2.67-13.99-5.61
				c-5.09-2.96-10.43-7.27-14.98-13.19c-4.51-5.9-8.36-13.38-9.95-22.05c-1.53-8.61-1.31-18.35,2.19-27.65
				c1.61-4.68,4.05-9.2,7.14-13.35c3.03-4.2,6.8-8.02,11.17-11.17c8.62-6.5,19.73-10.18,31.17-10.28
				c11.44,0.1,22.55,3.78,31.16,10.28c4.37,3.15,8.14,6.97,11.17,11.17c3.09,4.15,5.53,8.67,7.14,13.35
				c3.49,9.3,3.72,19.04,2.19,27.65c-1.58,8.67-5.44,16.15-9.94,22.05c-4.55,5.92-9.89,10.23-14.98,13.19
				c-5.12,2.94-9.93,4.76-13.99,5.61c-2,0.57-3.83,0.77-5.42,0.97c-1.57,0.26-2.92,0.32-4.01,0.32c-1,0.01-1.81,0.03-2.47,0.03
				C328.75,160.21,328.46,160.19,328.46,160.16z"/>
		</g>
	</g>
	<g>
		<g>
			<path class="st9" d="M241.92,229.81c-0.42-0.28,11.41-18.62,26.4-40.96c15-22.35,27.49-40.24,27.91-39.96
				c0.41,0.28-11.41,18.62-26.41,40.97C254.83,212.2,242.34,230.09,241.92,229.81z"/>
		</g>
	</g>
</g>
<linearGradient id="SVGID_1_" gradientUnits="userSpaceOnUse" x1="156.0949" y1="38.2123" x2="156.0949" y2="398.2094">
	<stop  offset="0" style="stop-color:#90FFDB"/>
	<stop  offset="1" style="stop-color:#19A1CC"/>
</linearGradient>
<path style="fill:url(#SVGID_1_);stroke:#0E4F5E;stroke-width:0.65;stroke-miterlimit:10;" d="M258.22,377.19H53.97
	c-7.07,0-12.8-5.73-12.8-12.8V65.83c0-7.07,5.73-12.8,12.8-12.8h204.26c7.07,0,12.8,5.73,12.8,12.8v298.56
	C271.02,371.46,265.29,377.19,258.22,377.19z"/>
<g>
	<path class="st73" d="M199.81,177.81h-12.5c-3.75,0-6.79-3.04-6.79-6.79v-2.89c0-3.75,3.04-6.79,6.79-6.79h12.5
		c3.75,0,6.79,3.04,6.79,6.79v2.89C206.6,174.77,203.56,177.81,199.81,177.81z"/>
	<path class="st73" d="M241,177.81h-12.5c-3.75,0-6.79-3.04-6.79-6.79v-2.89c0-3.75,3.04-6.79,6.79-6.79H241
		c3.75,0,6.79,3.04,6.79,6.79v2.89C247.79,174.77,244.75,177.81,241,177.81z"/>
</g>
<g>
	<path class="st73" d="M244.55,219.23h-25.11c-1.79,0-3.24-1.45-3.24-3.24v-15.04c0-1.79,1.45-3.24,3.24-3.24h25.11
		c1.79,0,3.24,1.45,3.24,3.24V216C247.79,217.79,246.34,219.23,244.55,219.23z"/>
	<path class="st73" d="M194.17,219.23h-25.11c-1.79,0-3.24-1.45-3.24-3.24v-15.04c0-1.79,1.45-3.24,3.24-3.24h25.11
		c1.79,0,3.24,1.45,3.24,3.24V216C197.4,217.79,195.96,219.23,194.17,219.23z"/>
	<path class="st73" d="M143.78,219.23h-25.11c-1.79,0-3.24-1.45-3.24-3.24v-15.04c0-1.79,1.45-3.24,3.24-3.24h25.11
		c1.79,0,3.24,1.45,3.24,3.24V216C147.02,217.79,145.57,219.23,143.78,219.23z"/>
	<path class="st73" d="M93.4,219.23H68.29c-1.79,0-3.24-1.45-3.24-3.24v-15.04c0-1.79,1.45-3.24,3.24-3.24H93.4
		c1.79,0,3.24,1.45,3.24,3.24V216C96.63,217.79,95.19,219.23,93.4,219.23z"/>
</g>
<g>
	<path class="st74" d="M246.76,217.03h-25.11c-1.79,0-3.24-1.45-3.24-3.24v-15.04c0-1.79,1.45-3.24,3.24-3.24h25.11
		c1.79,0,3.24,1.45,3.24,3.24v15.04C249.99,215.58,248.55,217.03,246.76,217.03z"/>
	<path class="st74" d="M196.37,217.03h-25.11c-1.79,0-3.24-1.45-3.24-3.24v-15.04c0-1.79,1.45-3.24,3.24-3.24h25.11
		c1.79,0,3.24,1.45,3.24,3.24v15.04C199.61,215.58,198.16,217.03,196.37,217.03z"/>
	<path class="st74" d="M145.99,217.03h-25.11c-1.79,0-3.24-1.45-3.24-3.24v-15.04c0-1.79,1.45-3.24,3.24-3.24h25.11
		c1.79,0,3.24,1.45,3.24,3.24v15.04C149.23,215.58,147.78,217.03,145.99,217.03z"/>
	<path class="st74" d="M95.61,217.03H70.5c-1.79,0-3.24-1.45-3.24-3.24v-15.04c0-1.79,1.45-3.24,3.24-3.24h25.11
		c1.79,0,3.24,1.45,3.24,3.24v15.04C98.84,215.58,97.39,217.03,95.61,217.03z"/>
</g>
<g>
	<path class="st73" d="M244.55,258.14h-25.11c-1.79,0-3.24-1.45-3.24-3.24v-15.04c0-1.79,1.45-3.24,3.24-3.24h25.11
		c1.79,0,3.24,1.45,3.24,3.24v15.04C247.79,256.69,246.34,258.14,244.55,258.14z"/>
	<path class="st75" d="M194.17,258.14h-25.11c-1.79,0-3.24-1.45-3.24-3.24v-15.04c0-1.79,1.45-3.24,3.24-3.24h25.11
		c1.79,0,3.24,1.45,3.24,3.24v15.04C197.4,256.69,195.96,258.14,194.17,258.14z"/>
	<path class="st75" d="M143.78,258.14h-25.11c-1.79,0-3.24-1.45-3.24-3.24v-15.04c0-1.79,1.45-3.24,3.24-3.24h25.11
		c1.79,0,3.24,1.45,3.24,3.24v15.04C147.02,256.69,145.57,258.14,143.78,258.14z"/>
	<path class="st75" d="M93.4,258.14H68.29c-1.79,0-3.24-1.45-3.24-3.24v-15.04c0-1.79,1.45-3.24,3.24-3.24H93.4
		c1.79,0,3.24,1.45,3.24,3.24v15.04C96.63,256.69,95.19,258.14,93.4,258.14z"/>
</g>
<g>
	<path class="st76" d="M246.37,256.33h-25.11c-1.79,0-3.24-1.45-3.24-3.24v-15.04c0-1.79,1.45-3.24,3.24-3.24h25.11
		c1.79,0,3.24,1.45,3.24,3.24v15.04C249.61,254.88,248.16,256.33,246.37,256.33z"/>
	<path class="st76" d="M195.99,256.33h-25.11c-1.79,0-3.24-1.45-3.24-3.24v-15.04c0-1.79,1.45-3.24,3.24-3.24h25.11
		c1.79,0,3.24,1.45,3.24,3.24v15.04C199.22,254.88,197.77,256.33,195.99,256.33z"/>
	<path class="st76" d="M145.6,256.33h-25.11c-1.79,0-3.24-1.45-3.24-3.24v-15.04c0-1.79,1.45-3.24,3.24-3.24h25.11
		c1.79,0,3.24,1.45,3.24,3.24v15.04C148.84,254.88,147.39,256.33,145.6,256.33z"/>
	<path class="st76" d="M95.22,256.33H70.11c-1.79,0-3.24-1.45-3.24-3.24v-15.04c0-1.79,1.45-3.24,3.24-3.24h25.11
		c1.79,0,3.24,1.45,3.24,3.24v15.04C98.45,254.88,97,256.33,95.22,256.33z"/>
</g>
<g>
	<path class="st73" d="M244.55,295.26h-25.11c-1.79,0-3.24-1.45-3.24-3.24v-15.04c0-1.79,1.45-3.24,3.24-3.24h25.11
		c1.79,0,3.24,1.45,3.24,3.24v15.04C247.79,293.81,246.34,295.26,244.55,295.26z"/>
	<path class="st75" d="M194.17,295.26h-25.11c-1.79,0-3.24-1.45-3.24-3.24v-15.04c0-1.79,1.45-3.24,3.24-3.24h25.11
		c1.79,0,3.24,1.45,3.24,3.24v15.04C197.4,293.81,195.96,295.26,194.17,295.26z"/>
	<path class="st75" d="M143.78,295.26h-25.11c-1.79,0-3.24-1.45-3.24-3.24v-15.04c0-1.79,1.45-3.24,3.24-3.24h25.11
		c1.79,0,3.24,1.45,3.24,3.24v15.04C147.02,293.81,145.57,295.26,143.78,295.26z"/>
	<path class="st75" d="M93.4,295.26H68.29c-1.79,0-3.24-1.45-3.24-3.24v-15.04c0-1.79,1.45-3.24,3.24-3.24H93.4
		c1.79,0,3.24,1.45,3.24,3.24v15.04C96.63,293.81,95.19,295.26,93.4,295.26z"/>
</g>
<g>
	<path class="st76" d="M246.37,293.44h-25.11c-1.79,0-3.24-1.45-3.24-3.24v-15.04c0-1.79,1.45-3.24,3.24-3.24h25.11
		c1.79,0,3.24,1.45,3.24,3.24v15.04C249.61,291.99,248.16,293.44,246.37,293.44z"/>
	<path class="st76" d="M195.99,293.44h-25.11c-1.79,0-3.24-1.45-3.24-3.24v-15.04c0-1.79,1.45-3.24,3.24-3.24h25.11
		c1.79,0,3.24,1.45,3.24,3.24v15.04C199.22,291.99,197.77,293.44,195.99,293.44z"/>
	<path class="st76" d="M145.6,293.44h-25.11c-1.79,0-3.24-1.45-3.24-3.24v-15.04c0-1.79,1.45-3.24,3.24-3.24h25.11
		c1.79,0,3.24,1.45,3.24,3.24v15.04C148.84,291.99,147.39,293.44,145.6,293.44z"/>
	<path class="st76" d="M95.22,293.44H70.11c-1.79,0-3.24-1.45-3.24-3.24v-15.04c0-1.79,1.45-3.24,3.24-3.24h25.11
		c1.79,0,3.24,1.45,3.24,3.24v15.04C98.45,291.99,97,293.44,95.22,293.44z"/>
</g>
<g>
	<path class="st73" d="M244.55,336.01h-25.11c-1.79,0-3.24-1.45-3.24-3.24v-15.04c0-1.79,1.45-3.24,3.24-3.24h25.11
		c1.79,0,3.24,1.45,3.24,3.24v15.04C247.79,334.56,246.34,336.01,244.55,336.01z"/>
	<path class="st75" d="M194.17,336.01h-25.11c-1.79,0-3.24-1.45-3.24-3.24v-15.04c0-1.79,1.45-3.24,3.24-3.24h25.11
		c1.79,0,3.24,1.45,3.24,3.24v15.04C197.4,334.56,195.96,336.01,194.17,336.01z"/>
	<path class="st75" d="M143.78,336.01h-25.11c-1.79,0-3.24-1.45-3.24-3.24v-15.04c0-1.79,1.45-3.24,3.24-3.24h25.11
		c1.79,0,3.24,1.45,3.24,3.24v15.04C147.02,334.56,145.57,336.01,143.78,336.01z"/>
	<path class="st75" d="M93.4,336.01H68.29c-1.79,0-3.24-1.45-3.24-3.24v-15.04c0-1.79,1.45-3.24,3.24-3.24H93.4
		c1.79,0,3.24,1.45,3.24,3.24v15.04C96.63,334.56,95.19,336.01,93.4,336.01z"/>
</g>
<g>
	<path class="st77" d="M246.37,334.19h-25.11c-1.79,0-3.24-1.45-3.24-3.24v-15.04c0-1.79,1.45-3.24,3.24-3.24h25.11
		c1.79,0,3.24,1.45,3.24,3.24v15.04C249.61,332.74,248.16,334.19,246.37,334.19z"/>
	<path class="st76" d="M195.99,334.19h-25.11c-1.79,0-3.24-1.45-3.24-3.24v-15.04c0-1.79,1.45-3.24,3.24-3.24h25.11
		c1.79,0,3.24,1.45,3.24,3.24v15.04C199.22,332.74,197.77,334.19,195.99,334.19z"/>
	<path class="st76" d="M145.6,334.19h-25.11c-1.79,0-3.24-1.45-3.24-3.24v-15.04c0-1.79,1.45-3.24,3.24-3.24h25.11
		c1.79,0,3.24,1.45,3.24,3.24v15.04C148.84,332.74,147.39,334.19,145.6,334.19z"/>
	<path class="st76" d="M95.22,334.19H70.11c-1.79,0-3.24-1.45-3.24-3.24v-15.04c0-1.79,1.45-3.24,3.24-3.24h25.11
		c1.79,0,3.24,1.45,3.24,3.24v15.04C98.45,332.74,97,334.19,95.22,334.19z"/>
</g>
<g>
	<path d="M242.38,53.13l-51.93,0.3l-51.93,0.21L86.59,53.8l-25.97,0.08c-2.15,0.02-4.36-0.02-6.46,0.05
		c-2.07,0.01-4.08,0.52-5.86,1.41c-1.78,0.91-3.28,2.31-4.37,4c-1.07,1.68-1.8,3.71-2.06,5.62l0-0.09l0.26,79.88l0.13,79.88
		l-0.19,79.88c0,13.31-0.12,26.63-0.24,39.94c-0.02,3.33-0.09,6.66-0.14,9.99l-0.09,4.99c-0.03,1.66-0.08,3.34,0.01,4.94
		c0.07,1.62,0.4,3.2,0.88,4.73c0.58,1.48,1.29,2.96,2.44,4.1c2.19,2.36,5.45,3.68,8.73,3.84l0.01,0.2c-3.35,0.07-6.81-1.08-9.29-3.5
		c-1.29-1.17-2.14-2.71-2.85-4.28c-0.62-1.61-1-3.3-1.14-5c-0.16-1.72-0.16-3.38-0.19-5.04l-0.09-4.99
		c-0.06-3.33-0.13-6.66-0.14-9.99c-0.12-13.31-0.25-26.63-0.24-39.94l-0.19-79.88l0.13-79.88l0.26-79.88l0-0.06l0-0.03
		c0.17-1.22,0.47-2.29,0.87-3.38c0.38-1.08,0.93-2.1,1.54-3.08c1.26-1.94,3.04-3.58,5.12-4.62c2.08-1.02,4.39-1.57,6.65-1.57
		c2.22-0.06,4.34,0,6.52-0.01l25.97,0.12l51.93,0.23l51.93,0.28L242.38,53.13z"/>
</g>
<g>
	<rect x="63.79" y="82" class="st28" width="184" height="60.4"/>
	<polygon class="st78" points="138.07,82 167.44,82 149.37,142.33 120.82,142.33 	"/>
	<polygon class="st78" points="189.73,82 247.89,82 247.63,142.33 172.47,142.33 	"/>
	<polygon class="st78" points="95.25,82 111.64,82 93.56,142.33 78,142.33 	"/>
</g>
<g>
	<g>
		<path class="st33" d="M247.89,142.35c0,0.29-55.84,0.52-91.73,0.52c-35.9,0-91.47-0.23-91.47-0.52c0-0.29,55.57-0.52,91.47-0.52
			C192.06,141.83,247.89,142.07,247.89,142.35z"/>
	</g>
</g>
<path class="st79" d="M253.15,369.46H58.78c-6.73,0-12.18-5.45-12.18-12.18V73.19c0-6.73,5.45-12.18,12.18-12.18h194.36
	c6.73,0,12.18,5.45,12.18,12.18v284.09C265.32,364.01,259.87,369.46,253.15,369.46z"/>
<g>
	<g>
		<g>
			<g>
				<g>
					<g>
						
							<rect x="134.93" y="357.86" transform="matrix(-1 -1.224647e-16 1.224647e-16 -1 380.4188 735.803)" class="st80" width="110.55" height="20.08"/>
					</g>
					<g>
						<g>
							<path class="st25" d="M234.65,357.72c0.25,0,0.46,4.46,0.46,9.96c0,5.5-0.21,9.96-0.46,9.96c-0.25,0-0.46-4.46-0.46-9.96
								C234.19,362.18,234.4,357.72,234.65,357.72z"/>
						</g>
					</g>
					<g>
						<g>
							<path class="st25" d="M240.7,357.72c0.25,0,0.46,4.46,0.46,9.96c0,5.5-0.21,9.96-0.46,9.96c-0.25,0-0.46-4.46-0.46-9.96
								C240.24,362.18,240.45,357.72,240.7,357.72z"/>
						</g>
					</g>
					<g>
						<g>
							<path class="st25" d="M221.37,357.72c0.25,0,0.46,4.46,0.46,9.96c0,5.5-0.21,9.96-0.46,9.96c-0.25,0-0.46-4.46-0.46-9.96
								C220.91,362.18,221.12,357.72,221.37,357.72z"/>
						</g>
					</g>
					<g>
						<g>
							<path class="st25" d="M227.42,357.72c0.25,0,0.46,4.46,0.46,9.96c0,5.5-0.21,9.96-0.46,9.96s-0.46-4.46-0.46-9.96
								C226.96,362.18,227.16,357.72,227.42,357.72z"/>
						</g>
					</g>
					<g>
						<g>
							<path class="st25" d="M208.09,357.72c0.25,0,0.46,4.46,0.46,9.96c0,5.5-0.21,9.96-0.46,9.96c-0.25,0-0.46-4.46-0.46-9.96
								C207.63,362.18,207.83,357.72,208.09,357.72z"/>
						</g>
					</g>
					<g>
						<g>
							<path class="st25" d="M214.13,357.72c0.25,0,0.46,4.46,0.46,9.96c0,5.5-0.21,9.96-0.46,9.96s-0.46-4.46-0.46-9.96
								C213.67,362.18,213.88,357.72,214.13,357.72z"/>
						</g>
					</g>
					<g>
						<g>
							<path class="st25" d="M194.8,357.72c0.25,0,0.46,4.46,0.46,9.96c0,5.5-0.21,9.96-0.46,9.96c-0.25,0-0.46-4.46-0.46-9.96
								C194.34,362.18,194.55,357.72,194.8,357.72z"/>
						</g>
					</g>
					<g>
						<g>
							<path class="st25" d="M200.85,357.72c0.25,0,0.46,4.46,0.46,9.96c0,5.5-0.21,9.96-0.46,9.96c-0.25,0-0.46-4.46-0.46-9.96
								C200.39,362.18,200.59,357.72,200.85,357.72z"/>
						</g>
					</g>
					<g>
						<g>
							<path class="st25" d="M181.52,357.72c0.25,0,0.46,4.46,0.46,9.96c0,5.5-0.21,9.96-0.46,9.96c-0.25,0-0.46-4.46-0.46-9.96
								C181.06,362.18,181.26,357.72,181.52,357.72z"/>
						</g>
					</g>
					<g>
						<g>
							<path class="st25" d="M187.57,357.72c0.25,0,0.46,4.46,0.46,9.96c0,5.5-0.21,9.96-0.46,9.96c-0.25,0-0.46-4.46-0.46-9.96
								C187.11,362.18,187.31,357.72,187.57,357.72z"/>
						</g>
					</g>
					<g>
						<g>
							<path class="st25" d="M168.23,357.72c0.25,0,0.46,4.46,0.46,9.96c0,5.5-0.21,9.96-0.46,9.96s-0.46-4.46-0.46-9.96
								C167.77,362.18,167.98,357.72,168.23,357.72z"/>
						</g>
					</g>
					<g>
						<g>
							<path class="st25" d="M174.28,357.72c0.25,0,0.46,4.46,0.46,9.96c0,5.5-0.21,9.96-0.46,9.96c-0.25,0-0.46-4.46-0.46-9.96
								C173.82,362.18,174.03,357.72,174.28,357.72z"/>
						</g>
					</g>
					<g>
						<g>
							<path class="st25" d="M154.95,357.72c0.25,0,0.46,4.46,0.46,9.96c0,5.5-0.21,9.96-0.46,9.96c-0.25,0-0.46-4.46-0.46-9.96
								C154.49,362.18,154.7,357.72,154.95,357.72z"/>
						</g>
					</g>
					<g>
						<g>
							<path class="st25" d="M161,357.72c0.25,0,0.46,4.46,0.46,9.96c0,5.5-0.21,9.96-0.46,9.96c-0.25,0-0.46-4.46-0.46-9.96
								C160.54,362.18,160.74,357.72,161,357.72z"/>
						</g>
					</g>
					<g>
						<g>
							<path class="st25" d="M141.67,357.72c0.25,0,0.46,4.46,0.46,9.96c0,5.5-0.21,9.96-0.46,9.96c-0.25,0-0.46-4.46-0.46-9.96
								C141.21,362.18,141.41,357.72,141.67,357.72z"/>
						</g>
					</g>
					<g>
						<g>
							<path class="st25" d="M147.71,357.72c0.25,0,0.46,4.46,0.46,9.96c0,5.5-0.21,9.96-0.46,9.96c-0.25,0-0.46-4.46-0.46-9.96
								C147.25,362.18,147.46,357.72,147.71,357.72z"/>
						</g>
					</g>
				</g>
				<g>
					<g>
						<path class="st25" d="M134.93,377.94c0-0.25,24.87-0.46,55.53-0.46c30.68,0,55.54,0.21,55.54,0.46
							c0,0.25-24.86,0.46-55.54,0.46C159.8,378.4,134.93,378.19,134.93,377.94z"/>
					</g>
				</g>
			</g>
			<g>
				<g>
					<g>
						
							<rect x="125.9" y="337.65" transform="matrix(-1 -1.224647e-16 1.224647e-16 -1 362.3499 695.3735)" class="st81" width="110.55" height="20.08"/>
					</g>
					<g>
						<g>
							<path class="st25" d="M225.62,337.51c0.25,0,0.46,4.46,0.46,9.96c0,5.5-0.21,9.96-0.46,9.96s-0.46-4.46-0.46-9.96
								C225.16,341.97,225.36,337.51,225.62,337.51z"/>
						</g>
					</g>
					<g>
						<g>
							<path class="st25" d="M231.67,337.51c0.25,0,0.46,4.46,0.46,9.96c0,5.5-0.21,9.96-0.46,9.96s-0.46-4.46-0.46-9.96
								C231.21,341.97,231.41,337.51,231.67,337.51z"/>
						</g>
					</g>
					<g>
						<g>
							<path class="st25" d="M212.33,337.51c0.25,0,0.46,4.46,0.46,9.96c0,5.5-0.21,9.96-0.46,9.96c-0.25,0-0.46-4.46-0.46-9.96
								C211.87,341.97,212.08,337.51,212.33,337.51z"/>
						</g>
					</g>
					<g>
						<g>
							<path class="st25" d="M218.38,337.51c0.25,0,0.46,4.46,0.46,9.96c0,5.5-0.21,9.96-0.46,9.96c-0.25,0-0.46-4.46-0.46-9.96
								C217.92,341.97,218.13,337.51,218.38,337.51z"/>
						</g>
					</g>
					<g>
						<g>
							<path class="st25" d="M199.05,337.51c0.25,0,0.46,4.46,0.46,9.96c0,5.5-0.21,9.96-0.46,9.96c-0.25,0-0.46-4.46-0.46-9.96
								C198.59,341.97,198.8,337.51,199.05,337.51z"/>
						</g>
					</g>
					<g>
						<g>
							<path class="st25" d="M205.1,337.51c0.25,0,0.46,4.46,0.46,9.96c0,5.5-0.21,9.96-0.46,9.96c-0.25,0-0.46-4.46-0.46-9.96
								C204.64,341.97,204.84,337.51,205.1,337.51z"/>
						</g>
					</g>
					<g>
						<g>
							<path class="st25" d="M185.77,337.51c0.25,0,0.46,4.46,0.46,9.96c0,5.5-0.21,9.96-0.46,9.96c-0.25,0-0.46-4.46-0.46-9.96
								C185.31,341.97,185.51,337.51,185.77,337.51z"/>
						</g>
					</g>
					<g>
						<g>
							<path class="st25" d="M191.81,337.51c0.25,0,0.46,4.46,0.46,9.96c0,5.5-0.21,9.96-0.46,9.96c-0.25,0-0.46-4.46-0.46-9.96
								C191.35,341.97,191.56,337.51,191.81,337.51z"/>
						</g>
					</g>
					<g>
						<g>
							<path class="st25" d="M172.48,337.51c0.25,0,0.46,4.46,0.46,9.96c0,5.5-0.21,9.96-0.46,9.96c-0.25,0-0.46-4.46-0.46-9.96
								C172.02,341.97,172.23,337.51,172.48,337.51z"/>
						</g>
					</g>
					<g>
						<g>
							<path class="st25" d="M178.53,337.51c0.25,0,0.46,4.46,0.46,9.96c0,5.5-0.21,9.96-0.46,9.96c-0.25,0-0.46-4.46-0.46-9.96
								C178.07,341.97,178.28,337.51,178.53,337.51z"/>
						</g>
					</g>
					<g>
						<g>
							<path class="st25" d="M159.2,337.51c0.25,0,0.46,4.46,0.46,9.96c0,5.5-0.21,9.96-0.46,9.96s-0.46-4.46-0.46-9.96
								C158.74,341.97,158.95,337.51,159.2,337.51z"/>
						</g>
					</g>
					<g>
						<g>
							<path class="st25" d="M165.25,337.51c0.25,0,0.46,4.46,0.46,9.96c0,5.5-0.21,9.96-0.46,9.96c-0.25,0-0.46-4.46-0.46-9.96
								C164.79,341.97,164.99,337.51,165.25,337.51z"/>
						</g>
					</g>
					<g>
						<g>
							<path class="st25" d="M145.92,337.51c0.25,0,0.46,4.46,0.46,9.96c0,5.5-0.21,9.96-0.46,9.96c-0.25,0-0.46-4.46-0.46-9.96
								C145.46,341.97,145.66,337.51,145.92,337.51z"/>
						</g>
					</g>
					<g>
						<g>
							<path class="st25" d="M151.96,337.51c0.25,0,0.46,4.46,0.46,9.96c0,5.5-0.21,9.96-0.46,9.96s-0.46-4.46-0.46-9.96
								C151.5,341.97,151.71,337.51,151.96,337.51z"/>
						</g>
					</g>
					<g>
						<g>
							<path class="st25" d="M132.63,337.51c0.25,0,0.46,4.46,0.46,9.96c0,5.5-0.21,9.96-0.46,9.96c-0.25,0-0.46-4.46-0.46-9.96
								C132.17,341.97,132.38,337.51,132.63,337.51z"/>
						</g>
					</g>
					<g>
						<g>
							<path class="st25" d="M138.68,337.51c0.25,0,0.46,4.46,0.46,9.96c0,5.5-0.21,9.96-0.46,9.96c-0.25,0-0.46-4.46-0.46-9.96
								C138.22,341.97,138.43,337.51,138.68,337.51z"/>
						</g>
					</g>
				</g>
				<g>
					<g>
						<path class="st25" d="M125.9,357.73c0-0.25,24.92-0.46,55.66-0.46c30.75,0,55.67,0.21,55.67,0.46
							c0,0.25-24.92,0.46-55.67,0.46C150.82,358.19,125.9,357.98,125.9,357.73z"/>
					</g>
				</g>
			</g>
		</g>
		<g class="st27">
			<g>
				<path d="M236.45,357.72c-16.51-4.06-34.1-4.84-51.07-3.71c-16.97,1.13-34.1,3.62-51.1,3.42L236.45,357.72z"/>
			</g>
		</g>
		<g class="st27">
			<g>
				<path d="M235.46,377.71c-16.51-4.06-34.1-4.84-51.07-3.71c-16.97,1.13-34.1,3.62-51.1,3.42L235.46,377.71z"/>
			</g>
		</g>
	</g>
	<g>
		<g>
			<path class="st28" d="M138.19,363.15c0.25,0,0.46,2.64,0.46,5.9c0,3.26-0.21,5.9-0.46,5.9s-0.46-2.64-0.46-5.9
				C137.73,365.79,137.94,363.15,138.19,363.15z"/>
		</g>
	</g>
	<g>
		<g>
			<path class="st28" d="M128.27,342.5c0.25,0,0.46,2.34,0.46,5.23c0,2.89-0.21,5.23-0.46,5.23s-0.46-2.34-0.46-5.23
				C127.81,344.84,128.02,342.5,128.27,342.5z"/>
		</g>
	</g>
	<g>
		<g>
			<path class="st28" d="M138.97,340.29c0-0.25,8.16-0.46,18.23-0.46c10.07,0,18.23,0.21,18.23,0.46s-8.16,0.46-18.23,0.46
				C147.14,340.75,138.97,340.54,138.97,340.29z"/>
		</g>
	</g>
</g>
<g>
	<linearGradient id="SVGID_2_" gradientUnits="userSpaceOnUse" x1="294.3203" y1="186.6044" x2="294.3203" y2="362.2688">
		<stop  offset="0" style="stop-color:#F1F0EF"/>
		<stop  offset="1" style="stop-color:#BBC5FF"/>
	</linearGradient>
	<path style="fill:url(#SVGID_2_);" d="M337.62,179.14l-8.35,25.64l-0.62,1.9l-3.87,11.91l-0.03,0.08l-12.48-0.27l-47.89-1.08
		l-3.5-10.02l-0.59-1.68l-9.27-26.46C279.77,189.09,303.47,167.33,337.62,179.14z"/>
	<path class="st83" d="M328.66,206.67l-3.87,11.91l-12.51-0.19l-47.89-1.08l-3.5-10.02C277.34,206.98,305.67,206.6,328.66,206.67z"
		/>
	<linearGradient id="SVGID_3_" gradientUnits="userSpaceOnUse" x1="293.6134" y1="186.6044" x2="293.6134" y2="362.2688">
		<stop  offset="0" style="stop-color:#F1F0EF"/>
		<stop  offset="1" style="stop-color:#BBC5FF"/>
	</linearGradient>
	<path class="st7" d="M382.17,351.45c-2.46,7.85-7.33,14.45-13.64,19.09c-6.32,4.64-14.06,7.31-22.29,7.31H237.77
		c-15.68,0-29.44-10.48-33.61-25.61c-2.4-8.75-3.69-17.62-3.9-26.45c-0.01-0.85-0.03-1.7-0.03-2.55c0-1.01,0.01-2.01,0.04-3.02
		c0.88-32,16.52-61.81,41.62-81.68l25.95-20.55l59.39,1.37l32.64,31.24c4.59,4.39,8.68,9.31,11.97,14.75
		c3.93,6.52,7.12,13.41,9.53,20.52C388.5,306.82,388.96,329.78,382.17,351.45z"/>
	<g>
		<path class="st28" d="M285.57,349.16v-11.48c-8.1-0.36-15.95-2.54-20.55-5.2l3.63-14.14c5.08,2.78,12.2,5.31,20.07,5.31
			c6.89,0,11.6-2.66,11.6-7.49c0-4.6-3.87-7.5-12.81-10.52c-12.93-4.35-21.76-10.39-21.76-22.12c0-10.64,7.5-18.98,20.43-21.52
			v-11.49h11.84v10.64c8.1,0.36,13.54,2.06,17.53,3.99l-3.5,13.66c-3.14-1.33-8.7-4.11-17.41-4.11c-7.85,0-10.39,3.39-10.39,6.77
			c0,3.99,4.23,6.53,14.51,10.39c14.38,5.08,20.19,11.72,20.19,22.61c0,10.76-7.62,19.94-21.51,22.36v12.32H285.57z"/>
	</g>
	<path class="st85" d="M337.05,229.07h-84.01c-3.47,0-6.32-2.84-6.32-6.32v-2.69c0-3.47,2.84-6.32,6.32-6.32h84.01
		c3.47,0,6.32,2.84,6.32,6.32v2.69C343.37,226.23,340.53,229.07,337.05,229.07z"/>
	<path class="st83" d="M382.17,351.45c-2.46,7.85-7.33,14.45-13.64,19.09c-6.32,4.64-14.06,7.31-22.29,7.31H237.77
		c-15.68,0-29.44-10.48-33.61-25.61c-2.4-8.75-3.69-17.62-3.9-26.45c17.95,17.11,39.09,39.48,88.53,40.17
		c61.38,0.85,87.84-27.92,92.59-80.09C388.5,306.82,388.96,329.78,382.17,351.45z"/>
	<line class="st68" x1="307" y1="217" x2="307" y2="226"/>
	<line class="st68" x1="316" y1="217" x2="316" y2="226"/>
	<line class="st68" x1="329" y1="217" x2="329" y2="226"/>
	<line class="st68" x1="335" y1="217" x2="335" y2="226"/>
</g>
<g>
	<path d="M148.4,110.83c4.05,0,7.05,2.64,7.05,6.79c0,3.46-1.6,5.48-4.7,8.49l-5.03,4.83h10.77v2.09h-15.67l8.81-8.68
		c2.15-2.12,3.72-4.21,3.72-6.53c0-3-2.02-4.9-4.96-4.9c-3.13,0-4.73,2.25-4.96,5.09l-2.09-0.39
		C141.58,114.13,144.09,110.83,148.4,110.83z"/>
	<path d="M167.72,110.83c4.05,0,7.05,2.64,7.05,6.79c0,3.46-1.6,5.48-4.7,8.49l-5.03,4.83h10.77v2.09h-15.67l8.81-8.68
		c2.15-2.12,3.72-4.21,3.72-6.53c0-3-2.02-4.9-4.96-4.9c-3.13,0-4.73,2.25-4.96,5.09l-2.09-0.39
		C160.9,114.13,163.42,110.83,167.72,110.83z"/>
	<path d="M194.62,126.56c0,3.26-2.58,6.72-7.57,6.72c-4.57,0-7.28-2.87-7.57-6.79l1.99-0.39c0.29,2.15,1.5,5.09,5.78,5.09
		c3.56,0,5.29-2.45,5.29-4.44c0-2.94-2.97-4.05-6.79-4.05v-2.09c2.42-0.03,6.27-0.91,6.27-3.79c0-2.48-2.12-3.92-4.77-3.92
		c-4.31,0-5.09,2.74-5.32,4.83l-1.96-0.39c0.29-3.66,2.64-6.53,7.08-6.53c4.93,0,7.05,3.3,7.05,5.74c0,1.89-1.04,4.01-3.66,4.9
		C192.86,121.93,194.62,124.05,194.62,126.56z"/>
	<path d="M199.06,129.89h3.13l-2.87,6.27h-1.57L199.06,129.89z"/>
	<path d="M221,126.56c0,3.26-2.58,6.72-7.57,6.72c-4.57,0-7.28-2.87-7.57-6.79l1.99-0.39c0.29,2.15,1.5,5.09,5.78,5.09
		c3.56,0,5.29-2.45,5.29-4.44c0-2.94-2.97-4.05-6.79-4.05v-2.09c2.42-0.03,6.27-0.91,6.27-3.79c0-2.48-2.12-3.92-4.77-3.92
		c-4.31,0-5.09,2.74-5.32,4.83l-1.96-0.39c0.29-3.66,2.64-6.53,7.08-6.53c4.93,0,7.05,3.3,7.05,5.74c0,1.89-1.04,4.01-3.66,4.9
		C219.23,121.93,221,124.05,221,126.56z"/>
	<path d="M240.32,126.76v2.09h-2.61v4.18h-2.09v-4.18h-12.01l14.1-18.28v16.19H240.32z M235.62,116.31l-7.96,10.44h7.96V116.31z"/>
</g>
</svg>
