<?xml version="1.0" encoding="utf-8"?>
<!-- Generator: Adobe Illustrator 24.0.0, SVG Export Plug-In . SVG Version: 6.00 Build 0)  -->
<svg version="1.1" id="Capa_1" xmlns="http://www.w3.org/2000/svg" xmlns:xlink="http://www.w3.org/1999/xlink" x="0px" y="0px"
	 viewBox="0 0 500 500" style="enable-background:new 0 0 500 500;" xml:space="preserve">
<style type="text/css">
	.st0{fill:#00D954;}
	.st1{fill:#FFFFFF;}
	.st2{fill-rule:evenodd;clip-rule:evenodd;fill:#FFFFFF;}
</style>
<g>
	
		<ellipse transform="matrix(0.7071 -0.7071 0.7071 0.7071 -103.6406 249.9641)" class="st0" cx="249.91" cy="250.09" rx="243.91" ry="243.91"/>
	<path class="st1" d="M118.13,388.11l20.34-75.88c-11.51-20.78-17.58-44.05-17.58-67.68c0-77.25,62.85-140.1,140.1-140.1
		c77.25,0,140.1,62.85,140.1,140.1c0,77.25-62.85,140.1-140.1,140.1c-23.19,0-46.09-5.86-66.6-16.98L118.13,388.11z M198.19,339.25
		l4.8,2.87c17.63,10.51,37.69,16.06,58,16.06c62.65,0,113.62-50.97,113.62-113.62c0-62.65-50.97-113.62-113.62-113.62
		c-62.65,0-113.62,50.97-113.62,113.62c0,20.69,5.75,41.06,16.62,58.91l2.95,4.84l-11.35,42.36L198.19,339.25z"/>
	<path class="st2" d="M313.11,264.04c-5.77-3.45-13.27-7.3-20.06-4.52c-5.21,2.13-8.54,10.29-11.92,14.46
		c-1.73,2.14-3.8,2.47-6.46,1.4c-19.56-7.79-34.56-20.85-45.35-38.85c-1.83-2.8-1.5-5,0.7-7.6c3.26-3.84,7.36-8.2,8.24-13.38
		c0.88-5.17-1.54-11.22-3.68-15.83c-2.74-5.89-5.79-14.28-11.69-17.62c-5.42-3.06-12.56-1.35-17.39,2.59
		c-8.34,6.79-12.36,17.43-12.24,27.97c0.03,3,0.4,5.99,1.1,8.88c1.68,6.96,4.9,13.45,8.52,19.62c2.73,4.66,5.69,9.17,8.89,13.52
		c10.46,14.21,23.48,26.57,38.56,35.8c7.53,4.61,15.64,8.66,24.05,11.43c9.42,3.11,17.81,6.35,27.99,4.42
		c10.65-2.02,21.15-8.62,25.38-18.88c1.25-3.04,1.88-6.43,1.18-9.63C327.46,271.19,318.48,267.25,313.11,264.04z"/>
</g>
</svg>
