<?xml version="1.0" encoding="utf-8"?>
<!-- Generator: Adobe Illustrator 24.0.0, SVG Export Plug-In . SVG Version: 6.00 Build 0)  -->
<svg version="1.1" id="Capa_1" xmlns="http://www.w3.org/2000/svg" xmlns:xlink="http://www.w3.org/1999/xlink" x="0px" y="0px"
	 viewBox="0 0 400 400" style="enable-background:new 0 0 400 400;" xml:space="preserve">
<style type="text/css">
	.st0{fill:url(#SVGID_1_);}
	.st1{opacity:0.5;}
	.st2{fill:#609695;}
	.st3{fill:#EBEBEB;}
	.st4{fill:#CACECC;}
	.st5{fill:url(#SVGID_2_);stroke:#0E4F5E;stroke-width:0.65;stroke-miterlimit:10;}
	.st6{fill:none;stroke:#FFFFFF;stroke-miterlimit:10;}
	.st7{fill:url(#SVGID_3_);}
	.st8{opacity:0.5;fill:#126189;}
	.st9{fill:#D3D3D3;}
	.st10{fill:url(#SVGID_4_);}
	.st11{fill:url(#SVGID_5_);}
	.st12{fill:url(#SVGID_6_);}
	.st13{fill:url(#SVGID_7_);}
	.st14{fill:#455A64;}
	.st15{fill:#CBE7FF;}
	.st16{fill:#295DB1;}
	.st17{fill:#56DB92;}
	.st18{fill:#9CD6FB;}
	.st19{opacity:0.8;}
	.st20{fill:url(#SVGID_8_);}
	.st21{fill:url(#SVGID_9_);}
	.st22{fill:url(#SVGID_10_);}
	.st23{fill:url(#SVGID_11_);}
	.st24{fill:#5BDCDA;}
	.st25{fill:#263238;}
	.st26{fill:#83FFCF;}
	.st27{opacity:0.3;}
	.st28{fill:#FFFFFF;}
	.st29{fill:#C4C4C4;}
	.st30{fill:#DDDDDD;}
	.st31{fill:#EDF3F9;}
	.st32{fill:#DDE6ED;}
	.st33{fill:#1A2E35;}
	.st34{fill:#007CFF;}
	.st35{fill:#E0E0E0;}
	.st36{fill:url(#SVGID_12_);}
	.st37{fill:#0A457A;}
	.st38{fill:url(#SVGID_13_);}
	.st39{fill:#266E7A;}
	.st40{fill:url(#SVGID_14_);}
	.st41{fill:url(#SVGID_15_);}
	.st42{fill:url(#SVGID_16_);}
	.st43{fill:url(#SVGID_17_);}
	.st44{fill:url(#SVGID_18_);}
	.st45{fill:url(#SVGID_19_);}
	.st46{fill:url(#SVGID_20_);}
	.st47{fill:url(#SVGID_21_);}
	.st48{opacity:0.2;}
	.st49{fill:none;stroke:#1A2E35;stroke-width:0.25;stroke-miterlimit:10;}
	.st50{opacity:0.5;fill-rule:evenodd;clip-rule:evenodd;fill:url(#SVGID_22_);}
	.st51{fill:#EAEAEA;}
	.st52{fill-rule:evenodd;clip-rule:evenodd;fill:#56D8B3;}
	.st53{fill-rule:evenodd;clip-rule:evenodd;fill:#75F2AA;}
	.st54{opacity:0.5;fill-rule:evenodd;clip-rule:evenodd;fill:url(#SVGID_23_);}
	.st55{fill-rule:evenodd;clip-rule:evenodd;fill:#2B3F35;}
	.st56{fill-rule:evenodd;clip-rule:evenodd;fill:#007CFF;}
	.st57{fill-rule:evenodd;clip-rule:evenodd;fill:url(#SVGID_24_);}
	.st58{fill:none;stroke:#000000;stroke-miterlimit:10;}
	.st59{fill:#EBFBFF;}
	.st60{fill:url(#SVGID_25_);}
	.st61{fill:url(#SVGID_26_);}
	.st62{fill:url(#SVGID_27_);}
	.st63{fill:#EBEDED;}
	.st64{fill:#1D525B;}
	.st65{fill:url(#SVGID_28_);}
	.st66{opacity:0.7;fill:#FFFFFF;}
	.st67{fill:url(#SVGID_29_);stroke:#0E4F5E;stroke-width:0.65;stroke-miterlimit:10;}
	.st68{fill:none;stroke:#000000;stroke-width:0.25;stroke-miterlimit:10;}
	.st69{fill:#0E4F5E;}
	.st70{fill:url(#SVGID_30_);}
	.st71{fill:#CEEFE7;}
	.st72{fill:url(#SVGID_31_);stroke:#0E4F5E;stroke-width:0.65;stroke-miterlimit:10;}
	.st73{fill:#1F3C88;}
	.st74{fill:#5F81CE;}
	.st75{fill:#D3DFFF;}
	.st76{fill:#FAFCFF;}
	.st77{fill:#FFD91D;}
	.st78{opacity:0.8;fill:#D4F1F9;}
	.st79{fill:none;stroke:#FFFFFF;stroke-width:0.75;stroke-miterlimit:10;}
	.st80{fill:#42CC70;}
	.st81{fill:#5BF378;}
	.st82{fill:url(#SVGID_32_);}
	.st83{opacity:0.2;fill:#2B6ADB;}
	.st84{fill:url(#SVGID_33_);}
	.st85{fill:#2BBE9A;stroke:#000000;stroke-width:0.25;stroke-miterlimit:10;}
</style>
<path class="st4" d="M247.42,226.48c-5.71-3.21-11.99-5.53-18.59-6.76c-1.56-0.28-2.74-1.55-2.81-3.14l-0.63-14.27l-22.55,1
	l0.63,14.29c0.07,1.57-0.97,2.94-2.5,3.35c-6.49,1.82-12.54,4.68-17.94,8.38c-1.31,0.89-3.04,0.81-4.21-0.26l-10.54-9.65
	l-15.23,16.69l10.54,9.67c1.17,1.05,1.41,2.77,0.63,4.15c-3.21,5.71-5.55,11.95-6.76,18.57c-0.3,1.56-1.57,2.74-3.14,2.81
	l-14.29,0.63l1,22.57l14.29-0.63c1.57-0.07,2.94,0.99,3.37,2.52c1.8,6.47,4.65,12.5,8.36,17.88c0.9,1.33,0.83,3.06-0.24,4.23
	l-9.65,10.54l16.65,15.27l9.67-10.56c1.07-1.17,2.77-1.39,4.15-0.61c5.71,3.21,11.99,5.53,18.61,6.76c1.56,0.28,2.72,1.55,2.79,3.14
	l0.63,14.27l22.55-1l-0.63-14.27c-0.07-1.59,0.99-2.96,2.52-3.37c6.49-1.82,12.54-4.68,17.94-8.38c1.31-0.89,3.02-0.83,4.19,0.24
	l10.54,9.67l15.25-16.69l-10.56-9.67c-1.17-1.07-1.39-2.77-0.61-4.15c3.22-5.69,5.55-11.95,6.76-18.57
	c0.28-1.56,1.55-2.74,3.14-2.81l14.27-0.63l-1-22.57l-14.27,0.63c-1.57,0.07-2.96-0.99-3.37-2.52c-1.8-6.49-4.67-12.5-8.38-17.9
	c-0.89-1.31-0.81-3.04,0.26-4.21l9.65-10.54l-16.67-15.27l-9.65,10.54C250.52,227.02,248.8,227.26,247.42,226.48z M235.73,279.01
	c0.45,10.06-7.36,18.58-17.41,19.03c-10.06,0.45-18.56-7.36-19.01-17.41c-0.45-10.06,7.34-18.56,17.39-19
	C226.76,261.17,235.29,268.95,235.73,279.01z"/>
<g>
	<linearGradient id="SVGID_1_" gradientUnits="userSpaceOnUse" x1="114.5048" y1="146.876" x2="410.8946" y2="146.876">
		<stop  offset="0" style="stop-color:#90FFDB"/>
		<stop  offset="1" style="stop-color:#19A1CC"/>
	</linearGradient>
	<path style="fill:url(#SVGID_1_);stroke:#0E4F5E;stroke-width:0.65;stroke-miterlimit:10;" d="M360.97,118.43
		c-3.03-10.83-7.85-21.26-14.36-30.77c-1.56-2.23-1.44-5.21,0.4-7.22l16.55-18.08l-28.58-26.16L318.4,54.3
		c-1.82,1.99-4.75,2.39-7.11,1.03c-10.08-5.67-20.89-9.54-31.95-11.6c-2.67-0.5-4.67-2.71-4.8-5.43l-1.09-24.51l-38.73,1.77
		l1.06,24.53c0.14,2.69-1.66,5.07-4.27,5.81c-10.83,3.03-21.24,7.77-30.75,14.33c-2.26,1.54-5.23,1.42-7.22-0.4l-18.11-16.57
		l-26.18,28.61l18.11,16.57c1.99,1.82,2.36,4.77,1.03,7.16c-5.67,10.03-9.52,20.82-11.56,31.85c-0.52,2.7-2.71,4.72-5.43,4.84
		l-24.5,1.09l1.67,38.74l24.55-1.09c2.72-0.12,5.05,1.68,5.78,4.3c3.03,10.83,7.85,21.26,14.38,30.8c1.56,2.23,1.42,5.18-0.42,7.2
		l-16.55,18.08l28.58,26.16l16.55-18.08c1.84-2.01,4.8-2.39,7.16-1.03c10.08,5.67,20.89,9.54,31.95,11.6
		c2.67,0.5,4.67,2.66,4.79,5.38l1.06,24.53l38.76-1.74l-1.09-24.55c-0.12-2.72,1.68-5.05,4.3-5.78c10.81-3,21.24-7.77,30.75-14.33
		c2.23-1.56,5.21-1.44,7.22,0.4l18.08,16.55l26.18-28.61l-18.08-16.55c-1.99-1.82-2.39-4.79-1.03-7.16
		c5.69-10.05,9.5-20.84,11.56-31.9c0.5-2.67,2.71-4.67,5.43-4.79L393,160.4l-1.69-38.76l-24.5,1.09
		C364.08,122.84,361.7,121.04,360.97,118.43z M283.05,167.99c-11.66,12.74-31.47,13.62-44.22,1.96
		c-12.74-11.66-13.6-31.45-1.93-44.19c11.66-12.74,31.42-13.62,44.17-1.96S294.71,155.25,283.05,167.99z"/>
	<circle class="st6" cx="259.23" cy="146.26" r="87.06"/>
	<linearGradient id="SVGID_2_" gradientUnits="userSpaceOnUse" x1="114.5048" y1="145.6914" x2="410.8946" y2="145.6914">
		<stop  offset="0" style="stop-color:#90FFDB"/>
		<stop  offset="1" style="stop-color:#19A1CC"/>
	</linearGradient>
	<path style="fill:url(#SVGID_2_);" d="M293.06,146.57c-0.18,8.81-4,17.38-10.28,23.32c-6.23,5.98-14.74,9.41-23.32,9.41
		c-8.58,0.14-17.19-3.28-23.37-9.36c-6.26-5.98-10.09-14.55-10.25-23.37c-0.22-8.8,3.19-17.75,9.45-24.17
		c6.23-6.43,15.13-10.27,24.17-10.32c4.51,0.02,9.02,0.92,13.19,2.66c4.15,1.79,7.9,4.42,11.01,7.64
		C289.88,128.84,293.3,137.77,293.06,146.57z M288.79,146.57c-0.19-7.7-3.54-15.14-9.03-20.3c-5.46-5.18-12.84-8.13-20.3-8.13
		c-7.46-0.11-14.93,2.83-20.32,8.11c-5.45,5.21-8.81,12.62-8.98,20.32c-0.22,7.68,2.73,15.47,8.18,21.12
		c5.45,5.64,13.2,8.99,21.12,9.07c3.96,0,7.9-0.8,11.54-2.32c3.64-1.54,6.91-3.88,9.63-6.7
		C286.07,162.06,289.02,154.27,288.79,146.57z"/>
	<path class="st8" d="M293.06,146.57c-0.18,8.81-4,17.38-10.28,23.32c-6.23,5.98-14.74,9.41-23.32,9.41
		c-8.58,0.14-17.19-3.28-23.37-9.36c-6.26-5.98-10.09-14.55-10.25-23.37c-0.22-8.8,3.19-17.75,9.45-24.17
		c6.23-6.43,15.13-10.27,24.17-10.32c4.51,0.02,9.02,0.92,13.19,2.66c4.15,1.79,7.9,4.42,11.01,7.64
		C289.88,128.84,293.3,137.77,293.06,146.57z M288.79,146.57c-0.19-7.7-3.54-15.14-9.03-20.3c-5.46-5.18-12.84-8.13-20.3-8.13
		c-7.46-0.11-14.93,2.83-20.32,8.11c-5.45,5.21-8.81,12.62-8.98,20.32c-0.22,7.68,2.73,15.47,8.18,21.12
		c5.45,5.64,13.2,8.99,21.12,9.07c3.96,0,7.9-0.8,11.54-2.32c3.64-1.54,6.91-3.88,9.63-6.7
		C286.07,162.06,289.02,154.27,288.79,146.57z"/>
</g>
<g>
	<linearGradient id="SVGID_3_" gradientUnits="userSpaceOnUse" x1="212.0723" y1="348.8822" x2="300.8589" y2="348.8822">
		<stop  offset="0" style="stop-color:#75D6CC"/>
		<stop  offset="1" style="stop-color:#19A1CC"/>
	</linearGradient>
	<polygon class="st7" points="280.32,370.44 280.32,370.33 212.18,370.33 232.61,348.94 212.07,327.33 280.32,327.33 300.86,348.94 
			"/>
	<linearGradient id="SVGID_4_" gradientUnits="userSpaceOnUse" x1="280.2134" y1="348.8822" x2="369" y2="348.8822">
		<stop  offset="0" style="stop-color:#549DE2"/>
		<stop  offset="1" style="stop-color:#2C5EDB"/>
	</linearGradient>
	<polygon class="st10" points="348.46,370.44 348.46,370.33 280.32,370.33 300.75,348.94 280.21,327.33 348.46,327.33 369,348.94 	
		"/>
	<path class="st28" d="M343.28,332.44l15.67,16.49l-15.59,16.32h-52.35l15.13-15.84l0.46-0.48l-0.46-0.48l-15.22-16.01H343.28
		 M343.58,331.74H289.3l16.33,17.18l-16.25,17.01h54.19v0.09l16.33-17.1L343.58,331.74L343.58,331.74z"/>
	<path class="st28" d="M279.64,332.44l15.67,16.49l-15.59,16.32h-52.35l15.13-15.84l0.46-0.48l-0.46-0.48l-15.22-16.01H279.64
		 M279.94,331.74h-54.27L242,348.92l-16.25,17.01h54.19v0.09l16.33-17.1L279.94,331.74L279.94,331.74z"/>
	<linearGradient id="SVGID_5_" gradientUnits="userSpaceOnUse" x1="143.9313" y1="348.8822" x2="232.7179" y2="348.8822">
		<stop  offset="0" style="stop-color:#75F2AA"/>
		<stop  offset="1" style="stop-color:#19A192"/>
	</linearGradient>
	<polygon class="st11" points="212.18,370.44 212.18,370.33 144.03,370.33 164.47,348.94 143.93,327.33 212.18,327.33 
		232.72,348.94 	"/>
	<path class="st28" d="M206.91,332.44l15.67,16.49L207,365.24h-52.35l15.13-15.84l0.46-0.48l-0.46-0.48l-15.22-16.01H206.91
		 M207.21,331.74h-54.27l16.33,17.18l-16.25,17.01h54.19v0.09l16.33-17.1L207.21,331.74L207.21,331.74z"/>
</g>
<g>
	<path class="st63" d="M192.86,193.67c-3.35,8.59-7.76,17.03-12.89,25.26c-5.13,8.29-10.49,16.94-14.93,26.19
		c-8.76,18.12-15.93,37.86-19.78,59.16c-13.04-0.33-26.77-0.66-40.68-1c-14.56-0.36-28.91-0.7-42.56-1.03
		c-0.34-21.85-9.27-41.47-18.57-58.88c-4.83-8.99-10.17-17.46-15.03-25.81c-4.96-8.5-10.29-16.27-13.95-24.65
		c-7.52-16.65-8.3-34.7-4.7-50.4c3.51-15.74,9.27-30.03,17.37-40.97c8.09-11.01,18.21-18.59,27.77-23.59
		c9.6-5.03,18.61-7.71,26.01-9.4c7.43-1.66,13.3-2.32,17.28-2.67c1.85-0.11,3.34-0.2,4.53-0.28c1.02-0.07,1.54-0.09,1.54-0.15
		c0,0.06,0.53,0.12,1.56,0.21c1.19,0.08,2.7,0.18,4.57,0.3c4.04,0.07,9.96,0.78,17.48,2.14c7.46,1.66,16.56,4.24,26.15,9.46
		c9.57,5.2,19.29,13.3,27.6,24.28c7.97,11.09,15.18,24.96,17.98,40.91C202.23,158.78,199.7,176.58,192.86,193.67z"/>
	<path class="st64" d="M62.01,302.24c-0.28-12.73-3.61-25.2-8.44-36.9c-2.42-5.86-5.16-11.58-8.1-17.21
		c-2.92-5.64-6.07-11.14-9.33-16.58l-9.81-16.34c-3.28-5.43-6.73-10.78-9.72-16.43c-1.52-2.82-2.82-5.74-4.05-8.7
		c-1.15-2.99-2.2-6.02-2.99-9.13c-1.61-6.2-2.47-12.6-2.56-19c-0.1-6.4,0.56-12.82,1.93-19.08c1.37-6.23,3.13-12.39,5.36-18.37
		c2.21-5.99,4.94-11.81,8.25-17.29c3.31-5.48,7.31-10.55,11.85-15.07c4.55-4.51,9.63-8.47,15.09-11.81
		c5.46-3.33,11.28-6.05,17.28-8.24c6.01-2.17,12.2-3.81,18.47-4.98c3.14-0.59,6.29-1.05,9.47-1.4c1.58-0.16,3.18-0.34,4.77-0.41
		l2.38-0.14l1.19-0.07l0.59-0.04l0.29-0.02l0.13-0.01l0.04-0.01c-0.02,0.14,0.07-0.32-0.31,0.43l0.95,0
		c-0.11-0.46-0.24-0.36-0.25-0.41l-0.03-0.01l0.02,0.01l0.1,0.02l0.24,0.03l0.51,0.06c0.34,0.04,0.68,0.06,1.03,0.08l2.08,0.14
		l2.08,0.14c0.69,0.02,1.4,0.05,2.1,0.09c2.8,0.18,5.58,0.52,8.35,0.92c2.76,0.43,5.52,0.82,8.27,1.45c2.72,0.64,5.43,1.35,8.1,2.18
		c10.69,3.27,20.88,8.47,29.47,15.67c4.3,3.59,8.24,7.58,11.83,11.87c3.61,4.28,6.65,8.99,9.44,13.82
		c5.54,9.68,9.63,20.24,11.52,31.24c-2-10.98-6.19-21.48-11.82-31.07c-2.83-4.79-5.91-9.45-9.54-13.66
		c-3.61-4.22-7.57-8.15-11.87-11.67c-8.56-7.09-18.65-12.2-29.27-15.41c-2.65-0.81-5.35-1.51-8.05-2.14
		c-2.69-0.6-5.46-0.99-8.2-1.41c-2.75-0.39-5.51-0.72-8.28-0.89c-0.69-0.04-1.38-0.07-2.08-0.08l-2.09-0.13l-2.09-0.14
		c-0.34-0.02-0.7-0.05-1.05-0.08l-0.53-0.06l-0.28-0.04l-0.16-0.03l-0.1-0.03l-0.09-0.03c-0.03-0.06-0.18,0.04-0.3-0.45l0.95,0
		c-0.41,0.8-0.37,0.34-0.44,0.49l-0.11,0.02l-0.17,0.02l-0.31,0.03l-0.6,0.04l-1.19,0.08l-2.38,0.15c-1.59,0.08-3.15,0.26-4.73,0.43
		c-3.15,0.36-6.28,0.83-9.39,1.42c-6.22,1.18-12.35,2.83-18.29,5c-5.93,2.19-11.67,4.9-17.05,8.21
		c-5.38,3.31-10.37,7.23-14.83,11.69c-4.46,4.46-8.37,9.46-11.61,14.87c-3.24,5.41-5.91,11.16-8.08,17.09
		c-2.18,5.93-3.9,12.03-5.24,18.21c-1.37,6.15-2.04,12.45-1.96,18.75c0.07,6.3,0.89,12.59,2.46,18.69c0.77,3.06,1.79,6.04,2.92,8.98
		c1.2,2.91,2.47,5.8,3.96,8.59c2.94,5.59,6.38,10.93,9.63,16.41l9.66,16.43c3.22,5.48,6.34,11.04,9.21,16.72
		c2.88,5.67,5.62,11.43,7.93,17.36c2.32,5.93,4.28,12,5.66,18.22C61.18,289.55,61.96,295.89,62.01,302.24z"/>
	<g>
		<g>
			<g>
				<path class="st64" d="M116.56,302.58c0,0-0.1-0.46-0.21-1.35c-0.12-0.95-0.28-2.27-0.49-3.97c-0.4-3.55-0.97-8.68-1.71-15.27
					c-1.37-13.27-3.44-32.5-4.39-56.37c-0.21-5.97-0.38-12.22-0.35-18.74c0.05-6.52,0.04-13.31,0.7-20.34
					c0.68-6.99,2.12-14.33,5.65-21.08c3.53-6.64,9.21-12.79,16.88-15.59c7.62-2.92,17.07-0.86,22.98,5.34
					c2.91,3.1,4.77,7.44,4.49,11.84c-0.19,4.39-2.06,8.61-4.84,12.01c-2.76,3.46-6.52,6.06-10.57,7.85
					c-4.06,1.83-8.42,2.9-12.81,3.69c-8.8,1.49-17.84,2.14-26.98,2.04c-9.14-0.16-18.17-0.7-26.97-2.4
					c-4.38-0.9-8.69-2.22-12.66-4.21c-3.98-1.98-7.56-4.71-10.42-8.05c-2.85-3.33-4.95-7.33-5.71-11.62
					c-0.82-4.3,0.02-8.79,2.02-12.53c1.99-3.75,5.23-6.91,9.25-8.3c4.02-1.44,8.49-0.81,12.09,1.05c3.64,1.86,6.6,4.74,8.73,8.04
					c2.14,3.34,3.34,7.07,4.09,10.78c1.44,7.47,1.1,14.79,1.28,21.78c0.17,14.03,0.32,27.1,0.46,39.03
					c0.24,23.82,0.44,43.12,0.57,56.52c0.04,6.63,0.07,11.8,0.09,15.37c0,1.71-0.01,3.04-0.01,4c-0.01,0.9-0.05,1.36-0.05,1.36
					s-0.05-0.46-0.09-1.36c-0.03-0.95-0.07-2.28-0.12-4c-0.08-3.57-0.19-8.73-0.34-15.36c-0.23-13.4-0.57-32.69-0.99-56.51
					c-0.19-11.94-0.4-25-0.62-39.03c-0.19-7.01,0.11-14.31-1.32-21.57c-0.73-3.6-1.92-7.21-3.95-10.36
					c-2.03-3.14-4.86-5.87-8.27-7.6c-3.38-1.73-7.48-2.28-11.13-0.97c-3.66,1.27-6.68,4.2-8.54,7.72c-1.87,3.53-2.65,7.7-1.88,11.71
					c0.72,4.03,2.71,7.83,5.44,11.01c5.47,6.5,13.78,10.13,22.35,11.82c8.63,1.67,17.66,2.21,26.72,2.36
					c9.07,0.09,18.05-0.55,26.74-2.02c4.33-0.77,8.59-1.82,12.51-3.58c3.92-1.73,7.48-4.2,10.1-7.47c2.64-3.22,4.39-7.19,4.57-11.25
					c0.26-4.08-1.44-8.02-4.14-10.93c-5.53-5.81-14.46-7.82-21.65-5.06c-7.3,2.64-12.83,8.54-16.27,14.98
					c-3.44,6.54-4.89,13.73-5.59,20.65c-0.68,6.94-0.7,13.73-0.77,20.23c-0.06,6.5,0.09,12.75,0.26,18.71
					c0.82,23.83,2.75,43.06,3.96,56.35c0.63,6.6,1.12,11.75,1.46,15.3c0.15,1.71,0.27,3.03,0.35,3.98
					C116.55,302.11,116.56,302.58,116.56,302.58z"/>
			</g>
		</g>
	</g>
	<g>
		<linearGradient id="SVGID_6_" gradientUnits="userSpaceOnUse" x1="103.622" y1="302.5598" x2="103.622" y2="377.3362">
			<stop  offset="0" style="stop-color:#9FB8EF"/>
			<stop  offset="1" style="stop-color:#D8E0FF"/>
		</linearGradient>
		<path class="st12" d="M85.83,303.81c-6.72-0.27-12.61-0.52-17.88-0.73c-4.2-0.21-6.53-0.37-6.66-0.52
			c0.2,0.2,0.35,5.31,0.53,14.18c0.12,10.12,0.26,22.16,0.41,36.21c0.34-0.27,1.27-0.88,2.73-1.7c1.91-1.1,4.77-2.53,8.43-4
			c7.29-2.96,18.07-5.75,30.19-5.62c12.12,0.11,22.84,3.12,30.06,6.22c3.63,1.54,6.47,3.03,8.36,4.16c1.85,1.1,2.84,1.8,2.84,1.9
			c-0.05,0.09-1.13-0.47-3.08-1.45c-1.96-0.98-4.83-2.33-8.46-3.74c-7.25-2.85-17.81-5.65-29.72-5.76
			c-11.91-0.12-22.53,2.47-29.84,5.17c-3.67,1.34-6.56,2.63-8.53,3.58c-1.61,0.76-2.62,1.27-2.97,1.38v0.04
			c7.93,9.91,16.84,21.05,26.45,33.07c9.93-0.17,20.5-0.34,31.45-0.51c5.4-6.08,11.01-12.39,16.74-18.84
			c2.76-3.09,5.5-6.16,8.19-9.19c0.1-5.77,0.2-11.44,0.3-17c-0.06,0.08-1.14-0.48-3.09-1.46c-1.95-0.98-4.82-2.33-8.45-3.74
			c-7.25-2.85-17.82-5.65-29.72-5.76c-11.91-0.12-22.55,2.47-29.84,5.17c-3.67,1.34-6.56,2.63-8.54,3.58
			c-1.97,0.94-3.06,1.48-3.11,1.39c0-0.1,1-0.78,2.87-1.84c1.91-1.09,4.77-2.53,8.44-4c7.29-2.96,18.07-5.75,30.19-5.62
			c12.11,0.11,22.83,3.11,30.06,6.22c3.63,1.54,6.46,3.03,8.35,4.16c1.86,1.1,2.85,1.81,2.85,1.91c0.2-12.28,0.4-24.03,0.6-35.1
			C122.55,304.89,102.23,304.29,85.83,303.81z M141.99,326.59c-1.96-0.99-4.82-2.34-8.46-3.74c-7.23-2.85-17.81-5.66-29.72-5.77
			c-11.9-0.11-22.54,2.47-29.84,5.18c-3.66,1.34-6.56,2.63-8.53,3.58c-1.97,0.94-3.06,1.48-3.12,1.39c0-0.1,1-0.79,2.88-1.86
			c1.91-1.09,4.77-2.53,8.44-3.99c7.29-2.96,18.07-5.75,30.19-5.62c12.11,0.11,22.83,3.11,30.05,6.21c3.65,1.54,6.47,3.04,8.36,4.16
			c1.86,1.11,2.85,1.82,2.85,1.91C145.03,328.13,143.95,327.57,141.99,326.59z"/>
	</g>
</g>
</svg>
