<?xml version="1.0" encoding="utf-8"?>
<!-- Generator: Adobe Illustrator 24.0.0, SVG Export Plug-In . SVG Version: 6.00 Build 0)  -->
<svg version="1.1" id="Capa_1" xmlns="http://www.w3.org/2000/svg" xmlns:xlink="http://www.w3.org/1999/xlink" x="0px" y="0px"
	 viewBox="0 0 400 400" style="enable-background:new 0 0 400 400;" xml:space="preserve">
<style type="text/css">
	.st0{fill:url(#SVGID_1_);}
	.st1{opacity:0.5;}
	.st2{fill:#609695;}
	.st3{fill:#EBEBEB;}
	.st4{fill:#CACECC;}
	.st5{fill:url(#SVGID_2_);stroke:#0E4F5E;stroke-width:0.65;stroke-miterlimit:10;}
	.st6{fill:none;stroke:#FFFFFF;stroke-miterlimit:10;}
	.st7{fill:url(#SVGID_3_);}
	.st8{opacity:0.5;fill:#126189;}
	.st9{fill:#D3D3D3;}
	.st10{fill:url(#SVGID_4_);}
	.st11{fill:url(#SVGID_5_);}
	.st12{fill:url(#SVGID_6_);}
	.st13{fill:url(#SVGID_7_);}
	.st14{fill:#455A64;}
	.st15{fill:#CBE7FF;}
	.st16{fill:#295DB1;}
	.st17{fill:#56DB92;}
	.st18{fill:#9CD6FB;}
	.st19{opacity:0.8;}
	.st20{fill:url(#SVGID_8_);}
	.st21{fill:url(#SVGID_9_);}
	.st22{fill:url(#SVGID_10_);}
	.st23{fill:url(#SVGID_11_);}
	.st24{fill:#5BDCDA;}
	.st25{fill:#263238;}
	.st26{fill:#83FFCF;}
	.st27{opacity:0.3;}
	.st28{fill:#FFFFFF;}
	.st29{fill:#C4C4C4;}
	.st30{fill:#DDDDDD;}
	.st31{fill:#EDF3F9;}
	.st32{fill:#DDE6ED;}
	.st33{fill:#1A2E35;}
	.st34{fill:#007CFF;}
	.st35{fill:#E0E0E0;}
	.st36{fill:url(#SVGID_12_);}
	.st37{fill:#0A457A;}
	.st38{fill:url(#SVGID_13_);}
	.st39{fill:#266E7A;}
	.st40{fill:url(#SVGID_14_);}
	.st41{fill:url(#SVGID_15_);}
	.st42{fill:url(#SVGID_16_);}
	.st43{fill:url(#SVGID_17_);}
	.st44{fill:url(#SVGID_18_);}
	.st45{fill:url(#SVGID_19_);}
	.st46{fill:url(#SVGID_20_);}
	.st47{fill:url(#SVGID_21_);}
	.st48{opacity:0.2;}
	.st49{fill:none;stroke:#1A2E35;stroke-width:0.25;stroke-miterlimit:10;}
	.st50{opacity:0.5;fill-rule:evenodd;clip-rule:evenodd;fill:url(#SVGID_22_);}
	.st51{fill:#EAEAEA;}
	.st52{fill-rule:evenodd;clip-rule:evenodd;fill:#56D8B3;}
	.st53{fill-rule:evenodd;clip-rule:evenodd;fill:#75F2AA;}
	.st54{opacity:0.5;fill-rule:evenodd;clip-rule:evenodd;fill:url(#SVGID_23_);}
	.st55{fill-rule:evenodd;clip-rule:evenodd;fill:#2B3F35;}
	.st56{fill-rule:evenodd;clip-rule:evenodd;fill:#007CFF;}
	.st57{fill-rule:evenodd;clip-rule:evenodd;fill:url(#SVGID_24_);}
	.st58{fill:none;stroke:#000000;stroke-miterlimit:10;}
	.st59{fill:#EBFBFF;}
	.st60{fill:url(#SVGID_25_);}
	.st61{fill:url(#SVGID_26_);}
	.st62{fill:url(#SVGID_27_);}
	.st63{fill:#EBEDED;}
	.st64{fill:#1D525B;}
	.st65{fill:url(#SVGID_28_);}
	.st66{opacity:0.7;fill:#FFFFFF;}
	.st67{fill:url(#SVGID_29_);stroke:#0E4F5E;stroke-width:0.65;stroke-miterlimit:10;}
	.st68{fill:none;stroke:#000000;stroke-width:0.25;stroke-miterlimit:10;}
	.st69{fill:#0E4F5E;}
	.st70{fill:url(#SVGID_30_);}
	.st71{fill:#CEEFE7;}
	.st72{fill:url(#SVGID_31_);stroke:#0E4F5E;stroke-width:0.65;stroke-miterlimit:10;}
	.st73{fill:#1F3C88;}
	.st74{fill:#5F81CE;}
	.st75{fill:#D3DFFF;}
	.st76{fill:#FAFCFF;}
	.st77{fill:#FFD91D;}
	.st78{opacity:0.8;fill:#D4F1F9;}
	.st79{fill:none;stroke:#FFFFFF;stroke-width:0.75;stroke-miterlimit:10;}
	.st80{fill:#42CC70;}
	.st81{fill:#5BF378;}
	.st82{fill:url(#SVGID_32_);}
	.st83{opacity:0.2;fill:#2B6ADB;}
	.st84{fill:url(#SVGID_33_);}
	.st85{fill:#2BBE9A;stroke:#000000;stroke-width:0.25;stroke-miterlimit:10;}
</style>
<linearGradient id="SVGID_1_" gradientUnits="userSpaceOnUse" x1="165.4644" y1="215.2796" x2="165.4644" y2="408.9366">
	<stop  offset="0" style="stop-color:#FAFAFA;stop-opacity:0.2"/>
	<stop  offset="1" style="stop-color:#001D6F;stop-opacity:0.3"/>
</linearGradient>
<polygon style="opacity:0.5;fill-rule:evenodd;clip-rule:evenodd;fill:url(#SVGID_1_);" points="210.39,234.72 120.54,234.72 
	61.61,234.72 61.61,383.5 120.54,383.5 210.39,383.5 269.32,383.5 269.32,234.72 "/>
<g>
	<g>
		<g>
			<g>
				<g>
					<g>
						<g>
							<g>
								<g>
									<polygon class="st51" points="25.87,261.32 25.87,379.51 140.66,379.51 267.27,379.51 267.27,261.32 									"/>
								</g>
							</g>
						</g>
					</g>
				</g>
				<g>
					<g>
						<g>
							<g>
								<g>
									<polygon class="st35" points="15.75,228.27 15.75,261.32 275.72,261.32 275.72,228.27 140.66,228.27 									"/>
								</g>
							</g>
						</g>
					</g>
				</g>
				<g>
					<g>
						<g>
							<g>
								<g>
									<polygon class="st35" points="145.73,379.51 267.27,379.51 267.27,261.32 275.72,261.32 275.72,228.27 140.66,228.27 
										140.66,258.26 									"/>
								</g>
							</g>
						</g>
					</g>
				</g>
				<g>
					<g>
						<g>
							<g>
								<g>
									<rect x="59.64" y="280.38" class="st35" width="48.96" height="17.79"/>
								</g>
							</g>
						</g>
					</g>
				</g>
				<g>
					<g>
						<g>
							<g>
								<g>
									<rect x="53.34" y="320.41" class="st28" width="62.86" height="37.57"/>
								</g>
							</g>
						</g>
					</g>
				</g>
			</g>
		</g>
		<g>
			<g>
				<g>
					<g>
						<g>
							<g>
								<g>
									<polygon class="st51" points="48.05,110.19 48.05,228.38 162.84,228.38 289.45,228.38 289.45,110.19 									"/>
								</g>
							</g>
						</g>
					</g>
				</g>
				<g>
					<g>
						<g>
							<g>
								<g>
									<polygon class="st35" points="37.92,77.15 37.92,110.19 297.89,110.19 297.89,77.15 162.84,77.15 									"/>
								</g>
							</g>
						</g>
					</g>
				</g>
				<g>
					<g>
						<g>
							<g>
								<g>
									<polygon class="st35" points="167.91,228.38 289.45,228.38 289.45,110.19 297.89,110.19 297.89,77.15 162.84,77.15 
										162.84,107.13 									"/>
								</g>
							</g>
						</g>
					</g>
				</g>
				<g>
					<g>
						<g>
							<g>
								<g>
									<rect x="81.81" y="129.25" class="st35" width="48.96" height="17.79"/>
								</g>
							</g>
						</g>
					</g>
				</g>
				<g>
					<g>
						<g>
							<g>
								<g>
									<rect x="75.51" y="169.28" class="st28" width="62.86" height="37.57"/>
								</g>
							</g>
						</g>
					</g>
				</g>
			</g>
		</g>
	</g>
	<g>
		<g>
			<rect x="197.22" y="28.53" class="st52" width="183" height="355.47"/>
		</g>
		<g>
			<rect x="137.01" y="28.53" class="st53" width="183" height="355.47"/>
		</g>
		<linearGradient id="SVGID_2_" gradientUnits="userSpaceOnUse" x1="258.6163" y1="9.2205" x2="258.6163" y2="499.5573">
			<stop  offset="0" style="stop-color:#FAFAFA;stop-opacity:0.2"/>
			<stop  offset="1" style="stop-color:#001D6F;stop-opacity:0.3"/>
		</linearGradient>
		<polygon style="opacity:0.5;fill-rule:evenodd;clip-rule:evenodd;fill:url(#SVGID_2_);" points="320.01,28.53 197.22,28.53 
			137.01,28.53 137.01,384 197.22,384 320.01,384 380.22,384 380.22,28.53 		"/>
		<g>
			<g>
				<g>
					<path class="st55" d="M174.38,51.35V41.11H157.1v10.24c0,4.38,3.31,8.02,7.54,8.56l0,8.92h-3.84c-1.34,0-2.45,0.78-2.45,1.72
						h14.76c0-0.94-1.1-1.72-2.45-1.72h-3.84v-8.92C171.07,59.37,174.38,55.73,174.38,51.35z"/>
				</g>
				<g>
					<path class="st55" d="M207.45,50.66c-1.35-5.47-6.31-9.55-12.17-9.55h0c-5.87,0-10.82,4.09-12.17,9.55h11.01v16.06
						c-0.1,1.25-1.15,2.24-2.43,2.24c-1.28,0-2.33-0.99-2.43-2.24h-2.34c0.1,2.55,2.2,4.58,4.78,4.58c2.57,0,4.67-2.03,4.78-4.58
						V50.66H207.45z"/>
				</g>
			</g>
			<g>
				<g>
					<path class="st28" d="M380.67,198.01c0,0.46-54.92,0.84-122.66,0.84c-67.76,0-122.67-0.37-122.67-0.84s54.91-0.84,122.67-0.84
						C325.75,197.18,380.67,197.55,380.67,198.01z"/>
				</g>
			</g>
			<g>
				<g>
					<path class="st28" d="M228.51,384c-0.31,0-0.56-79.66-0.56-177.89c0-98.27,0.25-177.91,0.56-177.91
						c0.31,0,0.56,79.64,0.56,177.91C229.07,304.34,228.82,384,228.51,384z"/>
				</g>
			</g>
		</g>
	</g>
	<g>
		<g>
			<rect x="117.96" y="229.77" class="st56" width="153.71" height="153.71"/>
		</g>
	</g>
	<g>
		<linearGradient id="SVGID_3_" gradientUnits="userSpaceOnUse" x1="133.9377" y1="207.7135" x2="133.9377" y2="532.689">
			<stop  offset="0" style="stop-color:#90FFDB"/>
			<stop  offset="1" style="stop-color:#19A1CC"/>
		</linearGradient>
		<rect x="57.08" y="229.77" style="fill-rule:evenodd;clip-rule:evenodd;fill:url(#SVGID_3_);" width="153.71" height="153.71"/>
	</g>
	<g>
		<polygon class="st55" points="98.55,255.72 102.92,255.72 99.15,248.81 95.39,241.9 91.62,248.81 87.85,255.72 92.23,255.72 
			92.23,273.1 81.46,273.1 81.46,255.72 85.83,255.72 82.07,248.81 78.3,241.9 74.53,248.81 70.76,255.72 75.14,255.72 75.14,273.1 
			72.6,273.1 72.6,275.52 101.09,275.52 101.09,273.1 98.55,273.1 		"/>
	</g>
	<g>
		<g>
			<path class="st28" d="M135.65,383.27c-0.31,0-0.56-34.1-0.56-76.17c0-42.08,0.25-76.17,0.56-76.17c0.31,0,0.56,34.1,0.56,76.17
				C136.2,349.17,135.95,383.27,135.65,383.27z"/>
		</g>
	</g>
	<g>
		<g>
			<path class="st28" d="M273.15,306.43c0,0.31-48.69,0.56-108.74,0.56c-60.07,0-108.75-0.25-108.75-0.56
				c0-0.31,48.68-0.56,108.75-0.56C224.46,305.87,273.15,306.12,273.15,306.43z"/>
		</g>
	</g>
	<path d="M275.25,28.01l0.02,0.25l0.02,0.14c0.01,0.08,0.03,0.11,0.04,0.11l0.09,0l0.17,0l0.35,0l0.7,0l1.4-0.01l2.8-0.01l5.59-0.02
		c3.73-0.02,7.46-0.01,11.19-0.07c7.46-0.08,14.92-0.18,22.38-0.39l0.52-0.01l0,0.53l-0.52,148.83l-0.52-148.83l0.52,0.52
		c-7.46-0.21-14.92-0.31-22.38-0.39c-3.73-0.06-7.46-0.05-11.19-0.07l-5.59-0.02l-2.8-0.01l-1.4-0.01l-0.7,0l-0.35,0l-0.17,0
		l-0.09,0c-0.01,0-0.03,0.03-0.04,0.11l-0.02,0.14l-0.02,0.25V28.01z"/>
	<polygon points="380.22,28.53 320.01,29.05 320.01,28.01 	"/>
	<g>
		<polygon points="320.42,218.69 321.03,384 320.03,384 		"/>
	</g>
	<line class="st58" x1="379.83" y1="28.59" x2="379.83" y2="384"/>
	<line class="st58" x1="271.86" y1="229.54" x2="271.86" y2="383.48"/>
	<g>
		<g>
			<path class="st28" d="M307.57,52.37c-0.06,0.09-6.13-3.75-13.56-8.56c-7.44-4.82-13.42-8.79-13.36-8.87
				c0.06-0.09,6.13,3.75,13.57,8.56C301.64,48.31,307.63,52.28,307.57,52.37z"/>
		</g>
	</g>
	<g>
		<g>
			<path class="st28" d="M310.38,62.19c-0.06,0.1-7.03-4.3-15.56-9.82c-8.53-5.52-15.39-10.08-15.33-10.18
				c0.06-0.1,7.03,4.3,15.56,9.82C303.58,57.53,310.44,62.09,310.38,62.19z"/>
		</g>
	</g>
	<g>
		<g>
			<path class="st28" d="M309.89,69.03c-0.06,0.1-7.03-4.3-15.56-9.82c-8.53-5.52-15.39-10.08-15.33-10.18
				c0.06-0.1,7.03,4.3,15.56,9.82C303.09,64.38,309.95,68.93,309.89,69.03z"/>
		</g>
	</g>
	<g>
		<g>
			<path class="st59" d="M195.99,259c-0.06,0.09-6.13-3.75-13.56-8.56c-7.44-4.82-13.42-8.79-13.36-8.87
				c0.06-0.09,6.13,3.75,13.57,8.56C190.06,254.94,196.04,258.92,195.99,259z"/>
		</g>
	</g>
	<g>
		<g>
			<path class="st59" d="M198.8,268.82c-0.06,0.1-7.03-4.3-15.56-9.82c-8.53-5.52-15.39-10.08-15.33-10.18
				c0.06-0.1,7.03,4.3,15.56,9.82C192,264.16,198.86,268.72,198.8,268.82z"/>
		</g>
	</g>
	<g>
		<g>
			<path class="st59" d="M198.31,275.67c-0.06,0.1-7.03-4.3-15.56-9.82c-8.53-5.52-15.39-10.08-15.33-10.18
				c0.06-0.1,7.03,4.3,15.56,9.82C191.51,271.01,198.37,275.57,198.31,275.67z"/>
		</g>
	</g>
	<g>
		<g>
			<path class="st33" d="M213.73,230.23c0,0.22-22.31,0.4-49.82,0.4c-27.52,0-49.83-0.18-49.83-0.4c0-0.22,22.3-0.4,49.83-0.4
				C191.43,229.83,213.73,230.01,213.73,230.23z"/>
		</g>
	</g>
	<g>
		<g>
			<path class="st33" d="M211.03,244.98c0.3,0,0.55,30.89,0.55,68.99c0,38.11-0.25,69-0.55,69c-0.3,0-0.55-30.89-0.55-69
				C210.48,275.87,210.73,244.98,211.03,244.98z"/>
		</g>
	</g>
</g>
</svg>
