<?xml version="1.0" encoding="utf-8"?>
<!-- Generator: Adobe Illustrator 24.0.0, SVG Export Plug-In . SVG Version: 6.00 Build 0)  -->
<svg version="1.1" id="Capa_1" xmlns="http://www.w3.org/2000/svg" xmlns:xlink="http://www.w3.org/1999/xlink" x="0px" y="0px"
	 viewBox="0 0 400 400" style="enable-background:new 0 0 400 400;" xml:space="preserve">
<style type="text/css">
	.st0{fill:url(#SVGID_1_);}
	.st1{opacity:0.5;}
	.st2{fill:#609695;}
	.st3{fill:#EBEBEB;}
	.st4{fill:#CACECC;}
	.st5{fill:url(#SVGID_2_);stroke:#0E4F5E;stroke-width:0.65;stroke-miterlimit:10;}
	.st6{fill:none;stroke:#FFFFFF;stroke-miterlimit:10;}
	.st7{fill:url(#SVGID_3_);}
	.st8{opacity:0.5;fill:#126189;}
	.st9{fill:#D3D3D3;}
	.st10{fill:url(#SVGID_4_);}
	.st11{fill:url(#SVGID_5_);}
	.st12{fill:url(#SVGID_6_);}
	.st13{fill:url(#SVGID_7_);}
	.st14{fill:#455A64;}
	.st15{fill:#CBE7FF;}
	.st16{fill:#295DB1;}
	.st17{fill:#56DB92;}
	.st18{fill:#9CD6FB;}
	.st19{opacity:0.8;}
	.st20{fill:url(#SVGID_8_);}
	.st21{fill:url(#SVGID_9_);}
	.st22{fill:url(#SVGID_10_);}
	.st23{fill:url(#SVGID_11_);}
	.st24{fill:#5BDCDA;}
	.st25{fill:#263238;}
	.st26{fill:#83FFCF;}
	.st27{opacity:0.3;}
	.st28{fill:#FFFFFF;}
	.st29{fill:#C4C4C4;}
	.st30{fill:#DDDDDD;}
	.st31{fill:#EDF3F9;}
	.st32{fill:#DDE6ED;}
	.st33{fill:#1A2E35;}
	.st34{fill:#007CFF;}
	.st35{fill:#E0E0E0;}
	.st36{fill:url(#SVGID_12_);}
	.st37{fill:#0A457A;}
	.st38{fill:url(#SVGID_13_);}
	.st39{fill:#266E7A;}
	.st40{fill:url(#SVGID_14_);}
	.st41{fill:url(#SVGID_15_);}
	.st42{fill:url(#SVGID_16_);}
	.st43{fill:url(#SVGID_17_);}
	.st44{fill:url(#SVGID_18_);}
	.st45{fill:url(#SVGID_19_);}
	.st46{fill:url(#SVGID_20_);}
	.st47{fill:url(#SVGID_21_);}
	.st48{opacity:0.2;}
	.st49{fill:none;stroke:#1A2E35;stroke-width:0.25;stroke-miterlimit:10;}
	.st50{opacity:0.5;fill-rule:evenodd;clip-rule:evenodd;fill:url(#SVGID_22_);}
	.st51{fill:#EAEAEA;}
	.st52{fill-rule:evenodd;clip-rule:evenodd;fill:#56D8B3;}
	.st53{fill-rule:evenodd;clip-rule:evenodd;fill:#75F2AA;}
	.st54{opacity:0.5;fill-rule:evenodd;clip-rule:evenodd;fill:url(#SVGID_23_);}
	.st55{fill-rule:evenodd;clip-rule:evenodd;fill:#2B3F35;}
	.st56{fill-rule:evenodd;clip-rule:evenodd;fill:#007CFF;}
	.st57{fill-rule:evenodd;clip-rule:evenodd;fill:url(#SVGID_24_);}
	.st58{fill:none;stroke:#000000;stroke-miterlimit:10;}
	.st59{fill:#EBFBFF;}
	.st60{fill:url(#SVGID_25_);}
	.st61{fill:url(#SVGID_26_);}
	.st62{fill:url(#SVGID_27_);}
	.st63{fill:#EBEDED;}
	.st64{fill:#1D525B;}
	.st65{fill:url(#SVGID_28_);}
	.st66{opacity:0.7;fill:#FFFFFF;}
	.st67{fill:url(#SVGID_29_);stroke:#0E4F5E;stroke-width:0.65;stroke-miterlimit:10;}
	.st68{fill:none;stroke:#000000;stroke-width:0.25;stroke-miterlimit:10;}
	.st69{fill:#0E4F5E;}
	.st70{fill:url(#SVGID_30_);}
	.st71{fill:#CEEFE7;}
	.st72{fill:url(#SVGID_31_);stroke:#0E4F5E;stroke-width:0.65;stroke-miterlimit:10;}
	.st73{fill:#1F3C88;}
	.st74{fill:#5F81CE;}
	.st75{fill:#D3DFFF;}
	.st76{fill:#FAFCFF;}
	.st77{fill:#FFD91D;}
	.st78{opacity:0.8;fill:#D4F1F9;}
	.st79{fill:none;stroke:#FFFFFF;stroke-width:0.75;stroke-miterlimit:10;}
	.st80{fill:#42CC70;}
	.st81{fill:#5BF378;}
	.st82{fill:url(#SVGID_32_);}
	.st83{opacity:0.2;fill:#2B6ADB;}
	.st84{fill:url(#SVGID_33_);}
	.st85{fill:#2BBE9A;stroke:#000000;stroke-width:0.25;stroke-miterlimit:10;}
</style>
<g>
	<g>
		<g>
			<path class="st29" d="M348.16,30.15c0,0,22.6,0.32,12.93,45.06c-9.67,44.74-8.42,53.2-8.42,70.9c0,20.74,16.71,28.16,16.71,28.16
				h-30.65L316.19,69.84V30.15H348.16z"/>
		</g>
		<g>
			<polygon class="st29" points="354.8,382.39 45.34,382.39 48.1,79.63 339.57,64.4 			"/>
		</g>
		<g>
			<polygon class="st30" points="344.18,374.58 34.72,374.58 37.47,71.81 337.95,65.95 			"/>
		</g>
		<g>
			<g>
				<polygon class="st31" points="337.81,366.13 28.93,366.13 29,62 338,62 				"/>
			</g>
		</g>
		<g>
			<path class="st32" d="M338,62c-15.95-18.58,2.51-32.5,8.75-32.79L52.68,29.05c-15.37-0.01-27.06,13.85-24.43,29
				C28.66,60.37,29,62,29,62"/>
		</g>
		<g>
			<g>
				<path class="st33" d="M155.28,38.47c0.12,0.08-0.76,1.26-1.64,3.41c-0.45,1.07-0.83,2.4-1.11,3.9
					c-0.24,1.51-0.36,3.19-0.23,4.95c0.15,1.76,0.52,3.4,0.99,4.85c0.51,1.44,1.08,2.7,1.69,3.68c1.19,1.99,2.24,3.02,2.14,3.12
					c-0.04,0.04-0.32-0.19-0.8-0.65c-0.5-0.45-1.12-1.19-1.79-2.17c-0.69-0.98-1.34-2.26-1.9-3.74c-0.52-1.49-0.93-3.2-1.08-5.03
					c-0.13-1.83,0.02-3.58,0.3-5.13c0.33-1.55,0.78-2.91,1.31-3.99c0.52-1.08,1.02-1.91,1.44-2.42
					C154.99,38.71,155.24,38.44,155.28,38.47z"/>
			</g>
		</g>
		<g>
			<g>
				<path class="st33" d="M147.94,28c0.12,0.12-1.89,1.53-3.91,4.77c-2.02,3.16-3.84,8.45-2.79,14.18c1.09,5.72,4.7,10,7.71,12.22
					c3.05,2.29,5.43,2.89,5.36,3.04c-0.01,0.04-0.6-0.08-1.62-0.44c-1.02-0.36-2.46-1.04-4.06-2.16c-3.18-2.16-7.02-6.55-8.15-12.52
					c-1.09-5.98,0.9-11.45,3.09-14.61c1.09-1.62,2.19-2.77,3.01-3.48C147.4,28.29,147.91,27.97,147.94,28z"/>
			</g>
		</g>
		<g>
			<g>
				<path class="st33" d="M314.15,264.34c0,0-0.33,0.03-0.97,0.04c-0.67,0.01-1.61,0.02-2.84,0.04c-2.52,0.02-6.19,0.04-10.92,0.07
					c-9.5,0.03-23.21,0.07-40.14,0.12c-33.92,0.03-80.73,0.07-132.44,0.11c-20.05-0.01-39.37-0.01-57.12-0.02l-0.37,0l0-0.37
					c0.06-37.84,0.1-70.38,0.14-93.5c0.05-11.52,0.08-20.7,0.11-27.01c0.03-3.13,0.05-5.54,0.06-7.21c0.01-0.8,0.02-1.42,0.03-1.86
					c0.01-0.42,0.03-0.63,0.03-0.63s0.02,0.21,0.03,0.63c0.01,0.44,0.02,1.06,0.03,1.86c0.01,1.67,0.03,4.08,0.06,7.21
					c0.02,6.32,0.06,15.49,0.11,27.01c0.03,23.11,0.08,55.66,0.14,93.5l-0.37-0.37c17.75-0.01,37.06-0.01,57.12-0.02
					c51.71,0.04,98.52,0.08,132.44,0.11c16.93,0.05,30.64,0.09,40.14,0.12c4.72,0.03,8.39,0.06,10.92,0.07
					c1.23,0.02,2.17,0.03,2.84,0.04C313.82,264.31,314.15,264.34,314.15,264.34z"/>
			</g>
		</g>
		<g>
			<path class="st34" d="M186.82,194.47v62.39h-24.69v-39l2.89-0.13c0,0-0.98-3.38-2.28-8.77c-0.2-0.82-0.4-1.68-0.61-2.59v-11.9
				H186.82z"/>
		</g>
		<g>
			<rect x="197.36" y="172.15" class="st34" width="24.69" height="84.71"/>
		</g>
		<g>
			<rect x="233.41" y="143.57" class="st34" width="24.69" height="113.29"/>
		</g>
		<g>
			<rect x="269.19" y="121.78" class="st34" width="24.69" height="133.91"/>
		</g>
		<g>
			<g>
				<path class="st33" d="M89.59,206.86c-0.01-0.01,0.1-0.09,0.31-0.24c0.24-0.17,0.56-0.39,0.96-0.66c0.89-0.6,2.15-1.44,3.76-2.52
					c3.33-2.2,8.13-5.36,14.15-9.33c12.15-7.94,29.21-19.09,49-32.02l0.57-0.37l0,0.68c0,3.5,0.01,7.24,0.01,11.05l-0.59-0.31
					c6.24-4.18,12.69-8.51,19.31-12.95c26.6-17.77,50.67-33.85,68.13-45.52c8.71-5.78,15.78-10.46,20.7-13.72
					c2.43-1.59,4.32-2.83,5.65-3.7c0.63-0.4,1.12-0.71,1.48-0.95c0.34-0.21,0.51-0.31,0.52-0.3c0.01,0.01-0.15,0.13-0.48,0.37
					c-0.35,0.25-0.83,0.58-1.44,1.01c-1.31,0.9-3.18,2.18-5.57,3.82c-4.89,3.31-11.9,8.06-20.56,13.92
					c-17.43,11.72-41.46,27.87-68.01,45.71c-6.62,4.43-13.08,8.76-19.32,12.93l-0.59,0.39l0-0.71c0-3.81,0.01-7.55,0.01-11.05
					l0.57,0.31c-19.85,12.84-36.96,23.91-49.15,31.79c-6.07,3.89-10.91,6.99-14.27,9.15c-1.64,1.04-2.92,1.85-3.83,2.42
					c-0.42,0.25-0.74,0.46-1,0.61C89.71,206.8,89.59,206.87,89.59,206.86z"/>
			</g>
		</g>
		<g>
			<g>
				<path class="st33" d="M273.55,106.45c-0.1,0-0.19-1.15-0.26-3.04c-0.07-1.89-0.11-4.52-0.12-7.46l0.38,0.38
					c-0.3,0-0.62,0-0.94,0c-3.16,0-6.03-0.04-8.1-0.11c-2.07-0.07-3.35-0.17-3.35-0.27s1.28-0.2,3.35-0.27
					c2.07-0.07,4.94-0.11,8.1-0.11c0.32,0,0.64,0,0.94,0l0.38,0l0,0.38c-0.01,2.95-0.05,5.57-0.12,7.46
					C273.74,105.29,273.65,106.45,273.55,106.45z"/>
			</g>
		</g>
		<g>
			<g>
				<g>
					<path class="st33" d="M143.08,284.25c0,0.21-7.63,0.38-17.04,0.38c-9.42,0-17.05-0.17-17.05-0.38s7.63-0.38,17.05-0.38
						C135.45,283.87,143.08,284.04,143.08,284.25z"/>
				</g>
			</g>
			<g>
				<g>
					<path class="st33" d="M125.57,295.92c-0.21,0-0.39-1.79-0.39-3.99c0-2.21,0.17-3.99,0.39-3.99c0.21,0,0.38,1.79,0.38,3.99
						C125.96,294.14,125.78,295.92,125.57,295.92z"/>
				</g>
			</g>
			<g>
				<g>
					<path class="st33" d="M167.34,299.92c0,0.21-20.49,0.38-45.76,0.38c-25.28,0-45.76-0.17-45.76-0.38
						c0-0.21,20.48-0.38,45.76-0.38C146.85,299.53,167.34,299.7,167.34,299.92z"/>
				</g>
			</g>
			<g>
				<g>
					<path class="st33" d="M76.44,311.28c-0.21,0-0.38-2.48-0.38-5.53c0-3.05,0.17-5.53,0.38-5.53c0.21,0,0.38,2.47,0.38,5.53
						C76.82,308.8,76.65,311.28,76.44,311.28z"/>
				</g>
			</g>
			<g>
				<g>
					<path class="st33" d="M108.99,310.05c-0.21,0-0.39-2.13-0.39-4.76c0-2.63,0.17-4.76,0.39-4.76c0.21,0,0.38,2.13,0.38,4.76
						C109.37,307.92,109.2,310.05,108.99,310.05z"/>
				</g>
			</g>
			<g>
				<g>
					<path class="st33" d="M142.46,310.66c-0.21,0-0.39-2.34-0.39-5.22c0-2.88,0.17-5.22,0.39-5.22c0.21,0,0.38,2.34,0.38,5.22
						C142.85,308.33,142.68,310.66,142.46,310.66z"/>
				</g>
			</g>
			<g>
				<g>
					<path class="st33" d="M167.95,310.66c-0.21,0-0.38-2.41-0.38-5.37c0-2.97,0.17-5.37,0.38-5.37c0.21,0,0.38,2.41,0.38,5.37
						C168.34,308.26,168.16,310.66,167.95,310.66z"/>
				</g>
			</g>
			<g>
				<g>
					<path class="st33" d="M87.8,314.35c0,0.21-4.95,0.38-11.06,0.38c-6.11,0-11.06-0.17-11.06-0.38c0-0.21,4.95-0.38,11.06-0.38
						C82.85,313.96,87.8,314.14,87.8,314.35z"/>
				</g>
			</g>
			<g>
				<g>
					<path class="st33" d="M116.05,314.35c0,0.21-3.78,0.38-8.44,0.38c-4.66,0-8.45-0.17-8.45-0.38c0-0.21,3.78-0.38,8.45-0.38
						C112.27,313.96,116.05,314.14,116.05,314.35z"/>
				</g>
			</g>
			<g>
				<g>
					<path class="st33" d="M151.98,315.27c0,0.21-4.06,0.38-9.06,0.38c-5,0-9.06-0.17-9.06-0.38s4.06-0.38,9.06-0.38
						C147.93,314.89,151.98,315.06,151.98,315.27z"/>
				</g>
			</g>
			<g>
				<g>
					<path class="st33" d="M181.16,313.74c0,0.21-4.33,0.39-9.67,0.39c-5.34,0-9.67-0.17-9.67-0.39c0-0.21,4.33-0.38,9.67-0.38
						C176.83,313.35,181.16,313.52,181.16,313.74z"/>
				</g>
			</g>
			<g>
				<g>
					<g>
						<path class="st33" d="M76.74,325.1c-0.21,0-0.38-1.44-0.38-3.22c0-1.78,0.17-3.22,0.38-3.22c0.21,0,0.38,1.44,0.38,3.22
							C77.13,323.65,76.96,325.1,76.74,325.1z"/>
					</g>
				</g>
				<g>
					<g>
						<path class="st33" d="M97.76,325.1c0,0.21-8.94,0.38-19.96,0.38c-11.03,0-19.96-0.17-19.96-0.38c0-0.21,8.94-0.38,19.96-0.38
							C88.83,324.71,97.76,324.89,97.76,325.1z"/>
					</g>
				</g>
				<g>
					<g>
						<path class="st33" d="M97.76,334.31c-0.21,0-0.38-2.06-0.38-4.61c0-2.54,0.17-4.61,0.38-4.61c0.21,0,0.38,2.06,0.38,4.61
							C98.15,332.25,97.98,334.31,97.76,334.31z"/>
					</g>
				</g>
				<g>
					<g>
						<path class="st33" d="M57.84,334.93c-0.21,0-0.38-2.2-0.38-4.91c0-2.71,0.17-4.91,0.38-4.91c0.21,0,0.38,2.2,0.38,4.91
							C58.22,332.73,58.05,334.93,57.84,334.93z"/>
					</g>
				</g>
			</g>
			<g>
				<g>
					<g>
						<path class="st33" d="M143.28,325.1c-0.21,0-0.38-1.44-0.38-3.22c0-1.78,0.17-3.22,0.38-3.22c0.21,0,0.38,1.44,0.38,3.22
							C143.67,323.65,143.49,325.1,143.28,325.1z"/>
					</g>
				</g>
				<g>
					<g>
						<path class="st33" d="M191.81,325.1c0,0.21-15.1,0.38-33.72,0.38c-18.63,0-33.72-0.17-33.72-0.38
							c0-0.21,15.09-0.38,33.72-0.38C176.71,324.71,191.81,324.89,191.81,325.1z"/>
					</g>
				</g>
				<g>
					<g>
						<path class="st33" d="M164.3,334.31c-0.21,0-0.38-2.06-0.38-4.61c0-2.54,0.17-4.61,0.38-4.61c0.21,0,0.38,2.06,0.38,4.61
							C164.69,332.25,164.51,334.31,164.3,334.31z"/>
					</g>
				</g>
				<g>
					<g>
						<path class="st33" d="M193.19,334.31c-0.21,0-0.38-2.06-0.38-4.61c0-2.54,0.17-4.61,0.38-4.61s0.38,2.06,0.38,4.61
							C193.57,332.25,193.4,334.31,193.19,334.31z"/>
					</g>
				</g>
				<g>
					<g>
						<path class="st33" d="M124.38,334.93c-0.21,0-0.38-2.2-0.38-4.91c0-2.71,0.17-4.91,0.38-4.91c0.21,0,0.38,2.2,0.38,4.91
							C124.76,332.73,124.59,334.93,124.38,334.93z"/>
					</g>
				</g>
			</g>
			<g>
				<g>
					<path class="st33" d="M65.71,340.59c0,0.21-3.52,0.38-7.87,0.38c-4.35,0-7.87-0.17-7.87-0.38c0-0.21,3.52-0.38,7.87-0.38
						C62.19,340.2,65.71,340.38,65.71,340.59z"/>
				</g>
			</g>
			<g>
				<g>
					<path class="st33" d="M104.81,339.46c0,0.21-3.81,0.38-8.5,0.38c-4.7,0-8.5-0.17-8.5-0.38s3.81-0.38,8.5-0.38
						C101,339.08,104.81,339.25,104.81,339.46z"/>
				</g>
			</g>
			<g>
				<g>
					<path class="st33" d="M133.06,339.46c0,0.21-3.35,0.38-7.49,0.38c-4.14,0-7.49-0.17-7.49-0.38s3.35-0.38,7.49-0.38
						C129.71,339.08,133.06,339.25,133.06,339.46z"/>
				</g>
			</g>
			<g>
				<g>
					<path class="st33" d="M171.14,339.46c0,0.21-3.64,0.38-8.12,0.38c-4.49,0-8.12-0.17-8.12-0.38s3.64-0.38,8.12-0.38
						C167.5,339.08,171.14,339.25,171.14,339.46z"/>
				</g>
			</g>
			<g>
				<g>
					<path class="st33" d="M201.6,338.45c0,0.21-3.69,0.39-8.25,0.39c-4.56,0-8.25-0.17-8.25-0.39c0-0.21,3.69-0.38,8.25-0.38
						C197.91,338.06,201.6,338.23,201.6,338.45z"/>
				</g>
			</g>
		</g>
		<g>
			<g>
				<path class="st33" d="M313.93,344.44H209.66v-64.56h104.26V344.44z M209.74,344.36h104.11v-64.41H209.74V344.36z"/>
			</g>
			<g>
				<g>
					<g>
						<path class="st35" d="M304.43,335.65c0,0.07-19.75,0.13-44.1,0.13c-24.36,0-44.11-0.06-44.11-0.13
							c0-0.07,19.74-0.13,44.11-0.13C284.68,335.52,304.43,335.58,304.43,335.65z"/>
					</g>
				</g>
			</g>
			<g>
				<g>
					<g>
						<path class="st33" d="M304.43,320.72c0,0.07-19.75,0.13-44.1,0.13c-24.36,0-44.11-0.06-44.11-0.13
							c0-0.07,19.74-0.13,44.11-0.13C284.68,320.59,304.43,320.65,304.43,320.72z"/>
					</g>
				</g>
			</g>
			<g>
				<g>
					<g>
						<path class="st33" d="M304.43,305.79c0,0.07-19.75,0.13-44.1,0.13c-24.36,0-44.11-0.06-44.11-0.13
							c0-0.07,19.74-0.13,44.11-0.13C284.68,305.66,304.43,305.72,304.43,305.79z"/>
					</g>
				</g>
			</g>
			<g>
				<g>
					<g>
						<path class="st33" d="M304.43,291.6c0,0.07-19.75,0.13-44.1,0.13c-24.36,0-44.11-0.06-44.11-0.13s19.74-0.13,44.11-0.13
							C284.68,291.47,304.43,291.53,304.43,291.6z"/>
					</g>
				</g>
			</g>
			<g>
				<g>
					<linearGradient id="SVGID_1_" gradientUnits="userSpaceOnUse" x1="219" y1="315.6465" x2="304" y2="315.6465">
						<stop  offset="0" style="stop-color:#90FFDB"/>
						<stop  offset="1" style="stop-color:#19A1CC"/>
					</linearGradient>
					<path class="st0" d="M289.9,325.9c-7.54-3.03-16.21,5.36-23.59,1.93c-4.3-1.99-6.25-7.15-8.36-11.6
						c-2.11-4.45-5.74-9.14-10.4-8.62c-4.71,0.52-8.51,6.3-13.06,4.91c-2.86-0.88-4.3-4.25-5.01-7.32c-0.72-3.07-1.22-6.47-3.4-8.62
						c-2.18-2.15-6.74-1.58-7.08,1.57V336h85C304,336,292.51,326.95,289.9,325.9z"/>
				</g>
			</g>
		</g>
		<g>
			<g>
				<path class="st37" d="M165.02,217.73l-2.89,0.13v-11.49c0.21,0.91,0.41,1.77,0.61,2.59
					C164.04,214.35,165.02,217.73,165.02,217.73z"/>
				<path class="st3" d="M162.13,206.37v11.49l-11.65,0.5v-3.84h-24.69v4.92l-29.04,1.27c-7.19-27.97-1.6-79.07-1.6-79.07l0.28,0.01
					l63.94,3.35C153.06,160.67,158.4,190.17,162.13,206.37z"/>
			</g>
		</g>
		<g>
			<g>
				<g>
					<linearGradient id="SVGID_2_" gradientUnits="userSpaceOnUse" x1="84.5319" y1="176.1432" x2="217.7144" y2="174.6005">
						<stop  offset="0" style="stop-color:#75F2AA"/>
						<stop  offset="1" style="stop-color:#19A192"/>
					</linearGradient>
					<path style="fill:url(#SVGID_2_);" d="M95.42,140c0,0,0.47,55.17,3.27,72l69.19-3.27c0,0-6.08-54.23-3.74-68.72H95.42z"/>
				</g>
			</g>
			<g>
				<g>
					<g>
						<path class="st28" d="M153.72,163.17c0.02,0.25-10.37,1.09-23.19,1.86c-12.82,0.77-23.23,1.19-23.24,0.94
							c-0.02-0.25,10.36-1.09,23.19-1.86C143.3,163.34,153.7,162.92,153.72,163.17z"/>
					</g>
				</g>
			</g>
			<g>
				<g>
					<g>
						<path class="st28" d="M153.74,174.86c0.02,0.25-10.37,1.09-23.19,1.86c-12.82,0.77-23.23,1.19-23.24,0.94
							c-0.02-0.25,10.36-1.09,23.19-1.86C143.31,175.02,153.72,174.6,153.74,174.86z"/>
					</g>
				</g>
			</g>
			<g>
				<g>
					<g>
						<path class="st28" d="M141.98,186.33c0.01,0.13-1.47,0.33-3.85,0.56c-2.39,0.23-5.69,0.48-9.34,0.7
							c-3.65,0.22-6.96,0.37-9.36,0.43c-2.4,0.06-3.89,0.03-3.89-0.09c-0.01-0.13,1.47-0.33,3.85-0.56s5.69-0.48,9.35-0.7
							c3.65-0.22,6.96-0.37,9.36-0.43C140.48,186.18,141.97,186.2,141.98,186.33z"/>
					</g>
				</g>
			</g>
		</g>
		<g>
			<g>
				<path class="st33" d="M185.95,91.86c0,0.21-21.59,0.38-48.22,0.38c-26.64,0-48.23-0.17-48.23-0.38c0-0.21,21.59-0.38,48.23-0.38
					C164.36,91.47,185.95,91.64,185.95,91.86z"/>
			</g>
		</g>
		<g>
			<g>
				<path class="st33" d="M124.92,100.65c0,0.21-8.1,0.39-18.08,0.39c-9.99,0-18.09-0.17-18.09-0.39c0-0.21,8.1-0.38,18.09-0.38
					C116.82,100.26,124.92,100.43,124.92,100.65z"/>
			</g>
		</g>
		<g>
			<g>
				<path class="st33" d="M144.13,100.65c0,0.21-3.12,0.39-6.97,0.39c-3.85,0-6.97-0.17-6.97-0.39c0-0.21,3.12-0.38,6.97-0.38
					C141.01,100.26,144.13,100.43,144.13,100.65z"/>
			</g>
		</g>
		<g>
			<g>
				<path class="st33" d="M354.96,382c-0.03,0-0.07-0.28-0.13-0.82c-0.06-0.66-0.13-1.45-0.21-2.41c-0.16-2.29-0.38-5.39-0.65-9.29
					c-0.5-8.25-1.21-19.89-2.09-34.2c-1.61-29.04-3.81-68.88-6.25-112.88c-2.25-44.03-4.28-83.89-5.76-112.94
					c-0.65-14.33-1.18-25.98-1.55-34.24c-0.14-3.92-0.25-7.02-0.34-9.31c-0.02-0.97-0.03-1.77-0.05-2.42c0-0.55,0.01-0.83,0.04-0.83
					s0.07,0.28,0.13,0.82c0.06,0.66,0.13,1.45,0.21,2.41c0.16,2.29,0.38,5.39,0.65,9.29c0.5,8.25,1.21,19.89,2.09,34.2
					c1.61,29.04,3.81,68.88,6.25,112.9c2.25,44.02,4.28,83.87,5.76,112.91c0.65,14.33,1.18,25.98,1.55,34.24
					c0.14,3.92,0.25,7.02,0.34,9.32c0.02,0.97,0.03,1.77,0.05,2.43C355,381.72,354.99,382,354.96,382z"/>
			</g>
		</g>
		<g>
			<rect x="89.59" y="232.17" class="st34" width="24.69" height="24.69"/>
		</g>
		<polygon class="st37" points="150.48,214.52 150.48,218.36 125.79,219.44 125.79,214.52 		"/>
		<polygon class="st34" points="150.48,218.36 150.48,256.86 125.79,256.86 125.79,219.44 		"/>
	</g>
	<g>
		<g>
			<path class="st33" d="M337.95,29.21c0,0-0.29,0.03-0.86,0.04c-0.6,0.01-1.43,0.02-2.51,0.03c-2.24,0.01-5.49,0.03-9.67,0.05
				c-8.42,0.01-20.56,0.03-35.55,0.04c-30.04-0.04-71.5-0.09-117.28-0.14c-48.13-0.15-91.46-0.29-121.42-0.39l0.06-0.01
				c-6.71,1.63-11.98,5.47-15.44,9.62c-3.5,4.18-5.21,8.68-6,12.38c-0.8,3.73-0.72,6.72-0.57,8.7c0.09,0.99,0.18,1.75,0.27,2.25
				c0.08,0.51,0.1,0.77,0.1,0.77s-0.29-1.01-0.51-3.01c-0.2-1.99-0.33-5,0.44-8.77c0.76-3.74,2.44-8.32,5.96-12.59
				c3.48-4.24,8.8-8.17,15.63-9.87l0.03-0.01l0.03,0c29.96,0.04,73.29,0.09,121.42,0.14c45.79,0.14,87.24,0.28,117.28,0.37
				c14.99,0.08,27.13,0.15,35.55,0.2c4.17,0.04,7.43,0.07,9.67,0.09c1.08,0.02,1.92,0.03,2.51,0.04
				C337.66,29.18,337.95,29.21,337.95,29.21z"/>
		</g>
	</g>
</g>
<line class="st49" x1="338" y1="62" x2="29" y2="62"/>
<line class="st49" x1="29" y1="62" x2="29" y2="367"/>
</svg>
