<?xml version="1.0" encoding="utf-8"?>
<!-- Generator: Adobe Illustrator 24.0.0, SVG Export Plug-In . SVG Version: 6.00 Build 0)  -->
<svg version="1.1" id="Capa_1" xmlns="http://www.w3.org/2000/svg" xmlns:xlink="http://www.w3.org/1999/xlink" x="0px" y="0px"
	 viewBox="0 0 400 400" style="enable-background:new 0 0 400 400;" xml:space="preserve">
<style type="text/css">
	.st0{fill:url(#SVGID_1_);}
	.st1{opacity:0.5;}
	.st2{fill:#609695;}
	.st3{fill:#EBEBEB;}
	.st4{fill:#CACECC;}
	.st5{fill:url(#SVGID_2_);stroke:#0E4F5E;stroke-width:0.65;stroke-miterlimit:10;}
	.st6{fill:none;stroke:#FFFFFF;stroke-miterlimit:10;}
	.st7{fill:url(#SVGID_3_);}
	.st8{opacity:0.5;fill:#126189;}
	.st9{fill:#D3D3D3;}
	.st10{fill:url(#SVGID_4_);}
	.st11{fill:url(#SVGID_5_);}
	.st12{fill:url(#SVGID_6_);}
	.st13{fill:url(#SVGID_7_);}
	.st14{fill:#455A64;}
	.st15{fill:#CBE7FF;}
	.st16{fill:#295DB1;}
	.st17{fill:#56DB92;}
	.st18{fill:#9CD6FB;}
	.st19{opacity:0.8;}
	.st20{fill:url(#SVGID_8_);}
	.st21{fill:url(#SVGID_9_);}
	.st22{fill:url(#SVGID_10_);}
	.st23{fill:url(#SVGID_11_);}
	.st24{fill:#5BDCDA;}
	.st25{fill:#263238;}
	.st26{fill:#83FFCF;}
	.st27{opacity:0.3;}
	.st28{fill:#FFFFFF;}
	.st29{fill:#C4C4C4;}
	.st30{fill:#DDDDDD;}
	.st31{fill:#EDF3F9;}
	.st32{fill:#DDE6ED;}
	.st33{fill:#1A2E35;}
	.st34{fill:#007CFF;}
	.st35{fill:#E0E0E0;}
	.st36{fill:url(#SVGID_12_);}
	.st37{fill:#0A457A;}
	.st38{fill:url(#SVGID_13_);}
	.st39{fill:#266E7A;}
	.st40{fill:url(#SVGID_14_);}
	.st41{fill:url(#SVGID_15_);}
	.st42{fill:url(#SVGID_16_);}
	.st43{fill:url(#SVGID_17_);}
	.st44{fill:url(#SVGID_18_);}
	.st45{fill:url(#SVGID_19_);}
	.st46{fill:url(#SVGID_20_);}
	.st47{fill:url(#SVGID_21_);}
	.st48{opacity:0.2;}
	.st49{fill:none;stroke:#1A2E35;stroke-width:0.25;stroke-miterlimit:10;}
	.st50{opacity:0.5;fill-rule:evenodd;clip-rule:evenodd;fill:url(#SVGID_22_);}
	.st51{fill:#EAEAEA;}
	.st52{fill-rule:evenodd;clip-rule:evenodd;fill:#56D8B3;}
	.st53{fill-rule:evenodd;clip-rule:evenodd;fill:#75F2AA;}
	.st54{opacity:0.5;fill-rule:evenodd;clip-rule:evenodd;fill:url(#SVGID_23_);}
	.st55{fill-rule:evenodd;clip-rule:evenodd;fill:#2B3F35;}
	.st56{fill-rule:evenodd;clip-rule:evenodd;fill:#007CFF;}
	.st57{fill-rule:evenodd;clip-rule:evenodd;fill:url(#SVGID_24_);}
	.st58{fill:none;stroke:#000000;stroke-miterlimit:10;}
	.st59{fill:#EBFBFF;}
	.st60{fill:url(#SVGID_25_);}
	.st61{fill:url(#SVGID_26_);}
	.st62{fill:url(#SVGID_27_);}
	.st63{fill:#EBEDED;}
	.st64{fill:#1D525B;}
	.st65{fill:url(#SVGID_28_);}
	.st66{opacity:0.7;fill:#FFFFFF;}
	.st67{fill:url(#SVGID_29_);stroke:#0E4F5E;stroke-width:0.65;stroke-miterlimit:10;}
	.st68{fill:none;stroke:#000000;stroke-width:0.25;stroke-miterlimit:10;}
	.st69{fill:#0E4F5E;}
	.st70{fill:url(#SVGID_30_);}
	.st71{fill:#CEEFE7;}
	.st72{fill:url(#SVGID_31_);stroke:#0E4F5E;stroke-width:0.65;stroke-miterlimit:10;}
	.st73{fill:#1F3C88;}
	.st74{fill:#5F81CE;}
	.st75{fill:#D3DFFF;}
	.st76{fill:#FAFCFF;}
	.st77{fill:#FFD91D;}
	.st78{opacity:0.8;fill:#D4F1F9;}
	.st79{fill:none;stroke:#FFFFFF;stroke-width:0.75;stroke-miterlimit:10;}
	.st80{fill:#42CC70;}
	.st81{fill:#5BF378;}
	.st82{fill:url(#SVGID_32_);}
	.st83{opacity:0.2;fill:#2B6ADB;}
	.st84{fill:url(#SVGID_33_);}
	.st85{fill:#2BBE9A;stroke:#000000;stroke-width:0.25;stroke-miterlimit:10;}
</style>
<g>
	<g>
		<g>
			
				<linearGradient id="SVGID_1_" gradientUnits="userSpaceOnUse" x1="43.0242" y1="-564.8219" x2="184.9465" y2="-564.8219" gradientTransform="matrix(0.9474 -0.32 0.32 0.9474 178.064 670.3391)">
				<stop  offset="0" style="stop-color:#75F2AA"/>
				<stop  offset="1" style="stop-color:#19A192"/>
			</linearGradient>
			<path class="st0" d="M175.54,85c0,0-27.7,13.84-57.55-8.52C99.51,62.63,60.07,41,47.53,53.43l-16.11,48.4
				c0,0,30.13,6.09,54.23,25.95c23.69,19.53,71.68,19.43,71.68,19.43L175.54,85z"/>
		</g>
		<g>
			<g class="st1">
				<path class="st2" d="M92.53,118.65c-12.49-7.62-13.01-23.57-5.61-31.96c7.4-8.39,24.03-5.8,32.41,1.59
					c8.39,7.41,9.18,20.2,1.78,28.59C113.72,125.26,102.08,124.48,92.53,118.65z"/>
			</g>
			<g>
				<g>
					<g>
						<path class="st3" d="M99.49,113.07l-1.68,3.14l-2.81-1.5l1.63-3.06c-2.69-1.65-4.89-3.94-5.79-5.97l3.37-2.6
							c0.85,1.79,2.47,3.62,4.38,4.9l2.5-4.69c-2.71-2.42-5.64-5.31-3.5-9.33c1.59-2.98,5.11-4.38,9.81-2.52l1.66-3.12l2.81,1.5
							l-1.63,3.06c2.02,1.29,3.77,2.94,4.79,4.75l-3.24,2.71c-1-1.58-2.2-2.83-3.52-3.75l-2.54,4.77c2.73,2.39,5.6,5.25,3.49,9.21
							C107.67,113.5,104.19,114.89,99.49,113.07z M103.3,99.17l2.12-3.99c-1.67-0.46-2.69,0.04-3.18,0.97
							C101.72,97.13,102.28,98.12,103.3,99.17z M104.52,108.51c0.52-0.98-0.01-1.95-0.99-3.02l-2.07,3.87
							C103.04,109.81,104.04,109.4,104.52,108.51z"/>
					</g>
				</g>
			</g>
		</g>
		<g>
			<path class="st2" d="M37.62,98.86l14.82-43.98l0.47-0.08c21.88-3.98,49.15,15.5,67.2,28.4c3.11,2.22,6.05,4.32,8.61,6.05
				c17.2,11.62,38.03,3.79,39.22,2.3l1.48,0.64l-15.21,47.71l-0.51,0.07c-31.05,4.11-58.87-9.68-73.26-22.74
				C67,105.03,38.8,99.1,38.52,99.04L37.62,98.86z M53.67,56.31L39.74,97.64c5.04,1.13,29.23,6.98,41.78,18.37
				c14.05,12.75,41.15,26.21,71.45,22.4l14.21-44.55c-1.65,0.76-3.69,1.34-4.28,1.51c-4.66,1.3-20.94,4.77-35.09-4.78
				c-2.58-1.75-5.53-3.85-8.65-6.08C101.47,71.87,74.8,52.82,53.67,56.31z"/>
		</g>
	</g>
</g>
<g>
	<g>
		<g>
			<g>
				<g>
					<g>
						<rect x="32.9" y="236.26" class="st26" width="149.41" height="27.13"/>
					</g>
					<g>
						<g>
							<path class="st25" d="M47.54,263.58c-0.34,0-0.62-6.03-0.62-13.46c0-7.43,0.28-13.46,0.62-13.46c0.34,0,0.62,6.02,0.62,13.46
								C48.16,257.55,47.88,263.58,47.54,263.58z"/>
						</g>
					</g>
					<g>
						<g>
							<path class="st25" d="M39.37,263.58c-0.34,0-0.62-6.03-0.62-13.46c0-7.43,0.28-13.46,0.62-13.46c0.34,0,0.62,6.02,0.62,13.46
								C39.99,257.55,39.71,263.58,39.37,263.58z"/>
						</g>
					</g>
					<g>
						<g>
							<path class="st25" d="M65.49,263.58c-0.34,0-0.62-6.03-0.62-13.46c0-7.43,0.28-13.46,0.62-13.46s0.62,6.02,0.62,13.46
								C66.11,257.55,65.84,263.58,65.49,263.58z"/>
						</g>
					</g>
					<g>
						<g>
							<path class="st25" d="M57.32,263.58c-0.34,0-0.62-6.03-0.62-13.46c0-7.43,0.28-13.46,0.62-13.46c0.34,0,0.62,6.02,0.62,13.46
								C57.94,257.55,57.66,263.58,57.32,263.58z"/>
						</g>
					</g>
					<g>
						<g>
							<path class="st25" d="M83.44,263.58c-0.34,0-0.62-6.03-0.62-13.46c0-7.43,0.28-13.46,0.62-13.46c0.34,0,0.62,6.02,0.62,13.46
								C84.07,257.55,83.79,263.58,83.44,263.58z"/>
						</g>
					</g>
					<g>
						<g>
							<path class="st25" d="M75.27,263.58c-0.34,0-0.62-6.03-0.62-13.46c0-7.43,0.28-13.46,0.62-13.46c0.34,0,0.62,6.02,0.62,13.46
								C75.89,257.55,75.62,263.58,75.27,263.58z"/>
						</g>
					</g>
					<g>
						<g>
							<path class="st25" d="M101.4,263.58c-0.34,0-0.62-6.03-0.62-13.46c0-7.43,0.28-13.46,0.62-13.46c0.34,0,0.62,6.02,0.62,13.46
								C102.02,257.55,101.74,263.58,101.4,263.58z"/>
						</g>
					</g>
					<g>
						<g>
							<path class="st25" d="M93.22,263.58c-0.34,0-0.62-6.03-0.62-13.46c0-7.43,0.28-13.46,0.62-13.46c0.34,0,0.62,6.02,0.62,13.46
								C93.85,257.55,93.57,263.58,93.22,263.58z"/>
						</g>
					</g>
					<g>
						<g>
							<path class="st25" d="M119.35,263.58c-0.34,0-0.62-6.03-0.62-13.46c0-7.43,0.28-13.46,0.62-13.46
								c0.34,0,0.62,6.02,0.62,13.46C119.97,257.55,119.69,263.58,119.35,263.58z"/>
						</g>
					</g>
					<g>
						<g>
							<path class="st25" d="M111.18,263.58c-0.34,0-0.62-6.03-0.62-13.46c0-7.43,0.28-13.46,0.62-13.46
								c0.34,0,0.62,6.02,0.62,13.46C111.8,257.55,111.52,263.58,111.18,263.58z"/>
						</g>
					</g>
					<g>
						<g>
							<path class="st25" d="M137.3,263.58c-0.34,0-0.62-6.03-0.62-13.46c0-7.43,0.28-13.46,0.62-13.46c0.34,0,0.62,6.02,0.62,13.46
								C137.92,257.55,137.65,263.58,137.3,263.58z"/>
						</g>
					</g>
					<g>
						<g>
							<path class="st25" d="M129.13,263.58c-0.34,0-0.62-6.03-0.62-13.46c0-7.43,0.28-13.46,0.62-13.46
								c0.34,0,0.62,6.02,0.62,13.46C129.75,257.55,129.47,263.58,129.13,263.58z"/>
						</g>
					</g>
					<g>
						<g>
							<path class="st25" d="M155.25,263.58c-0.34,0-0.62-6.03-0.62-13.46c0-7.43,0.28-13.46,0.62-13.46
								c0.34,0,0.62,6.02,0.62,13.46C155.88,257.55,155.6,263.58,155.25,263.58z"/>
						</g>
					</g>
					<g>
						<g>
							<path class="st25" d="M147.08,263.58c-0.34,0-0.62-6.03-0.62-13.46c0-7.43,0.28-13.46,0.62-13.46
								c0.34,0,0.62,6.02,0.62,13.46C147.7,257.55,147.43,263.58,147.08,263.58z"/>
						</g>
					</g>
					<g>
						<g>
							<path class="st25" d="M173.21,263.58c-0.34,0-0.62-6.03-0.62-13.46c0-7.43,0.28-13.46,0.62-13.46
								c0.34,0,0.62,6.02,0.62,13.46C173.83,257.55,173.55,263.58,173.21,263.58z"/>
						</g>
					</g>
					<g>
						<g>
							<path class="st25" d="M165.04,263.58c-0.34,0-0.62-6.03-0.62-13.46c0-7.43,0.28-13.46,0.62-13.46
								c0.34,0,0.62,6.02,0.62,13.46C165.66,257.55,165.38,263.58,165.04,263.58z"/>
						</g>
					</g>
				</g>
			</g>
			<g>
				<g>
					<g>
						<rect x="23.12" y="263.82" class="st24" width="149.41" height="27.13"/>
					</g>
					<g>
						<g>
							<path class="st25" d="M37.76,291.14c-0.34,0-0.62-6.03-0.62-13.46c0-7.43,0.28-13.46,0.62-13.46s0.62,6.02,0.62,13.46
								C38.38,285.11,38.1,291.14,37.76,291.14z"/>
						</g>
					</g>
					<g>
						<g>
							<path class="st25" d="M29.59,291.14c-0.34,0-0.62-6.03-0.62-13.46c0-7.43,0.28-13.46,0.62-13.46s0.62,6.02,0.62,13.46
								C30.21,285.11,29.93,291.14,29.59,291.14z"/>
						</g>
					</g>
					<g>
						<g>
							<path class="st25" d="M55.71,291.14c-0.34,0-0.62-6.03-0.62-13.46c0-7.43,0.28-13.46,0.62-13.46c0.34,0,0.62,6.02,0.62,13.46
								C56.33,285.11,56.06,291.14,55.71,291.14z"/>
						</g>
					</g>
					<g>
						<g>
							<path class="st25" d="M47.54,291.14c-0.34,0-0.62-6.03-0.62-13.46c0-7.43,0.28-13.46,0.62-13.46c0.34,0,0.62,6.02,0.62,13.46
								C48.16,285.11,47.88,291.14,47.54,291.14z"/>
						</g>
					</g>
					<g>
						<g>
							<path class="st25" d="M73.66,291.14c-0.34,0-0.62-6.03-0.62-13.46c0-7.43,0.28-13.46,0.62-13.46s0.62,6.02,0.62,13.46
								C74.29,285.11,74.01,291.14,73.66,291.14z"/>
						</g>
					</g>
					<g>
						<g>
							<path class="st25" d="M65.49,291.14c-0.34,0-0.62-6.03-0.62-13.46c0-7.43,0.28-13.46,0.62-13.46s0.62,6.02,0.62,13.46
								C66.11,285.11,65.84,291.14,65.49,291.14z"/>
						</g>
					</g>
					<g>
						<g>
							<path class="st25" d="M91.62,291.14c-0.34,0-0.62-6.03-0.62-13.46c0-7.43,0.28-13.46,0.62-13.46c0.34,0,0.62,6.02,0.62,13.46
								C92.24,285.11,91.96,291.14,91.62,291.14z"/>
						</g>
					</g>
					<g>
						<g>
							<path class="st25" d="M83.44,291.14c-0.34,0-0.62-6.03-0.62-13.46c0-7.43,0.28-13.46,0.62-13.46c0.34,0,0.62,6.02,0.62,13.46
								C84.07,285.11,83.79,291.14,83.44,291.14z"/>
						</g>
					</g>
					<g>
						<g>
							<path class="st25" d="M109.57,291.14c-0.34,0-0.62-6.03-0.62-13.46c0-7.43,0.28-13.46,0.62-13.46
								c0.34,0,0.62,6.02,0.62,13.46C110.19,285.11,109.91,291.14,109.57,291.14z"/>
						</g>
					</g>
					<g>
						<g>
							<path class="st25" d="M101.4,291.14c-0.34,0-0.62-6.03-0.62-13.46c0-7.43,0.28-13.46,0.62-13.46c0.34,0,0.62,6.02,0.62,13.46
								C102.02,285.11,101.74,291.14,101.4,291.14z"/>
						</g>
					</g>
					<g>
						<g>
							<path class="st25" d="M127.52,291.14c-0.34,0-0.62-6.03-0.62-13.46c0-7.43,0.28-13.46,0.62-13.46
								c0.34,0,0.62,6.02,0.62,13.46C128.14,285.11,127.87,291.14,127.52,291.14z"/>
						</g>
					</g>
					<g>
						<g>
							<path class="st25" d="M119.35,291.14c-0.34,0-0.62-6.03-0.62-13.46c0-7.43,0.28-13.46,0.62-13.46
								c0.34,0,0.62,6.02,0.62,13.46C119.97,285.11,119.69,291.14,119.35,291.14z"/>
						</g>
					</g>
					<g>
						<g>
							<path class="st25" d="M145.47,291.14c-0.34,0-0.62-6.03-0.62-13.46c0-7.43,0.28-13.46,0.62-13.46s0.62,6.02,0.62,13.46
								C146.1,285.11,145.82,291.14,145.47,291.14z"/>
						</g>
					</g>
					<g>
						<g>
							<path class="st25" d="M137.3,291.14c-0.34,0-0.62-6.03-0.62-13.46c0-7.43,0.28-13.46,0.62-13.46c0.34,0,0.62,6.02,0.62,13.46
								C137.92,285.11,137.65,291.14,137.3,291.14z"/>
						</g>
					</g>
					<g>
						<g>
							<path class="st25" d="M163.43,291.14c-0.34,0-0.62-6.03-0.62-13.46c0-7.43,0.28-13.46,0.62-13.46
								c0.34,0,0.62,6.02,0.62,13.46C164.05,285.11,163.77,291.14,163.43,291.14z"/>
						</g>
					</g>
					<g>
						<g>
							<path class="st25" d="M155.25,291.14c-0.34,0-0.62-6.03-0.62-13.46c0-7.43,0.28-13.46,0.62-13.46
								c0.34,0,0.62,6.02,0.62,13.46C155.88,285.11,155.6,291.14,155.25,291.14z"/>
						</g>
					</g>
				</g>
				<g>
					<g>
						<path class="st25" d="M172.53,263.82c0,0.34-33.6,0.62-75.05,0.62c-41.46,0-75.06-0.28-75.06-0.62
							c0-0.34,33.6-0.62,75.06-0.62C138.92,263.2,172.53,263.48,172.53,263.82z"/>
					</g>
				</g>
			</g>
			<g>
				<g>
					<g>
						<rect x="35.33" y="291.14" class="st24" width="149.41" height="27.13"/>
					</g>
					<g>
						<g>
							<path class="st25" d="M49.97,318.46c-0.34,0-0.62-6.03-0.62-13.46c0-7.43,0.28-13.46,0.62-13.46c0.34,0,0.62,6.02,0.62,13.46
								C50.59,312.43,50.31,318.46,49.97,318.46z"/>
						</g>
					</g>
					<g>
						<g>
							<path class="st25" d="M41.8,318.46c-0.34,0-0.62-6.03-0.62-13.46c0-7.43,0.28-13.46,0.62-13.46s0.62,6.02,0.62,13.46
								C42.42,312.43,42.14,318.46,41.8,318.46z"/>
						</g>
					</g>
					<g>
						<g>
							<path class="st25" d="M67.92,318.46c-0.34,0-0.62-6.03-0.62-13.46c0-7.43,0.28-13.46,0.62-13.46s0.62,6.02,0.62,13.46
								C68.54,312.43,68.27,318.46,67.92,318.46z"/>
						</g>
					</g>
					<g>
						<g>
							<path class="st25" d="M59.75,318.46c-0.34,0-0.62-6.03-0.62-13.46c0-7.43,0.28-13.46,0.62-13.46s0.62,6.02,0.62,13.46
								C60.37,312.43,60.09,318.46,59.75,318.46z"/>
						</g>
					</g>
					<g>
						<g>
							<path class="st25" d="M85.87,318.46c-0.34,0-0.62-6.03-0.62-13.46c0-7.43,0.28-13.46,0.62-13.46c0.34,0,0.62,6.02,0.62,13.46
								C86.5,312.43,86.22,318.46,85.87,318.46z"/>
						</g>
					</g>
					<g>
						<g>
							<path class="st25" d="M77.7,318.46c-0.34,0-0.62-6.03-0.62-13.46c0-7.43,0.28-13.46,0.62-13.46c0.34,0,0.62,6.02,0.62,13.46
								C78.32,312.43,78.05,318.46,77.7,318.46z"/>
						</g>
					</g>
					<g>
						<g>
							<path class="st25" d="M103.83,318.46c-0.34,0-0.62-6.03-0.62-13.46c0-7.43,0.28-13.46,0.62-13.46
								c0.34,0,0.62,6.02,0.62,13.46C104.45,312.43,104.17,318.46,103.83,318.46z"/>
						</g>
					</g>
					<g>
						<g>
							<path class="st25" d="M95.65,318.46c-0.34,0-0.62-6.03-0.62-13.46c0-7.43,0.28-13.46,0.62-13.46s0.62,6.02,0.62,13.46
								C96.28,312.43,96,318.46,95.65,318.46z"/>
						</g>
					</g>
					<g>
						<g>
							<path class="st25" d="M121.78,318.46c-0.34,0-0.62-6.03-0.62-13.46c0-7.43,0.28-13.46,0.62-13.46
								c0.34,0,0.62,6.02,0.62,13.46C122.4,312.43,122.12,318.46,121.78,318.46z"/>
						</g>
					</g>
					<g>
						<g>
							<path class="st25" d="M113.61,318.46c-0.34,0-0.62-6.03-0.62-13.46c0-7.43,0.28-13.46,0.62-13.46
								c0.34,0,0.62,6.02,0.62,13.46C114.23,312.43,113.95,318.46,113.61,318.46z"/>
						</g>
					</g>
					<g>
						<g>
							<path class="st25" d="M139.73,318.46c-0.34,0-0.62-6.03-0.62-13.46c0-7.43,0.28-13.46,0.62-13.46
								c0.34,0,0.62,6.02,0.62,13.46C140.35,312.43,140.08,318.46,139.73,318.46z"/>
						</g>
					</g>
					<g>
						<g>
							<path class="st25" d="M131.56,318.46c-0.34,0-0.62-6.03-0.62-13.46c0-7.43,0.28-13.46,0.62-13.46
								c0.34,0,0.62,6.02,0.62,13.46C132.18,312.43,131.9,318.46,131.56,318.46z"/>
						</g>
					</g>
					<g>
						<g>
							<path class="st25" d="M157.68,318.46c-0.34,0-0.62-6.03-0.62-13.46c0-7.43,0.28-13.46,0.62-13.46
								c0.34,0,0.62,6.02,0.62,13.46C158.31,312.43,158.03,318.46,157.68,318.46z"/>
						</g>
					</g>
					<g>
						<g>
							<path class="st25" d="M149.51,318.46c-0.34,0-0.62-6.03-0.62-13.46c0-7.43,0.28-13.46,0.62-13.46
								c0.34,0,0.62,6.02,0.62,13.46C150.13,312.43,149.86,318.46,149.51,318.46z"/>
						</g>
					</g>
					<g>
						<g>
							<path class="st25" d="M175.64,318.46c-0.34,0-0.62-6.03-0.62-13.46c0-7.43,0.28-13.46,0.62-13.46
								c0.34,0,0.62,6.02,0.62,13.46C176.26,312.43,175.98,318.46,175.64,318.46z"/>
						</g>
					</g>
					<g>
						<g>
							<path class="st25" d="M167.46,318.46c-0.34,0-0.62-6.03-0.62-13.46c0-7.43,0.28-13.46,0.62-13.46s0.62,6.02,0.62,13.46
								C168.09,312.43,167.81,318.46,167.46,318.46z"/>
						</g>
					</g>
				</g>
				<g>
					<g>
						<path class="st25" d="M184.74,291.14c0,0.34-33.68,0.62-75.23,0.62c-41.56,0-75.24-0.28-75.24-0.62
							c0-0.34,33.68-0.62,75.24-0.62C151.05,290.52,184.74,290.8,184.74,291.14z"/>
					</g>
				</g>
			</g>
			<g>
				<g>
					<g>
						<rect x="23.62" y="318.06" class="st26" width="149.41" height="27.13"/>
					</g>
					<g>
						<g>
							<path class="st25" d="M38.26,345.38c-0.34,0-0.62-6.03-0.62-13.46c0-7.43,0.28-13.46,0.62-13.46c0.34,0,0.62,6.02,0.62,13.46
								C38.88,339.35,38.6,345.38,38.26,345.38z"/>
						</g>
					</g>
					<g>
						<g>
							<path class="st25" d="M30.08,345.38c-0.34,0-0.62-6.03-0.62-13.46c0-7.43,0.28-13.46,0.62-13.46s0.62,6.02,0.62,13.46
								C30.71,339.35,30.43,345.38,30.08,345.38z"/>
						</g>
					</g>
					<g>
						<g>
							<path class="st25" d="M56.21,345.38c-0.34,0-0.62-6.03-0.62-13.46c0-7.43,0.28-13.46,0.62-13.46c0.34,0,0.62,6.02,0.62,13.46
								C56.83,339.35,56.55,345.38,56.21,345.38z"/>
						</g>
					</g>
					<g>
						<g>
							<path class="st25" d="M48.04,345.38c-0.34,0-0.62-6.03-0.62-13.46c0-7.43,0.28-13.46,0.62-13.46c0.34,0,0.62,6.02,0.62,13.46
								C48.66,339.35,48.38,345.38,48.04,345.38z"/>
						</g>
					</g>
					<g>
						<g>
							<path class="st25" d="M74.16,345.38c-0.34,0-0.62-6.03-0.62-13.46c0-7.43,0.28-13.46,0.62-13.46c0.34,0,0.62,6.02,0.62,13.46
								C74.78,339.35,74.51,345.38,74.16,345.38z"/>
						</g>
					</g>
					<g>
						<g>
							<path class="st25" d="M65.99,345.38c-0.34,0-0.62-6.03-0.62-13.46c0-7.43,0.28-13.46,0.62-13.46s0.62,6.02,0.62,13.46
								C66.61,339.35,66.33,345.38,65.99,345.38z"/>
						</g>
					</g>
					<g>
						<g>
							<path class="st25" d="M92.11,345.38c-0.34,0-0.62-6.03-0.62-13.46c0-7.43,0.28-13.46,0.62-13.46c0.34,0,0.62,6.02,0.62,13.46
								C92.74,339.35,92.46,345.38,92.11,345.38z"/>
						</g>
					</g>
					<g>
						<g>
							<path class="st25" d="M83.94,345.38c-0.34,0-0.62-6.03-0.62-13.46c0-7.43,0.28-13.46,0.62-13.46c0.34,0,0.62,6.02,0.62,13.46
								C84.56,339.35,84.29,345.38,83.94,345.38z"/>
						</g>
					</g>
					<g>
						<g>
							<path class="st25" d="M110.07,345.38c-0.34,0-0.62-6.03-0.62-13.46c0-7.43,0.28-13.46,0.62-13.46s0.62,6.02,0.62,13.46
								C110.69,339.35,110.41,345.38,110.07,345.38z"/>
						</g>
					</g>
					<g>
						<g>
							<path class="st25" d="M101.89,345.38c-0.34,0-0.62-6.03-0.62-13.46c0-7.43,0.28-13.46,0.62-13.46
								c0.34,0,0.62,6.02,0.62,13.46C102.52,339.35,102.24,345.38,101.89,345.38z"/>
						</g>
					</g>
					<g>
						<g>
							<path class="st25" d="M128.02,345.38c-0.34,0-0.62-6.03-0.62-13.46c0-7.43,0.28-13.46,0.62-13.46
								c0.34,0,0.62,6.02,0.62,13.46C128.64,339.35,128.36,345.38,128.02,345.38z"/>
						</g>
					</g>
					<g>
						<g>
							<path class="st25" d="M119.85,345.38c-0.34,0-0.62-6.03-0.62-13.46c0-7.43,0.28-13.46,0.62-13.46
								c0.34,0,0.62,6.02,0.62,13.46C120.47,339.35,120.19,345.38,119.85,345.38z"/>
						</g>
					</g>
					<g>
						<g>
							<path class="st25" d="M145.97,345.38c-0.34,0-0.62-6.03-0.62-13.46c0-7.43,0.28-13.46,0.62-13.46
								c0.34,0,0.62,6.02,0.62,13.46C146.59,339.35,146.32,345.38,145.97,345.38z"/>
						</g>
					</g>
					<g>
						<g>
							<path class="st25" d="M137.8,345.38c-0.34,0-0.62-6.03-0.62-13.46c0-7.43,0.28-13.46,0.62-13.46c0.34,0,0.62,6.02,0.62,13.46
								C138.42,339.35,138.14,345.38,137.8,345.38z"/>
						</g>
					</g>
					<g>
						<g>
							<path class="st25" d="M163.92,345.38c-0.34,0-0.62-6.03-0.62-13.46c0-7.43,0.28-13.46,0.62-13.46s0.62,6.02,0.62,13.46
								C164.55,339.35,164.27,345.38,163.92,345.38z"/>
						</g>
					</g>
					<g>
						<g>
							<path class="st25" d="M155.75,345.38c-0.34,0-0.62-6.03-0.62-13.46c0-7.43,0.28-13.46,0.62-13.46
								c0.34,0,0.62,6.02,0.62,13.46C156.37,339.35,156.1,345.38,155.75,345.38z"/>
						</g>
					</g>
				</g>
				<g>
					<g>
						<path class="st25" d="M173.03,318.06c0,0.34-33.6,0.62-75.05,0.62c-41.46,0-75.06-0.28-75.06-0.62
							c0-0.34,33.6-0.62,75.06-0.62C139.42,317.43,173.03,317.71,173.03,318.06z"/>
					</g>
				</g>
			</g>
			<g>
				<g>
					<g>
						<rect x="38.59" y="345.58" class="st24" width="149.41" height="27.13"/>
					</g>
					<g>
						<g>
							<path class="st25" d="M53.23,372.9c-0.34,0-0.62-6.03-0.62-13.46c0-7.43,0.28-13.46,0.62-13.46c0.34,0,0.62,6.02,0.62,13.46
								C53.85,366.87,53.57,372.9,53.23,372.9z"/>
						</g>
					</g>
					<g>
						<g>
							<path class="st25" d="M45.06,372.9c-0.34,0-0.62-6.03-0.62-13.46c0-7.43,0.28-13.46,0.62-13.46c0.34,0,0.62,6.02,0.62,13.46
								C45.68,366.87,45.4,372.9,45.06,372.9z"/>
						</g>
					</g>
					<g>
						<g>
							<path class="st25" d="M71.18,372.9c-0.34,0-0.62-6.03-0.62-13.46c0-7.43,0.28-13.46,0.62-13.46c0.34,0,0.62,6.02,0.62,13.46
								C71.8,366.87,71.53,372.9,71.18,372.9z"/>
						</g>
					</g>
					<g>
						<g>
							<path class="st25" d="M63.01,372.9c-0.34,0-0.62-6.03-0.62-13.46c0-7.43,0.28-13.46,0.62-13.46c0.34,0,0.62,6.02,0.62,13.46
								C63.63,366.87,63.35,372.9,63.01,372.9z"/>
						</g>
					</g>
					<g>
						<g>
							<path class="st25" d="M89.14,372.9c-0.34,0-0.62-6.03-0.62-13.46c0-7.43,0.28-13.46,0.62-13.46c0.34,0,0.62,6.02,0.62,13.46
								C89.76,366.87,89.48,372.9,89.14,372.9z"/>
						</g>
					</g>
					<g>
						<g>
							<path class="st25" d="M80.96,372.9c-0.34,0-0.62-6.03-0.62-13.46c0-7.43,0.28-13.46,0.62-13.46c0.34,0,0.62,6.02,0.62,13.46
								C81.59,366.87,81.31,372.9,80.96,372.9z"/>
						</g>
					</g>
					<g>
						<g>
							<path class="st25" d="M107.09,372.9c-0.34,0-0.62-6.03-0.62-13.46c0-7.43,0.28-13.46,0.62-13.46c0.34,0,0.62,6.02,0.62,13.46
								C107.71,366.87,107.43,372.9,107.09,372.9z"/>
						</g>
					</g>
					<g>
						<g>
							<path class="st25" d="M98.92,372.9c-0.34,0-0.62-6.03-0.62-13.46c0-7.43,0.28-13.46,0.62-13.46c0.34,0,0.62,6.02,0.62,13.46
								C99.54,366.87,99.26,372.9,98.92,372.9z"/>
						</g>
					</g>
					<g>
						<g>
							<path class="st25" d="M125.04,372.9c-0.34,0-0.62-6.03-0.62-13.46c0-7.43,0.28-13.46,0.62-13.46c0.34,0,0.62,6.02,0.62,13.46
								C125.66,366.87,125.38,372.9,125.04,372.9z"/>
						</g>
					</g>
					<g>
						<g>
							<path class="st25" d="M116.87,372.9c-0.34,0-0.62-6.03-0.62-13.46c0-7.43,0.28-13.46,0.62-13.46c0.34,0,0.62,6.02,0.62,13.46
								C117.49,366.87,117.21,372.9,116.87,372.9z"/>
						</g>
					</g>
					<g>
						<g>
							<path class="st25" d="M142.99,372.9c-0.34,0-0.62-6.03-0.62-13.46c0-7.43,0.28-13.46,0.62-13.46c0.34,0,0.62,6.02,0.62,13.46
								C143.62,366.87,143.34,372.9,142.99,372.9z"/>
						</g>
					</g>
					<g>
						<g>
							<path class="st25" d="M134.82,372.9c-0.34,0-0.62-6.03-0.62-13.46c0-7.43,0.28-13.46,0.62-13.46s0.62,6.02,0.62,13.46
								C135.44,366.87,135.16,372.9,134.82,372.9z"/>
						</g>
					</g>
					<g>
						<g>
							<path class="st25" d="M160.95,372.9c-0.34,0-0.62-6.03-0.62-13.46c0-7.43,0.28-13.46,0.62-13.46c0.34,0,0.62,6.02,0.62,13.46
								C161.57,366.87,161.29,372.9,160.95,372.9z"/>
						</g>
					</g>
					<g>
						<g>
							<path class="st25" d="M152.77,372.9c-0.34,0-0.62-6.03-0.62-13.46c0-7.43,0.28-13.46,0.62-13.46c0.34,0,0.62,6.02,0.62,13.46
								C153.4,366.87,153.12,372.9,152.77,372.9z"/>
						</g>
					</g>
					<g>
						<g>
							<path class="st25" d="M178.9,372.9c-0.34,0-0.62-6.03-0.62-13.46c0-7.43,0.28-13.46,0.62-13.46c0.34,0,0.62,6.02,0.62,13.46
								C179.52,366.87,179.24,372.9,178.9,372.9z"/>
						</g>
					</g>
					<g>
						<g>
							<path class="st25" d="M170.73,372.9c-0.34,0-0.62-6.03-0.62-13.46c0-7.43,0.28-13.46,0.62-13.46c0.34,0,0.62,6.02,0.62,13.46
								C171.35,366.87,171.07,372.9,170.73,372.9z"/>
						</g>
					</g>
				</g>
				<g>
					<g>
						<path class="st25" d="M188,345.58c0,0.34-33.6,0.62-75.05,0.62c-41.46,0-75.06-0.28-75.06-0.62c0-0.34,33.6-0.62,75.06-0.62
							C154.4,344.96,188,345.23,188,345.58z"/>
					</g>
				</g>
			</g>
		</g>
		<g class="st27">
			<g>
				<path d="M35.33,291.14c22.31,5.48,46.09,6.54,69.02,5.02c22.93-1.52,46.08-4.9,69.06-4.62L35.33,291.14z"/>
			</g>
		</g>
		<g class="st27">
			<g>
				<path d="M36.68,264.13c22.31,5.48,46.09,6.54,69.02,5.02c22.93-1.52,46.08-4.9,69.06-4.62L36.68,264.13z"/>
			</g>
		</g>
		<g class="st27">
			<g>
				<path d="M43.91,318.33c22.31,5.48,46.09,6.54,69.02,5.02c22.93-1.52,46.08-4.9,69.06-4.62L43.91,318.33z"/>
			</g>
		</g>
		<g class="st27">
			<g>
				<path d="M38.05,345.42c22.31,5.48,46.09,6.54,69.02,5.02c22.93-1.52,46.08-4.9,69.06-4.62L38.05,345.42z"/>
			</g>
		</g>
	</g>
	<g>
		<g>
			<path class="st28" d="M35.64,254.82c-0.34,0-0.62-3.33-0.62-7.43c0-4.1,0.28-7.43,0.62-7.43c0.34,0,0.62,3.33,0.62,7.43
				C36.26,251.49,35.98,254.82,35.64,254.82z"/>
		</g>
	</g>
	<g>
		<g>
			<path class="st28" d="M26.22,283.81c-0.34,0-0.62-3.57-0.62-7.97c0-4.4,0.28-7.97,0.62-7.97c0.34,0,0.62,3.57,0.62,7.97
				C26.84,280.24,26.56,283.81,26.22,283.81z"/>
		</g>
	</g>
	<g>
		<g>
			<path class="st28" d="M39.62,311.71c-0.34,0-0.62-3.16-0.62-7.07c0-3.9,0.28-7.07,0.62-7.07c0.34,0,0.62,3.16,0.62,7.07
				C40.25,308.55,39.97,311.71,39.62,311.71z"/>
		</g>
	</g>
	<g>
		<g>
			<path class="st28" d="M25.85,337.44c-0.34,0-0.62-2.84-0.62-6.34c0-3.5,0.28-6.34,0.62-6.34c0.34,0,0.62,2.84,0.62,6.34
				C26.48,334.6,26.2,337.44,25.85,337.44z"/>
		</g>
	</g>
	<g>
		<g>
			<path class="st28" d="M80.57,266.05c0,0.34-11.03,0.62-24.64,0.62c-13.61,0-24.64-0.28-24.64-0.62c0-0.34,11.03-0.62,24.64-0.62
				C69.54,265.43,80.57,265.71,80.57,266.05z"/>
		</g>
	</g>
	<g>
		<g>
			<path class="st28" d="M96.52,239.96c0,0.34-11.11,0.62-24.82,0.62c-13.71,0-24.82-0.28-24.82-0.62c0-0.34,11.11-0.62,24.82-0.62
				C85.4,239.34,96.52,239.62,96.52,239.96z"/>
		</g>
	</g>
	<g>
		<g>
			<path class="st28" d="M120.44,240.32c0,0.34-3.65,0.62-8.15,0.62c-4.5,0-8.15-0.28-8.15-0.62c0-0.34,3.65-0.62,8.15-0.62
				C116.78,239.7,120.44,239.98,120.44,240.32z"/>
		</g>
	</g>
</g>
<g>
	<path d="M100.95,382h204.09c8.58,0,16.02-6.95,16.62-15.53l21.15-302.52c0.6-8.58-5.87-15.53-14.45-15.53H124.28
		c-8.58,0-16.02,6.95-16.62,15.53L86.5,366.47C85.9,375.05,92.37,382,100.95,382z"/>
	<path class="st66" d="M100.95,382h204.09c8.58,0,16.02-6.95,16.62-15.53l21.15-302.52c0.6-8.58-5.87-15.53-14.45-15.53H124.28
		c-8.58,0-16.02,6.95-16.62,15.53L86.5,366.47C85.9,375.05,92.37,382,100.95,382z"/>
	<polygon class="st28" points="98.25,371.23 310.45,371.23 332.29,58.84 120.09,58.84 	"/>
	<linearGradient id="SVGID_2_" gradientUnits="userSpaceOnUse" x1="182.7785" y1="48.4085" x2="270.4209" y2="48.4085">
		<stop  offset="0" style="stop-color:#90FFDB"/>
		<stop  offset="1" style="stop-color:#19A1CC"/>
	</linearGradient>
	<path class="st5" d="M182.78,65.96h86.18l1.43-20.42c0.57-8.11-5.55-14.69-13.66-14.69h-56.8c-8.11,0-15.15,6.58-15.72,14.69
		L182.78,65.96z"/>
	<polygon points="137.22,98.48 305.56,98.48 306.05,93.57 137.71,93.57 	"/>
	<polygon points="129.63,234.15 297.97,234.15 298.46,227.12 130.12,227.12 	"/>
	<path d="M134.1,158.35h15.15l-1.06,15.14h-15.15L134.1,158.35z M147.47,160.01h-11.83l-0.83,11.83h11.83L147.47,160.01z"/>
	<path d="M208.92,182.32h8.36l-0.58,8.36h-8.36L208.92,182.32z M215.5,183.97h-5.04l-0.35,5.04h5.04L215.5,183.97z"/>
	<path d="M208.2,192.62h8.36l-0.58,8.36h-8.36L208.2,192.62z M214.78,194.27h-5.04l-0.35,5.04h5.04L214.78,194.27z"/>
	<path d="M207.5,202.62h8.36l-0.58,8.36h-8.36L207.5,202.62z M214.08,204.28h-5.04l-0.35,5.04h5.04L214.08,204.28z"/>
	<g>
		<path d="M294.06,182.32h8.36l-0.58,8.36h-8.36L294.06,182.32z M300.65,183.97h-5.04l-0.35,5.04h5.04L300.65,183.97z"/>
		<path d="M293.34,192.62h8.36l-0.58,8.36h-8.36L293.34,192.62z M299.93,194.27h-5.04l-0.35,5.04h5.04L299.93,194.27z"/>
		<path d="M292.64,202.62H301l-0.58,8.36h-8.36L292.64,202.62z M299.23,204.28h-5.04l-0.35,5.04h5.04L299.23,204.28z"/>
	</g>
	<g>
		<path class="st68" d="M122.24,339.04v1.66h1.52l0.12-1.66H122.24z M123.38,322.71v1.65h1.51l0.12-1.65H123.38z M124.52,306.37
			v1.65h1.52l0.12-1.65H124.52z M125.66,290.03v1.66h1.52l0.12-1.66H125.66z M126.81,273.69v1.66h1.52l0.11-1.66H126.81z
			 M127.95,257.36v1.65h1.51l0.12-1.65H127.95z M207.08,322.71l-0.12,1.65h0.15v-1.65H207.08z M208.22,306.37l-0.12,1.65h0.15v-1.65
			H208.22z M210.5,273.69l-0.11,1.66h0.14v-1.66H210.5z"/>
		<g>
			<polygon class="st68" points="211.65,257.36 211.53,259.02 127.95,259.02 127.95,257.36 			"/>
			<rect x="126.81" y="273.69" class="st68" width="83.73" height="1.66"/>
			<polygon class="st68" points="209.37,290.03 209.25,291.7 125.66,291.7 125.66,290.03 			"/>
			<rect x="124.52" y="306.37" class="st68" width="83.74" height="1.65"/>
			<rect x="123.38" y="322.71" class="st68" width="83.73" height="1.65"/>
			<polygon class="st68" points="205.94,339.04 205.83,340.71 122.24,340.71 122.24,339.04 			"/>
		</g>
	</g>
	<g>
		<path class="st68" d="M289.81,339.04l-0.12,1.66h0.15v-1.66H289.81z M290.94,322.71l-0.12,1.65h0.15v-1.65H290.94z M292.09,306.37
			l-0.12,1.65h0.15v-1.65H292.09z M293.24,290.03l-0.12,1.66h0.15v-1.66H293.24z M294.37,273.69l-0.11,1.66h0.15v-1.66H294.37z
			 M295.52,257.36l-0.12,1.65h0.15v-1.65H295.52z"/>
		<path d="M128.95,242.69l-7.82,111.76h169.25l7.82-111.76H128.95z M207.11,324.37h-0.15l-1.02,14.68l-0.12,1.66l-0.85,12.08H122.9
			l0.85-12.08h-1.52v-1.66h1.63l1.02-14.68h-1.51v-1.65H125l1.03-14.69h-1.52v-1.65h1.63l1.03-14.68h-1.52v-1.66h1.63l1.03-14.68
			h-1.52v-1.66h1.62l1.03-14.68h-1.51v-1.65h1.62l0.91-13.02h82.07l-0.91,13.02l-0.12,1.65l-1.03,14.68h0.03v1.66h-0.14l-1.03,14.68
			l-0.12,1.66l-1.03,14.68h0.03v1.65h-0.15l-1.03,14.69h0.03V324.37z M295.55,259.02h-0.15l-1.03,14.68h0.04v1.66h-0.15l-1.03,14.68
			h0.03v1.66h-0.15l-1.03,14.68h0.03v1.65h-0.15l-1.03,14.69h0.03v1.65h-0.15l-1.02,14.68h0.03v1.66h-0.15l-0.85,12.08h-81.36
			l0.85-12.08l0.12-1.66l1.02-14.68l0.12-1.65l1.03-14.69l0.12-1.65l1.03-14.68l0.12-1.66l1.03-14.68l0.11-1.66l1.03-14.68
			l0.12-1.65l0.91-13.02h81.36l-0.91,13.02h0.03V259.02z"/>
		<g>
			<polygon class="st68" points="295.55,257.36 295.55,259.02 214.03,259.02 214.15,257.36 			"/>
			<polygon class="st68" points="294.41,273.69 294.41,275.36 212.9,275.36 213.01,273.69 			"/>
			<polygon class="st68" points="293.27,290.03 293.27,291.7 211.75,291.7 211.87,290.03 			"/>
			<polygon class="st68" points="292.12,306.37 292.12,308.03 210.61,308.03 210.73,306.37 			"/>
			<polygon class="st68" points="290.98,322.71 290.98,324.37 209.46,324.37 209.58,322.71 			"/>
			<polygon class="st68" points="289.84,339.04 289.84,340.71 208.33,340.71 208.45,339.04 			"/>
		</g>
	</g>
	<g>
		<path class="st69" d="M141.14,110.42l19.94-0.28l19.94-0.17c13.29-0.14,26.58-0.1,39.88-0.16c13.29-0.03,26.58,0.05,39.88,0.1
			l19.94,0.19l19.94,0.33l-19.94,0.33l-19.94,0.19c-13.29,0.04-26.58,0.13-39.88,0.1c-13.29-0.06-26.58-0.02-39.88-0.16l-19.94-0.17
			L141.14,110.42z"/>
	</g>
	<g>
		<path class="st69" d="M141.14,126.33l19.94-0.28l19.94-0.17c13.29-0.14,26.58-0.1,39.88-0.16c13.29-0.03,26.58,0.05,39.88,0.1
			l19.94,0.19l19.94,0.33l-19.94,0.33l-19.94,0.19c-13.29,0.04-26.58,0.13-39.88,0.1c-13.29-0.06-26.58-0.02-39.88-0.16l-19.94-0.17
			L141.14,126.33z"/>
	</g>
	<g>
		<path class="st69" d="M141.14,142.23l19.94-0.28l19.94-0.17c13.29-0.14,26.58-0.1,39.88-0.16c13.29-0.03,26.58,0.05,39.88,0.1
			l19.94,0.19l19.94,0.33l-19.94,0.33l-19.94,0.19c-13.29,0.04-26.58,0.13-39.88,0.1c-13.29-0.06-26.58-0.02-39.88-0.16l-19.94-0.17
			L141.14,142.23z"/>
	</g>
	<g>
		<path class="st69" d="M153.87,168.74c11.99-0.12,23.98-0.23,35.97-0.27l35.97-0.09l35.97,0.06l17.98,0.11l17.98,0.19l-17.98,0.19
			l-17.98,0.11l-35.97,0.06l-35.97-0.09C177.84,168.97,165.86,168.87,153.87,168.74z"/>
	</g>
	<g>
		<path class="st69" d="M221.73,188.89c5.54-0.13,11.08-0.24,16.61-0.29c5.54-0.09,11.08-0.06,16.61-0.1
			c5.54-0.02,11.08,0.03,16.61,0.06c5.54,0.07,11.08,0.15,16.61,0.33c-5.54,0.18-11.08,0.25-16.61,0.33
			c-5.54,0.03-11.08,0.08-16.61,0.06c-5.54-0.04-11.08-0.01-16.61-0.1C232.81,189.13,227.27,189.02,221.73,188.89z"/>
	</g>
	<g>
		<path class="st69" d="M221.73,199.5c5.54-0.13,11.08-0.24,16.61-0.29c5.54-0.09,11.08-0.06,16.61-0.1
			c5.54-0.02,11.08,0.03,16.61,0.06c5.54,0.07,11.08,0.15,16.61,0.33c-5.54,0.18-11.08,0.25-16.61,0.33
			c-5.54,0.03-11.08,0.08-16.61,0.06c-5.54-0.04-11.08-0.01-16.61-0.1C232.81,199.74,227.27,199.62,221.73,199.5z"/>
	</g>
	<g>
		<path class="st69" d="M221.73,210.1c5.54-0.13,11.08-0.24,16.61-0.29c5.54-0.09,11.08-0.06,16.61-0.1
			c5.54-0.02,11.08,0.03,16.61,0.06c5.54,0.07,11.08,0.15,16.61,0.33c-5.54,0.18-11.08,0.25-16.61,0.33
			c-5.54,0.03-11.08,0.08-16.61,0.06c-5.54-0.04-11.08-0.01-16.61-0.1C232.81,210.34,227.27,210.23,221.73,210.1z"/>
	</g>
	<g>
		<path class="st69" d="M139.73,188.87c5.3-0.12,10.6-0.23,15.91-0.28c5.3-0.08,10.6-0.06,15.91-0.09c5.3-0.02,10.6,0.03,15.91,0.06
			c5.3,0.07,10.6,0.14,15.91,0.31c-5.3,0.17-10.6,0.24-15.91,0.31c-5.3,0.03-10.6,0.08-15.91,0.06c-5.3-0.03-10.6-0.01-15.91-0.09
			C150.34,189.1,145.03,189,139.73,188.87z"/>
	</g>
	<g>
		<path class="st69" d="M137.61,199.5c5.48-0.13,10.96-0.24,16.44-0.28c5.48-0.08,10.96-0.06,16.44-0.1
			c5.48-0.02,10.96,0.03,16.44,0.06c5.48,0.07,10.96,0.14,16.44,0.32c-5.48,0.18-10.96,0.25-16.44,0.32
			c-5.48,0.03-10.96,0.08-16.44,0.06c-5.48-0.04-10.96-0.01-16.44-0.1C148.57,199.74,143.09,199.63,137.61,199.5z"/>
	</g>
	<g>
		<path class="st69" d="M134.43,210.11c5.74-0.13,11.49-0.25,17.23-0.3c5.74-0.09,11.49-0.06,17.23-0.1
			c5.74-0.02,11.49,0.03,17.23,0.06c5.74,0.08,11.49,0.15,17.23,0.34c-5.74,0.19-11.49,0.26-17.23,0.34
			c-5.74,0.03-11.49,0.08-17.23,0.06c-5.74-0.04-11.49-0.01-17.23-0.1C145.92,210.36,140.17,210.25,134.43,210.11z"/>
	</g>
</g>
<g>
	<g>
		<g>
			<linearGradient id="SVGID_3_" gradientUnits="userSpaceOnUse" x1="345.4063" y1="203.5195" x2="220.6573" y2="490.5185">
				<stop  offset="0" style="stop-color:#8DF2C7"/>
				<stop  offset="1" style="stop-color:#19A192"/>
			</linearGradient>
			<path class="st7" d="M238.89,350.93c-26.61-34.96-19.79-84.92,15.25-111.6c35.04-26.68,85.01-19.97,111.63,14.99
				c26.62,34.95,19.79,84.92-15.25,111.59C315.49,392.59,265.51,385.88,238.89,350.93z"/>
		</g>
		<g class="st27">
			<path class="st71" d="M265.6,254.39c26.18-19.95,63.33-15.4,83.89,9.93l-0.02,0.01c-0.29,0.24,1.27,2.43,3.57,6.57
				c2.28,4.15,5.27,10.41,6.91,18.67c0.8,4.1,1.28,8.7,1.13,13.6c-0.16,4.91-0.88,10.13-2.47,15.42c-0.78,2.62-1.73,5.29-2.95,7.9
				c-1.2,2.62-2.58,5.22-4.26,7.7c-1.64,2.5-3.45,4.95-5.53,7.23c-2.07,2.27-4.35,4.45-6.8,6.46c-2.47,1.99-5.05,3.76-7.71,5.32
				c-2.66,1.57-5.44,2.84-8.21,3.96c-2.78,1.1-5.61,1.92-8.4,2.57c-2.8,0.66-5.61,1.06-8.35,1.29c-5.48,0.47-10.75,0.09-15.58-0.74
				c-4.85-0.88-9.23-2.27-13.09-3.92c-7.74-3.28-13.26-7.49-16.86-10.56c-3.56-3.08-5.38-5.03-5.68-4.86
				c-0.41-0.49-0.81-0.99-1.19-1.49C233.71,312.8,238.9,274.72,265.6,254.39z"/>
		</g>
		<g class="st1">
			<g>
				<path class="st2" d="M255.16,340.94l0.01-0.01c0.31-0.17,2.12,1.77,5.68,4.86c3.6,3.07,9.12,7.28,16.86,10.56
					c3.86,1.64,8.24,3.04,13.09,3.92c4.83,0.83,10.1,1.21,15.58,0.74c2.74-0.23,5.55-0.63,8.35-1.29c2.79-0.65,5.62-1.47,8.4-2.57
					c2.77-1.12,5.55-2.38,8.21-3.96c2.66-1.56,5.25-3.33,7.71-5.32c2.45-2.02,4.73-4.2,6.8-6.46c2.08-2.29,3.89-4.73,5.53-7.23
					c1.67-2.48,3.06-5.08,4.26-7.7c1.22-2.61,2.18-5.27,2.95-7.9c1.59-5.29,2.3-10.51,2.47-15.42c0.15-4.91-0.33-9.5-1.13-13.6
					c-1.63-8.26-4.62-14.51-6.91-18.67c-2.3-4.15-3.85-6.33-3.57-6.57l0.02-0.01c0.32-0.08,2.3,1.73,5.09,5.62
					c2.82,3.97,6.42,10.27,8.57,18.9c1.07,4.29,1.76,9.13,1.79,14.37c-0.01,5.23-0.62,10.85-2.21,16.53
					c-0.79,2.85-1.77,5.72-3.03,8.55c-1.26,2.83-2.71,5.65-4.47,8.36c-1.75,2.7-3.7,5.36-5.94,7.84c-2.22,2.47-4.66,4.82-7.3,7
					c-2.68,2.14-5.47,4.05-8.35,5.71c-2.88,1.68-5.87,3.04-8.89,4.2c-3,1.17-6.06,2.01-9.09,2.65c-3.01,0.68-6.04,1.04-8.99,1.22
					c-5.89,0.38-11.51-0.17-16.64-1.21c-5.1-1.12-9.71-2.78-13.7-4.72c-8.01-3.87-13.43-8.69-16.74-12.26
					C256.28,343.46,254.93,341.1,255.16,340.94z"/>
			</g>
		</g>
	</g>
	<g>
		<g>
			<g>
				<g>
					<path class="st28" d="M274.91,277.95l-6.53-8.33l7.44-5.83l6.36,8.1c7.71-5.33,16.58-8.57,23.18-8.58l3.03,12.28
						c-5.88,0.16-12.8,2.36-18.57,6.04l9.74,12.42c9.83-4.47,21.2-8.95,29.54,1.68c6.18,7.88,5.77,19.14-4.93,29.69l6.48,8.25
						l-7.44,5.83l-6.36-8.11c-5.93,3.93-12.52,6.7-18.65,7.31l-3.46-12.06c5.48-0.82,10.34-2.59,14.41-5.06l-9.92-12.64
						c-9.77,4.54-21,8.91-29.22-1.58C263.94,299.65,264.34,288.52,274.91,277.95z M308.12,304.98l8.28,10.56
						c3.24-3.98,3.11-7.36,1.18-9.82C315.55,303.12,312.21,303.45,308.12,304.98z M281.27,297.1c2.04,2.6,5.31,2.32,9.38,0.93
						l-8.05-10.26C279.53,291.5,279.41,294.72,281.27,297.1z"/>
				</g>
			</g>
		</g>
	</g>
</g>
</svg>
