<?xml version="1.0" encoding="utf-8"?>
<!-- Generator: Adobe Illustrator 25.0.1, SVG Export Plug-In . SVG Version: 6.00 Build 0)  -->
<svg version="1.1" id="Capa_1" xmlns="http://www.w3.org/2000/svg" xmlns:xlink="http://www.w3.org/1999/xlink" x="0px" y="0px"
	 viewBox="0 0 1718 1080" style="enable-background:new 0 0 1718 1080;" xml:space="preserve">
<style type="text/css">
	.st0{opacity:0.6;fill:url(#SVGID_1_);}
	.st1{fill:#FAFAFA;}
	.st2{fill:#E0E0E0;}
	.st3{fill:#EBEBEB;}
	.st4{opacity:0.6;fill:url(#SVGID_2_);}
	.st5{fill:#D3D3D3;stroke:#FFFFFF;stroke-miterlimit:10;}
	.st6{fill:#D3D3D3;}
	.st7{fill:#263238;}
	.st8{fill:#D8D8D8;}
	.st9{fill:#BCBCBC;}
	.st10{fill:#D1D2D3;}
	.st11{fill:#F5F5F5;}
	.st12{fill:url(#SVGID_3_);}
	.st13{fill:url(#SVGID_4_);}
	.st14{fill:url(#SVGID_5_);}
	.st15{fill:url(#SVGID_6_);}
	.st16{fill:#B78876;}
	.st17{fill:#AA6550;}
	.st18{fill:url(#SVGID_7_);}
	.st19{fill:url(#SVGID_8_);}
	.st20{fill:url(#SVGID_9_);}
	.st21{fill:#FCFBF4;}
	.st22{fill:#E8505B;}
	.st23{opacity:0.4;}
	.st24{fill:url(#SVGID_10_);}
	.st25{fill:url(#SVGID_11_);}
	.st26{fill:url(#SVGID_12_);}
	.st27{fill:#455A64;}
	.st28{opacity:0.3;}
	.st29{fill:url(#SVGID_13_);}
	.st30{fill:#2E9ADB;}
	.st31{opacity:0.6;}
	.st32{fill:#FFFFFF;}
	.st33{fill:#FFBE9D;}
	.st34{fill:#EB996E;}
	.st35{fill:url(#SVGID_14_);}
	.st36{fill:url(#SVGID_15_);}
	.st37{fill:url(#SVGID_16_);}
	.st38{fill:#CBE7FF;}
	.st39{fill:#295DB1;}
	.st40{fill:#56DB92;}
	.st41{fill:#9CD6FB;}
	.st42{opacity:0.8;}
	.st43{fill:url(#SVGID_17_);}
	.st44{fill:url(#SVGID_18_);}
	.st45{fill:url(#SVGID_19_);}
	.st46{fill:url(#SVGID_20_);}
	.st47{fill:#1B8DAA;}
	.st48{fill:#1F8CC9;}
	.st49{fill:#20A7C6;}
	.st50{fill:#23A1D8;}
	.st51{fill:#198A93;}
	.st52{fill:#1D9DA0;}
	.st53{fill:#56D8B3;}
	.st54{fill:#75F2AA;}
	.st55{fill:#2C9CDB;}
	.st56{fill:#69BFE2;}
	.st57{opacity:0.5;}
	.st58{fill:url(#SVGID_21_);}
	.st59{fill:url(#SVGID_22_);}
	.st60{fill:url(#SVGID_23_);}
	.st61{fill:url(#SVGID_24_);}
	.st62{fill:url(#SVGID_25_);}
	.st63{fill:url(#SVGID_26_);}
	.st64{fill:url(#SVGID_27_);}
	.st65{fill:#1B97AA;}
	.st66{fill:#21ABDB;}
	.st67{fill:url(#SVGID_28_);}
	.st68{fill:#EFEFEF;}
	.st69{fill:none;}
	.st70{fill:#FFFFFF;stroke:#D3D3D3;stroke-width:1.5;stroke-miterlimit:10;}
	.st71{fill-rule:evenodd;clip-rule:evenodd;fill:#56D8B3;}
	.st72{fill-rule:evenodd;clip-rule:evenodd;fill:#75F2AA;}
	.st73{opacity:0.5;fill-rule:evenodd;clip-rule:evenodd;fill:url(#SVGID_29_);}
	.st74{fill-rule:evenodd;clip-rule:evenodd;fill:#2B3F35;}
	.st75{opacity:0.5;fill-rule:evenodd;clip-rule:evenodd;fill:url(#SVGID_30_);}
	.st76{fill-rule:evenodd;clip-rule:evenodd;fill:url(#SVGID_31_);}
	.st77{opacity:0.2;}
	.st78{fill-rule:evenodd;clip-rule:evenodd;fill:url(#SVGID_32_);}
	.st79{fill:#3D3D3D;}
	.st80{fill-rule:evenodd;clip-rule:evenodd;fill:#3D3D3D;}
	.st81{fill:#5E5E5E;}
	.st82{fill:#EAF2F4;}
	.st83{fill:url(#SVGID_33_);}
	.st84{fill:#D5D8A7;}
	.st85{fill:url(#SVGID_34_);}
	.st86{fill:url(#SVGID_35_);}
	.st87{fill:url(#SVGID_36_);}
	.st88{fill:url(#SVGID_37_);}
	.st89{fill:url(#SVGID_38_);}
	.st90{fill:url(#SVGID_39_);}
	.st91{fill:url(#SVGID_40_);}
	.st92{fill:url(#SVGID_41_);}
	.st93{fill:#35AED3;}
	.st94{opacity:0.5;fill-rule:evenodd;clip-rule:evenodd;fill:url(#SVGID_42_);}
	.st95{fill:url(#SVGID_43_);}
	.st96{fill:url(#SVGID_44_);}
	.st97{fill:url(#SVGID_45_);}
	.st98{fill:none;stroke:#FFFFFF;stroke-miterlimit:10;}
	.st99{fill:#3FA9F5;}
</style>
<linearGradient id="SVGID_1_" gradientUnits="userSpaceOnUse" x1="855.2655" y1="56.1004" x2="855.2655" y2="981.7274">
	<stop  offset="0" style="stop-color:#FEFEFF"/>
	<stop  offset="0.4923" style="stop-color:#E6E4FF"/>
	<stop  offset="0.8383" style="stop-color:#D9D6FF"/>
</linearGradient>
<path class="st0" d="M51.9,943.41c9.53-81.93,17.11-206.77,18.44-224.02c8.26-107.15,12.42-219.74,43.91-322.8
	c9.93-32.51,51.12-148.27,149.02-166.11c181.34-33.04,256.21,109.34,340.81,112.8c30.71,1.26,60.1-15.04,81.88-37.26
	c21.78-22.22,37.15-50.04,52.24-77.47c33.88-61.61,38.27-164.86,105.43-182.09c290.9-74.62,311.69,181.86,326.34,256.25
	c11.69,59.34-5.1,119.12-25.84,174.22c-13.73,36.48-35.21,95.04,4.02,124.64c18.75,14.15,45.03,4.31,66.08-5.91
	c37.85-18.38,75.7-36.75,113.56-55.13c28.43-13.8,60.7-27.87,90.29-16.92c49.94,18.48,89.5,110.05,114.67,153.83
	c42.28,73.55,78.48,150.65,110.3,229.5c17.09,42.35,26.13,82.28,31,108.35c-545.85,0-1091.7,0-1637.55,0
	C41.75,1015.32,47.08,984.85,51.9,943.41z"/>
<g>
	<g>
		<g>
			<rect x="1185.27" y="170.52" class="st1" width="203.44" height="182.01"/>
		</g>
		<g>
			<g>
				<path class="st2" d="M1388.7,352.52c0,0-0.03-1.17-0.05-3.38c-0.01-2.23-0.03-5.5-0.05-9.75c-0.03-8.55-0.07-21.04-0.12-36.95
					c-0.06-31.8-0.14-77.24-0.24-131.93l0.46,0.46c-58.59,0.02-128.51,0.05-203.42,0.08h-0.02l0.54-0.54
					c-0.02,66.22-0.05,128.52-0.07,182l-0.48-0.48c60.69,0.1,111.48,0.18,147.14,0.24c17.84,0.05,31.88,0.1,41.5,0.13
					c4.79,0.02,8.47,0.04,10.99,0.06c1.23,0.01,2.17,0.02,2.83,0.03C1388.36,352.5,1388.7,352.52,1388.7,352.52s-0.3,0.02-0.92,0.03
					c-0.65,0.01-1.57,0.02-2.78,0.03c-2.49,0.01-6.14,0.03-10.89,0.06c-9.59,0.03-23.6,0.07-41.39,0.13
					c-35.73,0.06-86.63,0.14-147.45,0.24l-0.48,0v-0.48c-0.02-53.48-0.04-115.79-0.07-182v-0.54h0.54h0.02
					c74.91,0.03,144.83,0.06,203.42,0.08h0.46l0,0.46c-0.1,54.81-0.18,100.35-0.24,132.22c-0.05,15.86-0.09,28.32-0.12,36.84
					c-0.02,4.21-0.04,7.45-0.05,9.66C1388.74,351.42,1388.7,352.52,1388.7,352.52z"/>
			</g>
		</g>
	</g>
	<g>
		<g>
			<path class="st2" d="M1263.27,202.85c0,0.3-10.71,0.54-23.91,0.54c-13.21,0-23.92-0.24-23.92-0.54c0-0.3,10.71-0.54,23.92-0.54
				C1252.56,202.31,1263.27,202.55,1263.27,202.85z"/>
		</g>
	</g>
	<g>
		<g>
			<path class="st2" d="M1349.47,216.52c0,0.3-29.42,0.54-65.7,0.54c-36.29,0-65.7-0.24-65.7-0.54c0-0.3,29.41-0.54,65.7-0.54
				C1320.05,215.98,1349.47,216.22,1349.47,216.52z"/>
		</g>
	</g>
	<g>
		<rect x="1215.79" y="239.67" class="st2" width="8.57" height="8.57"/>
	</g>
	<g>
		<rect x="1236.89" y="239.67" class="st2" width="8.57" height="8.57"/>
	</g>
	<g>
		<rect x="1258.37" y="239.28" class="st2" width="8.57" height="8.57"/>
	</g>
	<g>
		<rect x="1279.08" y="239.67" class="st2" width="8.57" height="8.57"/>
	</g>
	<g>
		<rect x="1300.18" y="239.67" class="st2" width="8.57" height="8.57"/>
	</g>
	<g>
		<rect x="1321.28" y="239.67" class="st2" width="8.57" height="8.57"/>
	</g>
	<g>
		<rect x="1342.37" y="239.67" class="st3" width="8.57" height="8.57"/>
	</g>
	<g>
		<rect x="1215.79" y="257.89" class="st3" width="8.57" height="8.57"/>
	</g>
	<g>
		<rect x="1236.89" y="257.89" class="st2" width="8.57" height="8.57"/>
	</g>
	<g>
		<rect x="1257.99" y="257.89" class="st3" width="8.57" height="8.57"/>
	</g>
	<g>
		<rect x="1279.08" y="257.89" class="st2" width="8.57" height="8.57"/>
	</g>
	<g>
		<rect x="1300.18" y="257.89" class="st2" width="8.57" height="8.57"/>
	</g>
	<g>
		<rect x="1321.67" y="257.5" class="st2" width="8.57" height="8.57"/>
	</g>
	<g>
		<rect x="1342.37" y="257.89" class="st2" width="8.57" height="8.57"/>
	</g>
	<g>
		<rect x="1215.79" y="276.11" class="st2" width="8.57" height="8.57"/>
	</g>
	<g>
		<rect x="1237.28" y="275.72" class="st2" width="8.57" height="8.57"/>
	</g>
	<g>
		<rect x="1257.99" y="276.11" class="st2" width="8.57" height="8.57"/>
	</g>
	<g>
		<rect x="1279.08" y="276.11" class="st3" width="8.57" height="8.57"/>
	</g>
	<g>
		<rect x="1300.18" y="276.11" class="st2" width="8.57" height="8.57"/>
	</g>
	<g>
		<rect x="1321.28" y="276.11" class="st2" width="8.57" height="8.57"/>
	</g>
	<g>
		<rect x="1342.37" y="276.11" class="st2" width="8.57" height="8.57"/>
	</g>
	<g>
		<rect x="1215.79" y="294.33" class="st2" width="8.57" height="8.57"/>
	</g>
	<g>
		<rect x="1236.89" y="294.33" class="st2" width="8.57" height="8.57"/>
	</g>
	<g>
		<rect x="1257.99" y="294.33" class="st2" width="8.57" height="8.57"/>
	</g>
	<g>
		<rect x="1279.47" y="293.94" class="st2" width="8.57" height="8.57"/>
	</g>
	<g>
		<rect x="1300.18" y="294.33" class="st2" width="8.57" height="8.57"/>
	</g>
	<g>
		<rect x="1321.28" y="294.33" class="st3" width="8.57" height="8.57"/>
	</g>
	<g>
		<rect x="1342.37" y="294.33" class="st2" width="8.57" height="8.57"/>
	</g>
	<g>
		<rect x="1215.79" y="312.55" class="st2" width="8.57" height="8.57"/>
	</g>
	<g>
		<rect x="1236.89" y="312.55" class="st3" width="8.57" height="8.57"/>
	</g>
	<g>
		<rect x="1257.99" y="312.55" class="st2" width="8.57" height="8.57"/>
	</g>
	<g>
		<rect x="1279.08" y="312.55" class="st2" width="8.57" height="8.57"/>
	</g>
	<g>
		<rect x="1300.18" y="312.55" class="st2" width="8.57" height="8.57"/>
	</g>
	<g>
		<rect x="1321.67" y="312.16" class="st2" width="8.57" height="8.57"/>
	</g>
	<g>
		<rect x="1342.37" y="312.55" class="st2" width="8.57" height="8.57"/>
	</g>
</g>
<g>
	<g>
		<g>
			<path class="st22" d="M100.31,746.61c-2.25-3.53-5.29-4.85-8.69-7.29c-3.4-2.44-6.79-5.44-7.82-9.5
				c-1.03-4.06,1.52-9.2,5.71-9.36c4.17-0.15,6.9,4.18,8.72,7.93c3.21,6.62,7.89,14.45,11.1,21.07"/>
		</g>
		<g>
			<g>
				<path class="st47" d="M100.31,746.61c-2.25-3.53-5.29-4.85-8.69-7.29c-3.4-2.44-6.79-5.44-7.82-9.5
					c-1.03-4.06,1.52-9.2,5.71-9.36c4.17-0.15,6.9,4.18,8.72,7.93c3.21,6.62,7.89,14.45,11.1,21.07"/>
			</g>
		</g>
		<g>
			<path class="st22" d="M87.56,743.56c-11.44-2.79-24.47-4.49-35.97-1.92c-5.58,1.25-11.63,4.77-12.07,10.47
				c-0.3,3.84,2.19,7.44,5.34,9.64c7.83,5.46,18.66,3.61,27.32-0.41c8.66-4.02,18.29-11.1,26.03-15.31"/>
		</g>
		<g>
			<g>
				<path class="st51" d="M87.56,743.56c-11.44-2.79-24.47-4.49-35.97-1.92c-5.58,1.25-11.63,4.77-12.07,10.47
					c-0.3,3.84,2.19,7.44,5.34,9.64c7.83,5.46,18.66,3.61,27.32-0.41c8.66-4.02,18.29-11.1,26.03-15.31"/>
			</g>
		</g>
		<g>
			<path class="st22" d="M132.95,759.92c-11.14-0.6-22.41,1.14-32.85,5.07c-4.71,1.78-9.48,4.19-12.23,8.4
				c-4.17,6.4-2.13,15.67,3.63,20.69c5.76,5.02,14.32,6.02,21.61,3.72c7.28-2.3,13.36-7.53,17.99-13.6
				c4.63-6.08,8.95-11.3,12.24-18.19"/>
		</g>
		<g>
			<g>
				<path class="st51" d="M132.95,759.92c-11.14-0.6-22.41,1.14-32.85,5.07c-4.71,1.78-9.48,4.19-12.23,8.4
					c-4.17,6.4-2.13,15.67,3.63,20.69c5.76,5.02,14.32,6.02,21.61,3.72c7.28-2.3,13.36-7.53,17.99-13.6
					c4.63-6.08,8.95-11.3,12.24-18.19"/>
			</g>
		</g>
		<g>
			<path class="st22" d="M163.37,780.22c-4.33-5.76-7.37-12.47-8.85-19.52c-0.44-2.08-0.74-4.25-0.3-6.33
				c0.43-2.08,1.72-4.09,3.69-4.91c2.33-0.96,5.11-0.03,6.97,1.67c1.86,1.7,2.98,4.05,3.97,6.37c5.47,12.75,7.67,27.07,10.6,40.63"
				/>
		</g>
		<g>
			<g>
				<path class="st47" d="M163.37,780.22c-4.33-5.76-7.37-12.47-8.85-19.52c-0.44-2.08-0.74-4.25-0.3-6.33
					c0.43-2.08,1.72-4.09,3.69-4.91c2.33-0.96,5.11-0.03,6.97,1.67c1.86,1.7,2.98,4.05,3.97,6.37c5.47,12.75,7.67,27.07,10.6,40.63"
					/>
			</g>
		</g>
		<g>
			<path class="st22" d="M171.35,790.68c-14.63-2.46-30.27,1.95-41.46,11.68c-3.17,2.76-6.07,6.02-7.47,9.99
				c-1.4,3.96-1.08,8.73,1.64,11.94c3.47,4.09,9.79,4.57,14.89,2.9c6.08-1.98,11.04-6.35,15.81-10.6
				c7.56-6.75,15.13-13.5,22.69-20.24"/>
		</g>
		<g>
			<g>
				<path class="st51" d="M171.35,790.68c-14.63-2.46-30.27,1.95-41.46,11.68c-3.17,2.76-6.07,6.02-7.47,9.99
					c-1.4,3.96-1.08,8.73,1.64,11.94c3.47,4.09,9.79,4.57,14.89,2.9c6.08-1.98,11.04-6.35,15.81-10.6
					c7.56-6.75,15.13-13.5,22.69-20.24"/>
			</g>
		</g>
		<g>
			<path class="st65" d="M172.02,730.75c2.02-17.71,11.86-34.38,26.38-44.71c4.5-3.2,9.57-5.86,15.06-6.41s11.46,1.35,14.72,5.8
				c4,5.46,3.03,13.21,0.09,19.31c-4.79,9.9-14.07,17.12-24.24,21.31c-10.17,4.19-21.25,5.65-32.22,6.45"/>
		</g>
		<g>
			<path class="st50" d="M161.18,691.8c1.88-11.49,7.93-21.91,14.98-31.18c2.24-2.95,4.64-5.85,7.69-7.94
				c3.06-2.09,6.88-3.3,10.5-2.53c5.02,1.07,8.71,5.91,9.31,11c0.59,5.09-1.53,10.24-4.84,14.15c-3.31,3.91-7.73,6.74-12.29,9.1
				c-7.8,4.04-16.21,6.89-24.86,8.42"/>
		</g>
		<g>
			<path class="st50" d="M155.68,656.29c0.15-14.85,6.16-31.69,17.44-41.34c1.99-1.7,4.8-3.32,7.07-2.02
				c1.24,0.71,1.91,2.11,2.4,3.46c3.2,8.78,1.94,19.07-3.29,26.82C174.08,650.94,165.02,655.96,155.68,656.29"/>
		</g>
		<g>
			<path class="st66" d="M154.78,641.74c-0.42-12.84-7.04-23.73-15.03-33.79c-1.84-2.32-4.28-4.69-7.24-4.55
				c-4.07,0.19-6.31,4.9-6.71,8.95c-0.76,7.64,1.88,15.55,7.09,21.19C138.09,639.19,147.11,641.89,154.78,641.74"/>
		</g>
		<g>
			<path class="st50" d="M157.68,606.76c-6.64-10.62-7.69-28.28-1.4-39.11c2.05-3.53,4.8-6.75,8.35-8.76
				c3.56-2,7.99-2.66,11.79-1.16c6.47,2.56,9.29,10.74,7.75,17.53c-1.54,6.79-6.37,12.33-11.52,17.01
				C167.5,596.95,161.81,601.16,157.68,606.76"/>
		</g>
		<g>
			<path class="st66" d="M158.8,679.8c-3.95-5.69-8.1-11.32-13.25-15.96c-5.15-4.63-11.42-8.25-18.28-9.26
				c-6.86-1.01-14.31,0.87-19.16,5.81c-4.85,4.95-6.5,13.11-3.05,19.12c2.67,4.67,7.76,7.42,12.83,9.23
				c13.35,4.78,28.41,4.61,41.65-0.47"/>
		</g>
		<g>
			<path class="st66" d="M170.21,725.65c-5.15-6.99-12.11-12.78-20.27-15.74c-8.16-2.96-17.53-2.93-25.32,0.89
				c-3.78,1.85-7.46,5.17-7.44,9.38c0.03,4.35,3.93,7.62,7.74,9.74c13.86,7.7,31.34,8.49,45.83,2.09"/>
		</g>
		<g>
			<path class="st65" d="M189.83,788.58c-2.14-10.59-0.57-20.82,5.01-30.08c5.57-9.26,14.53-16.39,24.72-19.99
				c3.9-1.38,8.08-2.26,12.17-1.64c4.09,0.62,8.08,2.94,9.91,6.65c3.12,6.32-1.08,14.17-6.97,18.03c-5.9,3.86-12.38,7.52-19.07,9.74
				c-10.37,3.44-19.8,15.32-23.84,23.68"/>
		</g>
		<g>
			<path class="st65" d="M201.65,835.91c-0.44-13.85,3.31-25.87,10.58-37.67c3.76-6.12,8.7-11.84,15.28-14.7
				c6.58-2.87,15.06-2.23,20.01,2.97c6.34,6.66,4.54,18.1-1.33,25.18c-5.87,7.08-14.65,10.93-23,14.78
				c-8.35,3.85-14.91,8.28-19.95,15.97"/>
		</g>
		<g>
			<path class="st65" d="M209.67,879.01c3.3-11.91,7.01-24.02,14.42-33.92c7.4-9.9,19.29-17.3,31.6-16.12
				c5.84,0.56,11.9,3.47,14.23,8.85c2.89,6.67-0.87,14.38-5.66,19.85c-6.71,7.65-15.66,13.31-25.45,16.1
				c-5.48,1.56-11.22,2.24-16.56,4.24c-5.34,2-10.46,5.69-12.26,11.1"/>
		</g>
		<g>
			<path class="st50" d="M210.67,895.51c-3.82-12.59-15.29-21.24-26.83-27.55c-8.64-4.72-18.28-8.75-28.05-7.52
				c-9.77,1.22-19.24,9.45-18.62,19.27c0.63,10,10.98,16.83,20.89,18.26c9.92,1.43,19.98-0.86,30-0.65
				c10.02,0.21,19.5,3.06,23.66,12.17"/>
		</g>
		<g>
			<path class="st50" d="M204.5,852.33c-4.19-12.7-15.29-22.89-28.31-25.97c-3.77-0.89-7.96-1.17-11.33,0.76
				c-4.77,2.73-6.31,9.39-4.28,14.49c2.03,5.1,6.88,8.67,12.07,10.46c5.19,1.79,10.77,2.05,16.26,2.28
				c5.49,0.23,11.06,0.45,16.27,2.18"/>
		</g>
		<g>
			<path class="st22" d="M120.43,753.18c-2.84-3.05-5.15-5.98-6.15-10.03c-0.3-1.24-0.49-2.63,0.15-3.73
				c0.84-1.44,2.85-1.82,4.43-1.29c1.58,0.53,2.81,1.75,3.95,2.96c4.85,5.15,9.74,13.44,13.33,19.53"/>
		</g>
		<g>
			<g>
				<path class="st7" d="M171.35,566.04c0.02,0.01-0.1,0.3-0.36,0.86c-0.28,0.61-0.67,1.43-1.15,2.47c-0.52,1.1-1.15,2.44-1.9,4
					c-0.67,1.63-1.43,3.5-2.29,5.59c-1.66,4.23-3.43,9.5-5.13,15.73c-1.52,6.26-3.17,13.44-4.04,21.52
					c-1.95,16.11-1.91,35.63,1.39,56.86c3.29,21.23,9.6,44.1,17,67.78c7.44,23.69,15.23,46.07,20.8,66.91
					c5.6,20.82,9.25,39.91,11.67,56.02c2.41,16.12,3.53,29.27,4.14,38.35c0.28,4.55,0.46,8.08,0.53,10.47
					c0.03,1.15,0.06,2.05,0.08,2.73c0.01,0.61,0.01,0.93-0.02,0.93c-0.02,0-0.06-0.31-0.11-0.92c-0.05-0.67-0.12-1.57-0.2-2.72
					c-0.18-2.46-0.43-5.97-0.76-10.45c-0.76-9.07-2.01-22.18-4.52-38.26c-2.52-16.07-6.25-35.1-11.9-55.86
					c-5.61-20.76-13.43-43.11-20.88-66.83c-7.41-23.71-13.7-46.62-16.95-67.97c-3.25-21.34-3.2-40.96-1.14-57.14
					c0.93-8.11,2.64-15.32,4.24-21.59c1.77-6.24,3.62-11.51,5.35-15.73c0.9-2.08,1.7-3.94,2.4-5.56c0.78-1.55,1.45-2.87,2.01-3.96
					c0.53-1.02,0.95-1.82,1.26-2.42C171.17,566.3,171.33,566.03,171.35,566.04z"/>
			</g>
		</g>
		<g>
			<g>
				<path class="st7" d="M74.17,741.51c0-0.04,0.6-0.01,1.72,0.09c1.12,0.12,2.78,0.23,4.9,0.54c4.24,0.55,10.36,1.62,17.77,3.55
					c14.79,3.79,34.85,11.74,53.69,25.74c9.43,6.94,17.6,14.63,24.25,22.28c6.61,7.7,11.76,15.29,15.52,21.96
					c3.78,6.66,6.37,12.31,8.01,16.26c0.85,1.96,1.4,3.53,1.81,4.58c0.39,1.06,0.58,1.62,0.54,1.63c-0.04,0.02-0.3-0.52-0.77-1.54
					c-0.48-1.02-1.1-2.56-2.02-4.48c-1.76-3.88-4.46-9.44-8.32-16.01c-3.84-6.58-9.02-14.06-15.63-21.65
					c-6.65-7.55-14.77-15.14-24.13-22.04c-18.69-13.89-38.53-21.91-53.19-25.89c-7.34-2.03-13.41-3.22-17.62-3.91
					c-2.1-0.39-3.75-0.57-4.85-0.77C74.74,741.67,74.16,741.56,74.17,741.51z"/>
			</g>
		</g>
		<g>
			<g>
				<path class="st7" d="M208.8,699.55c0.1,0.17-2.36,1.64-6.16,4.25c-3.8,2.61-8.88,6.46-14,11.27c-5.11,4.82-9.26,9.65-12.1,13.29
					c-2.84,3.63-4.46,5.99-4.62,5.89c-0.07-0.05,0.26-0.69,0.91-1.81c0.65-1.13,1.67-2.7,3.02-4.6c2.68-3.79,6.78-8.78,11.95-13.66
					c5.18-4.86,10.41-8.65,14.36-11.1c1.97-1.23,3.61-2.15,4.77-2.73C208.1,699.76,208.76,699.47,208.8,699.55z"/>
			</g>
		</g>
		<g>
			<g>
				<path class="st7" d="M224.29,751.59c0.08,0.21-3.08,1.27-7.65,3.99c-4.55,2.69-10.43,7.29-15.12,13.89
					c-4.7,6.59-7.12,13.66-8.17,18.84c-1.08,5.21-1.04,8.54-1.26,8.53c-0.08,0-0.16-0.83-0.16-2.34c0-1.51,0.14-3.69,0.57-6.36
					c0.84-5.31,3.2-12.62,8.02-19.39c4.82-6.77,10.95-11.39,15.69-13.93c2.38-1.29,4.39-2.13,5.82-2.62
					C223.45,751.7,224.26,751.51,224.29,751.59z"/>
			</g>
		</g>
		<g>
			<g>
				<path class="st7" d="M230.38,800.56c0.12,0.19-2.45,1.75-6.11,4.88c-3.66,3.11-8.27,7.97-12.1,14.23
					c-3.81,6.27-6.02,12.6-7.1,17.28c-1.1,4.68-1.31,7.68-1.54,7.67c-0.08-0.01-0.09-0.76-0.03-2.12c0.04-1.36,0.27-3.33,0.72-5.73
					c0.89-4.8,3.01-11.32,6.9-17.73c3.91-6.39,8.74-11.27,12.6-14.26c1.93-1.5,3.57-2.61,4.76-3.27
					C229.66,800.82,230.33,800.49,230.38,800.56z"/>
			</g>
		</g>
		<g>
			<g>
				<path class="st7" d="M245.89,847.85c0.08,0.2-2.7,1.35-6.88,3.77c-4.17,2.41-9.65,6.28-14.78,11.55
					c-5.12,5.29-8.82,10.88-11.11,15.12c-2.3,4.24-3.36,7.06-3.57,6.99c-0.08-0.03,0.12-0.76,0.56-2.05
					c0.42-1.3,1.17-3.13,2.24-5.33c2.12-4.4,5.79-10.19,11-15.58c5.23-5.37,10.9-9.21,15.24-11.46c2.17-1.13,3.98-1.94,5.26-2.4
					C245.14,847.99,245.86,847.77,245.89,847.85z"/>
			</g>
		</g>
		<g>
			<g>
				<path class="st7" d="M172.18,835.81c-0.01-0.12,2.26-0.41,5.91,0.06c3.63,0.45,8.62,1.86,13.47,4.72
					c4.85,2.88,8.48,6.57,10.63,9.54c2.16,2.97,3.01,5.1,2.9,5.15c-0.19,0.1-1.3-1.85-3.58-4.62c-2.27-2.76-5.87-6.23-10.57-9.02
					c-4.7-2.77-9.47-4.26-12.99-4.92C174.43,836.05,172.18,836.02,172.18,835.81z"/>
			</g>
		</g>
		<g>
			<g>
				<path class="st7" d="M166.52,879.26c-0.04-0.05,0.49-0.63,1.76-1.22c1.26-0.58,3.3-1.07,5.79-0.81c2.5,0.23,5.31,1.29,8.21,2.68
					c2.9,1.38,6.07,2.94,9.32,4.76c6.51,3.6,11.95,7.74,15.28,11.33c1.7,1.76,2.89,3.35,3.67,4.47c0.74,1.15,1.11,1.8,1.04,1.85
					c-0.19,0.14-1.83-2.4-5.32-5.71c-3.43-3.37-8.82-7.31-15.27-10.87c-3.21-1.8-6.35-3.38-9.21-4.81
					c-2.84-1.44-5.48-2.51-7.82-2.84C169.19,877.37,166.57,879.47,166.52,879.26z"/>
			</g>
		</g>
		<g>
			<g>
				<path class="st7" d="M174.2,794.46c0.09,0.41-9.17,1.08-19.1,6.22c-10,5.02-15.97,12.12-16.25,11.81
					c-0.11-0.09,1.23-1.96,3.89-4.55c2.66-2.58,6.74-5.77,11.8-8.36c5.06-2.57,10.04-4.01,13.69-4.65
					C171.89,794.3,174.19,794.33,174.2,794.46z"/>
			</g>
		</g>
		<g>
			<g>
				<path class="st7" d="M173.8,793.4c-0.14,0.08-1.19-1.42-2.59-4.03c-1.4-2.6-3.11-6.33-4.55-10.62
					c-1.43-4.29-2.32-8.29-2.77-11.22c-0.45-2.92-0.52-4.76-0.36-4.78c0.37-0.05,1.43,7.15,4.29,15.6
					C170.64,786.83,174.13,793.22,173.8,793.4z"/>
			</g>
		</g>
		<g>
			<g>
				<path class="st7" d="M170.21,729.9c-0.19,0.35-7.1-3.92-16.66-6.41c-9.54-2.58-17.66-2.29-17.65-2.69
					c-0.01-0.15,2.01-0.41,5.29-0.34c3.28,0.07,7.82,0.56,12.67,1.84c4.85,1.29,9.04,3.11,11.92,4.68
					C168.67,728.55,170.29,729.78,170.21,729.9z"/>
			</g>
		</g>
		<g>
			<g>
				<path class="st7" d="M193.69,661.68c0.1,0.16-1.94,1.57-5.15,3.95c-3.21,2.38-7.56,5.79-12.07,9.88
					c-4.51,4.1-8.32,8.09-11.01,11.06c-2.68,2.96-4.29,4.86-4.44,4.74c-0.12-0.09,1.24-2.18,3.78-5.31
					c2.53-3.13,6.28-7.26,10.84-11.4c4.56-4.13,9.03-7.46,12.39-9.68C191.4,662.7,193.61,661.55,193.69,661.68z"/>
			</g>
		</g>
		<g>
			<g>
				<path class="st7" d="M160.68,687.11c-0.11,0.16-2.15-1.15-5.57-3.03c-3.41-1.88-8.25-4.25-13.84-6.26
					c-5.59-1.99-10.84-3.23-14.67-3.93c-3.83-0.71-6.24-1-6.22-1.19c0.01-0.15,2.45-0.17,6.36,0.33c3.91,0.49,9.27,1.61,14.95,3.63
					c5.67,2.03,10.53,4.57,13.86,6.66C158.89,685.42,160.76,686.99,160.68,687.11z"/>
			</g>
		</g>
		<g>
			<g>
				<path class="st7" d="M174.73,628.44c0.26,0.26-4.92,5.53-10.28,12.84c-5.4,7.29-8.9,13.8-9.23,13.62
					c-0.14-0.07,0.55-1.8,1.96-4.45c1.4-2.65,3.56-6.21,6.28-9.9c2.72-3.69,5.48-6.8,7.6-8.92
					C173.18,629.5,174.62,628.33,174.73,628.44z"/>
			</g>
		</g>
		<g>
			<g>
				<path class="st7" d="M154.37,640.38c-0.18,0.09-1.08-1.66-2.87-4.24c-1.77-2.59-4.55-5.94-8.02-9.25
					c-3.48-3.31-6.88-6.06-9.32-8.08c-2.45-2.02-3.93-3.3-3.83-3.44c0.1-0.13,1.77,0.91,4.36,2.76c2.58,1.85,6.1,4.52,9.64,7.89
					c3.54,3.37,6.29,6.9,7.91,9.67C153.87,638.43,154.5,640.33,154.37,640.38z"/>
			</g>
		</g>
		<g>
			<g>
				<path class="st7" d="M138.71,762.89c0.09,0.39-7.43,1.66-15.59,6c-8.21,4.26-13.52,9.74-13.78,9.44
					c-0.11-0.1,1.08-1.6,3.35-3.67c2.27-2.07,5.69-4.66,9.86-6.85c4.17-2.19,8.24-3.55,11.24-4.24
					C136.78,762.87,138.68,762.74,138.71,762.89z"/>
			</g>
		</g>
		<g>
			<g>
				<path class="st7" d="M88.12,744.58c0.03,0.38-7.43,0.81-16.25,3.2c-8.84,2.33-15.52,5.68-15.68,5.34
					c-0.07-0.14,1.51-1.15,4.24-2.46c2.73-1.31,6.64-2.86,11.12-4.06c4.48-1.19,8.64-1.8,11.66-2.03
					C86.24,744.34,88.11,744.43,88.12,744.58z"/>
			</g>
		</g>
		<g>
			<g>
				<path class="st7" d="M103.29,748.03c-0.3,0.16-2.64-3.52-5.24-8.24c-2.6-4.71-4.46-8.67-4.16-8.83c0.3-0.16,2.64,3.52,5.24,8.24
					C101.72,743.91,103.58,747.86,103.29,748.03z"/>
			</g>
		</g>
		<g>
			<g>
				<path class="st47" d="M120.43,753.18c-2.84-3.05-5.15-5.98-6.15-10.03c-0.3-1.24-0.49-2.63,0.15-3.73
					c0.84-1.44,2.85-1.82,4.43-1.29c1.58,0.53,2.81,1.75,3.95,2.96c4.85,5.15,9.74,13.44,13.33,19.53"/>
			</g>
		</g>
	</g>
	<g>
		<path class="st27" d="M242.22,1013.91h-60.38c-12.32,0-22.31-9.99-22.31-22.31v-75.33h105v75.33
			C264.53,1003.92,254.54,1013.91,242.22,1013.91z"/>
	</g>
	<g>
		<g>
			<path class="st7" d="M264.43,948.01c-0.03,0.08-1.48-0.38-4.08-1.23c-2.61-0.83-6.36-2.12-11.09-3.29
				c-4.71-1.15-10.5-2.23-16.87-1.69c-3.19,0.25-6.45,1.02-9.72,2.23c-3.28,1.2-6.57,2.75-10.06,4.17
				c-3.47,1.42-7.04,2.58-10.63,2.98c-3.6,0.38-7.08,0-10.28-0.69c-6.41-1.43-11.81-3.7-16.47-5.15c-4.64-1.5-8.52-2.25-11.23-2.43
				c-1.36-0.14-2.41-0.11-3.13-0.1c-0.72,0-1.1-0.03-1.11-0.07c0-0.04,0.37-0.1,1.09-0.18c0.72-0.09,1.79-0.19,3.17-0.13
				c2.76,0.04,6.75,0.67,11.46,2.08c4.72,1.36,10.17,3.54,16.44,4.87c3.13,0.64,6.49,0.99,9.92,0.6c3.43-0.39,6.87-1.51,10.31-2.92
				c3.44-1.4,6.76-2.95,10.11-4.16c3.34-1.22,6.76-2,10.04-2.22c6.58-0.48,12.45,0.71,17.18,1.98c4.76,1.29,8.47,2.7,11.04,3.68
				c1.28,0.5,2.27,0.9,2.93,1.18C264.11,947.8,264.45,947.97,264.43,948.01z"/>
		</g>
	</g>
	<g>
		<g>
			<path class="st7" d="M264.43,941.69c-0.03,0.08-1.48-0.38-4.08-1.23c-2.61-0.83-6.36-2.12-11.09-3.29
				c-4.71-1.15-10.5-2.22-16.87-1.69c-3.19,0.25-6.45,1.02-9.72,2.23c-3.28,1.2-6.57,2.75-10.06,4.17
				c-3.47,1.42-7.04,2.58-10.63,2.98c-3.6,0.38-7.08,0-10.28-0.69c-6.41-1.43-11.81-3.7-16.47-5.15c-4.64-1.5-8.52-2.25-11.23-2.43
				c-1.36-0.14-2.41-0.11-3.13-0.1c-0.72,0-1.1-0.03-1.11-0.07c0-0.04,0.37-0.1,1.09-0.18c0.72-0.09,1.79-0.19,3.17-0.13
				c2.76,0.04,6.75,0.67,11.46,2.08c4.72,1.36,10.17,3.54,16.44,4.87c3.13,0.64,6.49,0.99,9.92,0.6c3.43-0.39,6.87-1.51,10.31-2.92
				c3.44-1.4,6.76-2.95,10.11-4.16c3.34-1.22,6.76-2,10.04-2.23c6.58-0.48,12.45,0.71,17.18,1.98c4.76,1.29,8.47,2.7,11.04,3.68
				c1.28,0.5,2.27,0.9,2.93,1.18C264.11,941.48,264.45,941.65,264.43,941.69z"/>
		</g>
	</g>
</g>
<g>
	<circle class="st68" cx="478.21" cy="273.03" r="185.34"/>
	<circle class="st32" cx="478.21" cy="273.03" r="157.97"/>
	<line class="st69" x1="482" y1="280.91" x2="481" y2="279.52"/>
	<path class="st2" d="M484.78,291.94c-2.3,0.31-4.71-0.19-6.76-1.61l-1.15-0.93l-0.96-0.78l-91.63-74.39l101.37,58.24l87.05-14.28
		l-83.74,32.15L484.78,291.94z"/>
	<path class="st2" d="M480.58,284.85l1.83-0.15C481.82,284.8,481.21,284.85,480.58,284.85z"/>
	<path class="st2" d="M482.41,262.61l-1.83-0.15C481.21,262.46,481.82,262.51,482.41,262.61z"/>
	<line class="st69" x1="482" y1="280.91" x2="481" y2="279.52"/>
	<path class="st2" d="M478.92,284.75c1.72,0.24,3.5,0.06,5.15-0.52L478.92,284.75z"/>
	<g>
		<rect x="473.18" y="128.12" class="st2" width="4.58" height="22.91"/>
		
			<rect x="568.35" y="165.27" transform="matrix(0.7071 0.7071 -0.7071 0.7071 292.1047 -351.7427)" class="st2" width="4.58" height="22.91"/>
		
			<rect x="609.38" y="258.84" transform="matrix(4.604831e-11 1 -1 4.604831e-11 881.9647 -341.3713)" class="st2" width="4.58" height="22.91"/>
		
			<rect x="572.22" y="354.01" transform="matrix(-0.7071 0.7071 -0.7071 -0.7071 1239.183 217.6474)" class="st2" width="4.58" height="22.91"/>
		
			<rect x="478.66" y="395.04" transform="matrix(-1 9.011135e-11 -9.011135e-11 -1 961.8976 812.983)" class="st2" width="4.58" height="22.91"/>
		
			<rect x="383.49" y="357.88" transform="matrix(-0.7071 -0.7071 0.7071 -0.7071 397.4033 903.2874)" class="st2" width="4.58" height="22.91"/>
		
			<rect x="342.46" y="264.32" transform="matrix(-1.349693e-10 -1 1 -1.349693e-10 68.9816 620.5264)" class="st2" width="4.58" height="22.91"/>
		
			<rect x="379.62" y="169.15" transform="matrix(0.7071 -0.7071 0.7071 0.7071 -15.8471 322.946)" class="st2" width="4.58" height="22.91"/>
	</g>
</g>
<g>
	<g>
		<g>
			<g>
				<g>
					<g>
						<g>
							<g>
								<polygon class="st11" points="451.23,935 451.23,1010.98 562.33,1010.98 684.88,1010.98 684.88,935 								"/>
							</g>
						</g>
					</g>
				</g>
			</g>
			<g>
				<g>
					<g>
						<g>
							<g>
								<polygon class="st2" points="441.43,913.76 441.43,935 693.05,935 693.05,913.76 562.33,913.76 								"/>
							</g>
						</g>
					</g>
				</g>
			</g>
			<g>
				<g>
					<g>
						<g>
							<g>
								<polygon class="st2" points="567.24,1010.98 684.88,1010.98 684.88,935 693.05,935 693.05,913.76 562.33,913.76 
									562.33,933.03 								"/>
							</g>
						</g>
					</g>
				</g>
			</g>
			<g>
				<g>
					<g>
						<g>
							<g>
								<rect x="483.91" y="947.25" class="st2" width="47.38" height="11.44"/>
							</g>
						</g>
					</g>
				</g>
			</g>
			<g>
				<g>
					<g>
						<g>
							<g>
								<rect x="477.81" y="972.99" class="st32" width="60.84" height="24.15"/>
							</g>
						</g>
					</g>
				</g>
			</g>
		</g>
	</g>
	<g>
		<g>
			<g>
				<g>
					<g>
						<g>
							<g>
								<polygon class="st11" points="472.69,837.85 472.69,913.83 583.8,913.83 706.34,913.83 706.34,837.85 								"/>
							</g>
						</g>
					</g>
				</g>
			</g>
			<g>
				<g>
					<g>
						<g>
							<g>
								<polygon class="st2" points="462.89,816.61 462.89,837.85 714.51,837.85 714.51,816.61 583.8,816.61 								"/>
							</g>
						</g>
					</g>
				</g>
			</g>
			<g>
				<g>
					<g>
						<g>
							<g>
								<polygon class="st2" points="588.7,913.83 706.34,913.83 706.34,837.85 714.51,837.85 714.51,816.61 583.8,816.61 
									583.8,835.88 								"/>
							</g>
						</g>
					</g>
				</g>
			</g>
			<g>
				<g>
					<g>
						<g>
							<g>
								<rect x="505.37" y="850.1" class="st2" width="47.38" height="11.44"/>
							</g>
						</g>
					</g>
				</g>
			</g>
			<g>
				<g>
					<g>
						<g>
							<g>
								<rect x="499.27" y="875.84" class="st32" width="60.84" height="24.15"/>
							</g>
						</g>
					</g>
				</g>
			</g>
		</g>
	</g>
</g>
<g>
	<rect x="934.65" y="515.29" class="st70" width="282.82" height="141.58"/>
	<line class="st70" x1="934.65" y1="609.56" x2="1217.47" y2="609.56"/>
	<line class="st70" x1="934.65" y1="562.42" x2="1217.47" y2="562.42"/>
	<line class="st70" x1="1170.33" y1="515.29" x2="1170.33" y2="656.87"/>
	<line class="st70" x1="1123.19" y1="515.29" x2="1123.19" y2="656.87"/>
	<line class="st70" x1="1076.06" y1="515.29" x2="1076.06" y2="656.87"/>
	<line class="st70" x1="1028.92" y1="515.29" x2="1028.92" y2="656.87"/>
	<line class="st70" x1="981.78" y1="515.29" x2="981.78" y2="656.87"/>
</g>
<g>
	<g>
		<path class="st7" d="M1691.42,1015.22c0,0.68-370.51,1.22-827.46,1.22c-457.1,0-827.54-0.55-827.54-1.22s370.43-1.22,827.54-1.22
			C1320.91,1013.99,1691.42,1014.54,1691.42,1015.22z"/>
	</g>
</g>
<g>
	<g>
		<g>
			<rect x="1386.06" y="667.27" class="st71" width="177.12" height="228.35"/>
		</g>
		<g>
			<rect x="1327.78" y="667.27" class="st72" width="177.12" height="228.35"/>
		</g>
		<linearGradient id="SVGID_2_" gradientUnits="userSpaceOnUse" x1="1445.4786" y1="654.8628" x2="1445.4786" y2="969.8565">
			<stop  offset="0" style="stop-color:#FAFAFA;stop-opacity:0.2"/>
			<stop  offset="1" style="stop-color:#001D6F;stop-opacity:0.3"/>
		</linearGradient>
		<polygon style="opacity:0.5;fill-rule:evenodd;clip-rule:evenodd;fill:url(#SVGID_2_);" points="1504.9,667.27 1386.06,667.27 
			1327.78,667.27 1327.78,895.62 1386.06,895.62 1504.9,895.62 1563.18,895.62 1563.18,667.27 		"/>
		<g>
			<g>
				<g>
					<path class="st74" d="M1363.95,689.35v-9.91h-16.72v9.91c0,4.24,3.2,7.76,7.3,8.28l0,8.63h-3.72c-1.3,0-2.37,0.75-2.37,1.66
						h14.29c0-0.91-1.07-1.66-2.37-1.66h-3.72v-8.63C1360.75,697.11,1363.95,693.59,1363.95,689.35z"/>
				</g>
				<g>
					<path class="st74" d="M1395.96,688.69c-1.31-5.29-6.11-9.25-11.78-9.25h0c-5.68,0-10.48,3.96-11.78,9.25h10.66v15.54
						c-0.1,1.21-1.11,2.17-2.35,2.17c-1.24,0-2.26-0.95-2.36-2.17h-2.27c0.1,2.47,2.13,4.44,4.62,4.44c2.49,0,4.52-1.97,4.62-4.44
						v-15.54H1395.96z"/>
				</g>
			</g>
			<g>
				<g>
					<path class="st32" d="M1563.62,776.54c0,0.3-53.16,0.54-118.72,0.54c-65.58,0-118.73-0.24-118.73-0.54
						c0-0.3,53.15-0.54,118.73-0.54C1510.46,776,1563.62,776.24,1563.62,776.54z"/>
				</g>
			</g>
			<g>
				<g>
					<path class="st32" d="M1416.34,896.57c-0.3,0-0.54-51.41-0.54-114.8c0-63.42,0.24-114.82,0.54-114.82
						c0.3,0,0.54,51.4,0.54,114.82C1416.88,845.16,1416.64,896.57,1416.34,896.57z"/>
				</g>
			</g>
		</g>
	</g>
	<g>
		<g>
			<g>
				<g>
					<g>
						<g>
							<g>
								<g>
									<g>
										<polygon class="st11" points="946.21,935 946.21,1010.98 1057.31,1010.98 1179.86,1010.98 1179.86,935 										"/>
									</g>
								</g>
							</g>
						</g>
					</g>
					<g>
						<g>
							<g>
								<g>
									<g>
										<polygon class="st2" points="936.41,913.76 936.41,935 1188.03,935 1188.03,913.76 1057.31,913.76 										"/>
									</g>
								</g>
							</g>
						</g>
					</g>
					<g>
						<g>
							<g>
								<g>
									<g>
										<polygon class="st2" points="1062.22,1010.98 1179.86,1010.98 1179.86,935 1188.03,935 1188.03,913.76 1057.31,913.76 
											1057.31,933.03 										"/>
									</g>
								</g>
							</g>
						</g>
					</g>
					<g>
						<g>
							<g>
								<g>
									<g>
										<rect x="978.89" y="947.25" class="st2" width="47.38" height="11.44"/>
									</g>
								</g>
							</g>
						</g>
					</g>
					<g>
						<g>
							<g>
								<g>
									<g>
										<rect x="972.79" y="972.99" class="st32" width="60.84" height="24.15"/>
									</g>
								</g>
							</g>
						</g>
					</g>
				</g>
			</g>
			<g>
				<g>
					<g>
						<g>
							<g>
								<g>
									<g>
										<polygon class="st11" points="967.67,837.85 967.67,913.83 1078.78,913.83 1201.32,913.83 1201.32,837.85 										"/>
									</g>
								</g>
							</g>
						</g>
					</g>
					<g>
						<g>
							<g>
								<g>
									<g>
										<polygon class="st2" points="957.87,816.61 957.87,837.85 1209.49,837.85 1209.49,816.61 1078.78,816.61 										"/>
									</g>
								</g>
							</g>
						</g>
					</g>
					<g>
						<g>
							<g>
								<g>
									<g>
										<polygon class="st2" points="1083.68,913.83 1201.32,913.83 1201.32,837.85 1209.49,837.85 1209.49,816.61 
											1078.78,816.61 1078.78,835.88 										"/>
									</g>
								</g>
							</g>
						</g>
					</g>
					<g>
						<g>
							<g>
								<g>
									<g>
										<rect x="1000.35" y="850.1" class="st2" width="47.38" height="11.44"/>
									</g>
								</g>
							</g>
						</g>
					</g>
					<g>
						<g>
							<g>
								<g>
									<g>
										<rect x="994.25" y="875.84" class="st32" width="60.84" height="24.15"/>
									</g>
								</g>
							</g>
						</g>
					</g>
				</g>
			</g>
		</g>
		<g>
			<g>
				<rect x="1210.34" y="746.05" class="st71" width="148.78" height="148.78"/>
			</g>
		</g>
		<g>
			<rect x="1151.41" y="746.05" class="st72" width="148.78" height="148.78"/>
		</g>
		<linearGradient id="SVGID_3_" gradientUnits="userSpaceOnUse" x1="1255.2662" y1="726.6033" x2="1255.2662" y2="920.2603">
			<stop  offset="0" style="stop-color:#FAFAFA;stop-opacity:0.2"/>
			<stop  offset="1" style="stop-color:#001D6F;stop-opacity:0.3"/>
		</linearGradient>
		<polygon style="opacity:0.5;fill-rule:evenodd;clip-rule:evenodd;fill:url(#SVGID_3_);" points="1300.19,746.05 1210.34,746.05 
			1151.41,746.05 1151.41,894.83 1210.34,894.83 1300.19,894.83 1359.12,894.83 1359.12,746.05 		"/>
		<g>
			<polygon class="st74" points="1191.55,771.17 1195.78,771.17 1192.14,764.48 1188.49,757.79 1184.84,764.48 1181.19,771.17 
				1185.43,771.17 1185.43,787.99 1175.01,787.99 1175.01,771.17 1179.24,771.17 1175.6,764.48 1171.95,757.79 1168.3,764.48 
				1164.66,771.17 1168.89,771.17 1168.89,787.99 1166.43,787.99 1166.43,790.33 1194.01,790.33 1194.01,787.99 1191.55,787.99 			
				"/>
		</g>
		<g>
			<g>
				<path class="st32" d="M1227.46,894.62c-0.3,0-0.54-33.01-0.54-73.72c0-40.72,0.24-73.73,0.54-73.73c0.3,0,0.54,33,0.54,73.73
					C1228,861.61,1227.75,894.62,1227.46,894.62z"/>
			</g>
		</g>
		<g>
			<g>
				<path class="st32" d="M1360.55,820.24c0,0.3-47.13,0.54-105.25,0.54c-58.14,0-105.26-0.24-105.26-0.54
					c0-0.3,47.12-0.54,105.26-0.54C1313.42,819.7,1360.55,819.95,1360.55,820.24z"/>
			</g>
		</g>
	</g>
</g>
<g>
	<linearGradient id="SVGID_4_" gradientUnits="userSpaceOnUse" x1="693.3533" y1="952.4566" x2="1691.0939" y2="952.4566">
		<stop  offset="0" style="stop-color:#75D6CC"/>
		<stop  offset="1" style="stop-color:#19A1CC"/>
	</linearGradient>
	<path style="fill-rule:evenodd;clip-rule:evenodd;fill:url(#SVGID_4_);" d="M1633.09,1010.46H751.35c-32.03,0-58-25.97-58-58l0,0
		c0-32.03,25.97-58,58-58h881.74c32.03,0,58,25.97,58,58l0,0C1691.09,984.49,1665.13,1010.46,1633.09,1010.46z"/>
</g>
<g class="st77">
	<linearGradient id="SVGID_5_" gradientUnits="userSpaceOnUse" x1="1195.0875" y1="930.064" x2="1195.0875" y2="979.0359">
		<stop  offset="0" style="stop-color:#007759"/>
		<stop  offset="1" style="stop-color:#000000"/>
	</linearGradient>
	<path style="fill-rule:evenodd;clip-rule:evenodd;fill:url(#SVGID_5_);" d="M1638.42,985.33H751.75
		c-18.15,0-32.87-14.72-32.87-32.87l0,0c0-18.15,14.72-32.87,32.87-32.87h886.67c18.15,0,32.87,14.72,32.87,32.87l0,0
		C1671.29,970.61,1656.58,985.33,1638.42,985.33z"/>
</g>
<g>
	<g>
		<g>
			<path class="st79" d="M782.99,952.46c-0.16,0.01,0.01-2.41-1.05-6.54c-1.04-4.05-3.75-10.01-9.84-14.61
				c-3.02-2.25-6.82-4.16-11.2-4.92c-4.35-0.74-9.26-0.59-13.92,1.19c-2.35,0.82-4.61,2.06-6.69,3.61
				c-2.11,1.53-4.02,3.43-5.59,5.63c-3.25,4.33-5.09,9.9-5.14,15.64c0.05,5.74,1.88,11.31,5.14,15.64c1.57,2.2,3.49,4.1,5.59,5.63
				c2.08,1.56,4.35,2.8,6.7,3.62c4.67,1.78,9.57,1.93,13.92,1.19c4.38-0.76,8.18-2.67,11.2-4.92c6.09-4.6,8.8-10.56,9.84-14.61
				C783,954.86,782.83,952.44,782.99,952.46c0.04,0,0.04,0.59,0.02,1.73c0,0.57-0.02,1.27-0.16,2.09c-0.11,0.82-0.21,1.78-0.5,2.82
				c-0.93,4.14-3.58,10.3-9.79,15.12c-3.07,2.35-6.98,4.37-11.5,5.2c-4.49,0.8-9.57,0.69-14.43-1.13c-2.44-0.84-4.8-2.11-6.97-3.72
				c-2.19-1.58-4.18-3.55-5.83-5.83c-3.4-4.5-5.32-10.3-5.37-16.27c0.05-5.97,1.97-11.77,5.37-16.26c1.64-2.28,3.64-4.25,5.83-5.83
				c2.17-1.61,4.53-2.88,6.97-3.72c4.86-1.82,9.94-1.94,14.43-1.13c4.52,0.83,8.42,2.84,11.5,5.19c6.21,4.82,8.85,10.97,9.79,15.12
				c0.29,1.04,0.39,2,0.5,2.82c0.14,0.82,0.16,1.52,0.16,2.09C783.04,951.86,783.03,952.46,782.99,952.46z"/>
		</g>
	</g>
	<g>
		<circle class="st80" cx="756" cy="952.46" r="9.75"/>
	</g>
</g>
<g>
	<g>
		<g>
			<path class="st79" d="M1662.98,952.46c-0.16,0.01,0.01-2.41-1.05-6.54c-1.04-4.05-3.75-10.01-9.84-14.61
				c-3.02-2.25-6.82-4.16-11.2-4.92c-4.35-0.74-9.26-0.59-13.92,1.19c-2.35,0.82-4.61,2.06-6.69,3.61
				c-2.11,1.53-4.02,3.43-5.59,5.63c-3.25,4.33-5.09,9.9-5.14,15.64c0.05,5.74,1.88,11.31,5.14,15.64c1.57,2.2,3.49,4.1,5.59,5.63
				c2.08,1.56,4.35,2.8,6.7,3.62c4.67,1.78,9.57,1.93,13.92,1.19c4.38-0.76,8.18-2.67,11.2-4.92c6.09-4.6,8.8-10.56,9.84-14.61
				C1662.99,954.86,1662.82,952.44,1662.98,952.46c0.04,0,0.04,0.59,0.02,1.73c0,0.57-0.03,1.27-0.16,2.09
				c-0.11,0.82-0.21,1.78-0.5,2.82c-0.93,4.14-3.58,10.3-9.79,15.12c-3.07,2.35-6.98,4.37-11.5,5.2c-4.49,0.8-9.57,0.69-14.43-1.13
				c-2.44-0.84-4.8-2.11-6.97-3.72c-2.19-1.58-4.19-3.55-5.83-5.83c-3.39-4.5-5.32-10.3-5.37-16.27c0.05-5.97,1.97-11.77,5.37-16.26
				c1.64-2.28,3.64-4.25,5.83-5.83c2.17-1.61,4.53-2.88,6.97-3.72c4.86-1.82,9.94-1.94,14.43-1.13c4.52,0.83,8.42,2.84,11.5,5.19
				c6.21,4.82,8.85,10.97,9.79,15.12c0.29,1.04,0.39,2,0.5,2.82c0.14,0.82,0.16,1.52,0.16,2.09
				C1663.03,951.86,1663.02,952.46,1662.98,952.46z"/>
		</g>
	</g>
	<g>
		<circle class="st80" cx="1635.99" cy="952.46" r="9.75"/>
	</g>
</g>
<g>
	<g>
		<path class="st79" d="M1638.47,925.19c0,0.3-197.56,0.54-441.21,0.54c-243.74,0-441.26-0.24-441.26-0.54
			c0-0.3,197.52-0.54,441.26-0.54C1440.91,924.65,1638.47,924.89,1638.47,925.19z"/>
	</g>
</g>
<g>
	<g>
		<path class="st79" d="M1638.47,979.45c0,0.3-196.74,0.54-439.39,0.54c-242.72,0-439.43-0.24-439.43-0.54s196.7-0.54,439.43-0.54
			C1441.73,978.91,1638.47,979.15,1638.47,979.45z"/>
	</g>
</g>
<g>
	<g>
		<g>
			<g>
				<path class="st81" d="M257.55,945.38l-11.44,48.68l-22.63,38.84c-1.63,2.8-0.55,6.39,2.35,7.83l0,0
					c1.63,0.8,3.52,0.78,5.12-0.08c10.16-5.48,47.44-25.83,48.2-29.76c0.88-4.55,15.62-55.78,15.62-55.78L257.55,945.38z"/>
			</g>
			<g>
				<path class="st82" d="M225.84,1040.72l54.3-33.4l-0.62,2.23c-0.53,1.93-1.72,3.61-3.38,4.73c-4.43,3-16.83,11.03-45.03,26.4
					C229.48,1041.58,227.49,1041.59,225.84,1040.72L225.84,1040.72z"/>
			</g>
			<g>
				<g>
					<path class="st82" d="M274.03,987.36c-1.57,0.55-2.55,2.42-2.07,4.01c0.48,1.59,2.38,2.61,3.96,2.09
						c1.58-0.52,2.83-2.73,2.17-4.26c-0.66-1.53-2.95-2.6-4.36-1.71"/>
				</g>
			</g>
			<g>
				<g>
					<path class="st7" d="M244.22,1021.05c-0.34,0.06-0.76-3.02-3.48-5.37c-2.65-2.43-5.76-2.49-5.74-2.83
						c-0.01-0.14,0.77-0.37,2.05-0.2c1.27,0.16,3,0.82,4.49,2.14c1.48,1.32,2.34,2.96,2.65,4.21
						C244.5,1020.25,244.36,1021.05,244.22,1021.05z"/>
				</g>
			</g>
			<g>
				<g>
					<path class="st7" d="M238.53,1027.06c-0.31,0.16-1.53-2.02-4.04-3.55c-2.47-1.59-4.96-1.73-4.96-2.08
						c-0.08-0.31,2.76-0.73,5.59,1.07C237.97,1024.26,238.84,1027,238.53,1027.06z"/>
				</g>
			</g>
			<g>
				<g>
					<path class="st7" d="M253.7,1013.95c-0.32,0.18-2.17-3.18-5.86-5.9c-3.65-2.78-7.39-3.62-7.3-3.98
						c-0.01-0.3,4.1,0.05,8.02,3.02C252.51,1010.02,253.99,1013.87,253.7,1013.95z"/>
				</g>
			</g>
			<g>
				<g>
					<path class="st7" d="M259.1,998.19c-0.23,0.28-2.8-1.74-6.54-2.92c-3.73-1.23-7-1.1-7.02-1.46c-0.07-0.3,3.38-1,7.39,0.32
						C256.94,995.41,259.33,997.99,259.1,998.19z"/>
				</g>
			</g>
			<g>
				<g>
					<path class="st7" d="M263.41,982.75c-0.25,0.26-2.69-2.3-6.73-3.23c-4.03-1.01-7.36,0.17-7.46-0.18c-0.06-0.13,0.7-0.64,2.11-1
						c1.4-0.37,3.46-0.51,5.63,0.01c2.17,0.53,3.95,1.58,5.03,2.54C263.07,981.86,263.52,982.65,263.41,982.75z"/>
				</g>
			</g>
			<g>
				<g>
					<path class="st7" d="M257.58,976.61c-0.07-0.02,0.01-0.76,0.48-2.01c0.47-1.24,1.36-3.02,3.02-4.78
						c0.84-0.82,1.78-1.91,3.44-2.2c0.83-0.15,1.88,0.29,2.31,1.16c0.43,0.85,0.39,1.77,0.18,2.61c-0.98,3.33-4.74,5.76-8.63,5.21
						c-3.89-0.63-6.71-3.73-7.41-7.03c-0.12-0.84-0.09-1.82,0.56-2.59c0.65-0.79,1.82-0.85,2.54-0.51c1.5,0.67,2.24,1.84,2.97,2.76
						c1.41,1.96,2.11,3.8,2.46,5.08c0.35,1.29,0.37,2.03,0.31,2.04c-0.22,0.09-0.62-2.95-3.44-6.61c-0.73-0.86-1.55-1.93-2.65-2.34
						c-0.53-0.21-1.07-0.12-1.38,0.27c-0.32,0.37-0.39,1.06-0.27,1.73c0.61,2.71,3.2,5.54,6.49,6.02c3.27,0.5,6.58-1.64,7.39-4.31
						c0.19-0.65,0.19-1.34-0.05-1.82c-0.24-0.47-0.73-0.72-1.27-0.66c-1.14,0.13-2.13,1.05-2.95,1.81
						C258.4,973.67,257.8,976.73,257.58,976.61z"/>
				</g>
			</g>
		</g>
		<g class="st28">
			<polygon points="293.1,960.91 291.02,968.19 254.1,960.07 255.34,954.77 			"/>
		</g>
	</g>
	<g>
		<g>
			<g>
				<path class="st81" d="M404.38,958.08l-2.57,38.89c0,0,38.67,15.67,38.89,22.9l-75.58-2.27l1.51-60.76L404.38,958.08z"/>
			</g>
			<g>
				<g>
					<path class="st82" d="M378.53,993c-1.47,0.36-2.53,1.97-2.24,3.46c0.29,1.49,1.93,2.58,3.41,2.25
						c1.48-0.33,2.81-2.23,2.35-3.67c-0.46-1.45-2.45-2.62-3.81-1.95"/>
				</g>
			</g>
			<g>
				<path class="st82" d="M365.12,1017.61l0.15-6.06l72.56,4.41c0,0,3.32,1.57,2.87,3.92L365.12,1017.61z"/>
			</g>
			<g>
				<g>
					<path class="st7" d="M403.04,996.63c-0.02,0.37-1.87,0.48-3.73,1.61c-1.88,1.08-2.87,2.65-3.2,2.5
						c-0.34-0.08,0.28-2.27,2.54-3.6C400.92,995.78,403.13,996.29,403.04,996.63z"/>
				</g>
			</g>
			<g>
				<g>
					<path class="st7" d="M410.87,1000.14c0.07,0.36-1.54,0.94-2.84,2.46c-1.35,1.48-1.71,3.16-2.08,3.14
						c-0.35,0.05-0.54-2.12,1.11-3.98C408.7,999.88,410.88,999.79,410.87,1000.14z"/>
				</g>
			</g>
			<g>
				<g>
					<path class="st7" d="M415.09,1009.77c-0.34,0.07-0.8-1.79,0.21-3.78c0.99-2,2.76-2.75,2.91-2.43c0.2,0.31-0.95,1.36-1.76,3.01
						C415.61,1008.19,415.46,1009.74,415.09,1009.77z"/>
				</g>
			</g>
			<g>
				<g>
					<path class="st7" d="M402.65,987.7c-0.16,0.33-1.84-0.23-3.93-0.15c-2.09,0.04-3.74,0.69-3.92,0.37
						c-0.21-0.27,1.42-1.59,3.88-1.65C401.14,986.19,402.84,987.41,402.65,987.7z"/>
				</g>
			</g>
		</g>
		<g class="st28">
			<polygon points="404.22,959.47 403.78,966.4 366.42,965.31 366.42,958.43 			"/>
		</g>
		<g>
			<g>
				<path class="st7" d="M403.02,979.84c0,0.15-1.47,0.34-3.78-0.13c-1.15-0.24-2.51-0.66-3.92-1.34c-0.71-0.34-1.43-0.74-2.14-1.22
					c-0.34-0.23-0.75-0.47-1.12-0.92c-0.4-0.4-0.6-1.38-0.11-1.97c0.4-0.57,1.1-0.8,1.64-0.8c0.56,0,1.01,0.12,1.41,0.24
					c0.84,0.23,1.62,0.53,2.33,0.88c1.42,0.7,2.57,1.57,3.42,2.4c1.7,1.68,2.26,3.07,2.13,3.14c-0.17,0.12-0.99-1.06-2.73-2.46
					c-0.87-0.69-1.99-1.42-3.32-2c-0.67-0.29-1.39-0.54-2.15-0.74c-0.79-0.23-1.48-0.26-1.69,0.09c-0.08,0.13-0.09,0.19,0.07,0.43
					c0.17,0.22,0.48,0.44,0.82,0.68c0.66,0.46,1.32,0.86,1.97,1.2c1.3,0.69,2.55,1.18,3.62,1.51
					C401.61,979.5,403.03,979.64,403.02,979.84z"/>
			</g>
		</g>
		<g>
			<g>
				<path class="st7" d="M402.52,980.36c-0.13,0.05-0.82-1.29-0.89-3.69c-0.03-1.19,0.14-2.62,0.64-4.13
					c0.25-0.75,0.59-1.52,1.03-2.27c0.47-0.73,1.04-1.72,2.47-1.84c0.75-0.01,1.35,0.6,1.55,1.1c0.23,0.52,0.27,0.96,0.35,1.4
					c0.11,0.89,0.07,1.75-0.07,2.55c-0.29,1.6-0.99,2.92-1.73,3.86c-1.54,1.91-3.09,2.31-3.12,2.18c-0.12-0.19,1.19-0.86,2.38-2.71
					c0.58-0.91,1.12-2.12,1.3-3.52c0.1-0.7,0.11-1.44,0-2.19c-0.09-0.81-0.38-1.46-0.68-1.39c-0.38-0.02-1.03,0.57-1.36,1.2
					c-0.41,0.67-0.74,1.35-1,2.02c-0.51,1.35-0.76,2.65-0.85,3.76C402.37,978.91,402.73,980.31,402.52,980.36z"/>
			</g>
		</g>
	</g>
	<g>
		<path class="st7" d="M309.41,325.81c2.46,1.94,2.46,5.85,0.92,8.57c-1.54,2.73-4.21,4.59-6.7,6.48c-2.49,1.89-5.01,4.07-5.99,7.05
			c-1.8,5.49,2.18,11.75,0.04,17.11c-1.87,4.68-7.61,6.65-10.15,11c-2.61,4.47-1.18,10.15,0.71,14.96
			c1.89,4.82,4.24,9.87,3.24,14.95c-0.55,2.8-2.11,5.48-1.79,8.32c0.47,4.11,4.61,6.72,8.52,8.08c6.4,2.23,13.38,2.76,20.04,1.53
			c4.83-0.89,9.81-2.96,12.38-7.14c2.21-3.58,2.26-8.05,2.17-12.26c-0.53-24.4-3.55-48.74-9.02-72.53"/>
	</g>
	<g>
		<linearGradient id="SVGID_6_" gradientUnits="userSpaceOnUse" x1="410.6919" y1="410.2336" x2="410.6919" y2="672.1528">
			<stop  offset="0" style="stop-color:#F1F0EF"/>
			<stop  offset="1" style="stop-color:#CFEFFF"/>
		</linearGradient>
		<path class="st15" d="M445.26,492.34l-23.35-55.62c0,0-16.26-50.62-42.16-49.77l-6.24,45.53l35.87,77.27l38.5-16.56"/>
	</g>
	<g>
		<path class="st84" d="M402.04,522.37c0,0,42.17,83.21,41.47,109.23c-0.39,14.48-22.51,328.54-22.51,328.54h-63.63l11.77-327.59
			l-66.76,329.86l-56.34-9.16l44.97-352.74c0,0,7.7-48.01,23.55-67.71L402.04,522.37z"/>
	</g>
	<g>
		<g>
			<path class="st27" d="M370.42,598.13c-0.32-0.01-0.86,7.69-1.22,17.19c-0.36,9.51-0.39,17.22-0.07,17.23
				c0.32,0.01,0.86-7.68,1.22-17.19C370.71,605.86,370.74,598.14,370.42,598.13z"/>
		</g>
	</g>
	<g>
		<g>
			<path class="st27" d="M287.98,630.33c-0.01,0.07,0.69,0.26,1.99,0.45c1.3,0.19,3.21,0.32,5.57,0.21
				c4.69-0.2,11.3-1.73,17.33-5.83c6.02-4.11,9.87-9.71,11.77-13.99c0.97-2.15,1.55-3.98,1.85-5.26c0.3-1.28,0.38-2,0.31-2.02
				c-0.21-0.06-0.8,2.8-2.89,6.93c-2.05,4.1-5.87,9.43-11.69,13.4c-5.82,3.96-12.17,5.57-16.74,5.97
				C290.88,630.61,288.01,630.12,287.98,630.33z"/>
		</g>
	</g>
	<g>
		<g>
			<path class="st27" d="M417.86,600.07c-0.12,0.05,0.57,2.07,2.21,5.11c1.63,3.03,4.32,7.02,7.96,10.83
				c3.66,3.81,7.52,6.66,10.48,8.42c2.96,1.77,4.95,2.55,5.01,2.43c0.21-0.33-7.51-4.1-14.66-11.64
				C421.63,607.75,418.19,599.88,417.86,600.07z"/>
		</g>
	</g>
	<g>
		<g>
			<path class="st27" d="M363.7,959.83c0.02,0,0.06-0.29,0.11-0.86c0.05-0.63,0.12-1.47,0.21-2.54c0.17-2.29,0.4-5.57,0.7-9.76
				c0.57-8.54,1.38-20.8,2.38-35.92c1.9-30.39,4.52-72.28,7.42-118.55c2.81-46.32,5.38-88.23,7.05-118.6
				c0.44-15.22-1.12-27.62-3.79-35.74c-1.31-4.06-3-7-4.48-8.69c-0.67-0.91-1.38-1.41-1.82-1.78c-0.44-0.36-0.68-0.54-0.69-0.52
				c-0.01,0.02,0.2,0.22,0.61,0.61c0.41,0.39,1.08,0.91,1.71,1.84c1.4,1.71,3.01,4.63,4.24,8.68c2.52,8.08,3.95,20.43,3.41,35.58
				c-1.89,30.39-4.49,72.28-7.37,118.56c-2.77,46.28-5.27,88.17-7.09,118.57c-0.85,15.13-1.54,27.4-2.02,35.95
				c-0.21,4.2-0.38,7.48-0.49,9.78c-0.04,1.07-0.08,1.92-0.1,2.54C363.67,959.54,363.68,959.83,363.7,959.83z"/>
		</g>
	</g>
	<g>
		<g>
			<path class="st27" d="M250.28,953.59c0.31,0.04,10.53-72.21,22.83-161.37c12.31-89.18,22.03-161.49,21.72-161.54
				c-0.31-0.04-10.53,72.2-22.84,161.38C259.7,881.22,249.97,953.55,250.28,953.59z"/>
		</g>
	</g>
	<g>
		<linearGradient id="SVGID_7_" gradientUnits="userSpaceOnUse" x1="347.6135" y1="410.2336" x2="347.6135" y2="672.1528">
			<stop  offset="0" style="stop-color:#FFFFFF"/>
			<stop  offset="1" style="stop-color:#CFEFFF"/>
		</linearGradient>
		<path class="st18" d="M315.78,524.67L303.79,464l-9.27-65.27c8.1-7.03,17.78-11.98,29.61-14.1l55.62,2.31l20.96,49.14
			l-2.21,101.61L315.78,524.67z"/>
	</g>
	<g>
		<linearGradient id="SVGID_8_" gradientUnits="userSpaceOnUse" x1="328.0624" y1="401.1784" x2="328.0624" y2="541.1733">
			<stop  offset="0" style="stop-color:#75D6CC"/>
			<stop  offset="1" style="stop-color:#19A1CC"/>
		</linearGradient>
		<path class="st19" d="M319.44,385.65c0,0,26.58,58.96,40.56,62.84c6.26,24.98,11.82,157.08,11.82,157.08l-87.51-3.64l25.9-85.67
			l-10.41-42.98c0,0,11.35-67.96-0.8-79.71C305.86,389.05,311.49,386.15,319.44,385.65z"/>
	</g>
	<g>
		<linearGradient id="SVGID_9_" gradientUnits="userSpaceOnUse" x1="400.6156" y1="401.1784" x2="400.6156" y2="541.1733">
			<stop  offset="0" style="stop-color:#75D6CC"/>
			<stop  offset="1" style="stop-color:#19A1CC"/>
		</linearGradient>
		<path class="st20" d="M373.51,384.63c0,0,2.77,18.64,2.19,34.96c-0.37,10.51-4.67,20.5-11.85,28.18v0l11.6,157.8l61.94-9.03
			c0,0-12.78-39.49-22.96-56.67c0,0-4.85-8.16-13.72-23.61c0,0,6.2-50.35,6.42-57.46c0.09-2.68-16.05-68.92-16.05-68.92
			C385.58,385.65,379.19,383.66,373.51,384.63z"/>
	</g>
	<g>
		
			<radialGradient id="SVGID_10_" cx="356.581" cy="300.6045" r="33.5193" gradientTransform="matrix(1 0 0 0.2208 0 234.2221)" gradientUnits="userSpaceOnUse">
			<stop  offset="0" style="stop-color:#75D6CC"/>
			<stop  offset="1" style="stop-color:#19A1CC"/>
		</radialGradient>
		<path class="st24" d="M390.14,310.43c7.94-2.09,12.81-4.91,12.81-8.03c0-6.42-20.76-11.63-46.37-11.63
			c-25.61,0-46.37,5.21-46.37,11.63c0,3.1,4.82,5.91,12.69,7.99"/>
	</g>
	<g class="st23">
		<path d="M385.72,310.21c7.04-1.85,11.53-4.36,11.36-7.11c-0.5-7.66-18.4-10.31-41.1-10.31s-41.1,4.62-41.1,10.31
			c0,2.74,4.28,5.24,11.25,7.09"/>
	</g>
	<g>
		<path class="st7" d="M323.16,303.84c0.97,3.31-1.44,6.68-4.19,8.75c-2.75,2.07-6.05,3.53-8.19,6.23
			c-2.91,3.69-2.97,9.06-1.18,13.4c1.79,4.35,5.17,7.85,8.71,10.93c2.68,2.33,6.18,4.62,9.54,3.47"/>
	</g>
	<g>
		<linearGradient id="SVGID_11_" gradientUnits="userSpaceOnUse" x1="287.2537" y1="410.2336" x2="287.2537" y2="672.1528">
			<stop  offset="0" style="stop-color:#F1F0EF"/>
			<stop  offset="1" style="stop-color:#CFEFFF"/>
		</linearGradient>
		<path class="st25" d="M299,393.58c1.1,0,5.17,10.37,8.21,19.71c5.44,16.72,3.61,34.97-5.09,50.25l-19.25,33.83l57.94,19.46
			l-8.48,27.13l-81.13-21.76c-7.51-2.01-13.55-7.59-16.15-14.91c-2.33-6.56-1.66-13.81,1.84-19.82l42.28-72.68
			C279.18,414.79,292.92,393.56,299,393.58z"/>
	</g>
	<g>
		<g>
			<g>
				<g>
					<g>
						<g>
							<g>
								<g>
									<g>
										<g>
											<g>
												<path class="st33" d="M323.77,307.91c0.35-17.61,15.17-31.59,32.97-30.7c16.78,0.84,29.69,15.3,29.77,32.1
													c0.07,14.73-0.18,29.54-1.01,34.82c-2.53,15.9-12.75,20.74-16.8,22.06c-0.92,0.3-3.37,0.43-4.34,0.43l0,0
													c-0.06,0-0.11,0.05-0.11,0.11l0.87,18.8c-0.14,12.22-8.39,21.93-20.6,21.93c-12.26,0-20.3-10.57-20.38-22.83
													L323.77,307.91z"/>
											</g>
											<g>
												<g>
													<g>
														<g>
															<g>
																<path class="st7" d="M380.55,317.55c0.05,1.35-1.06,2.51-2.47,2.58c-1.41,0.08-2.59-0.96-2.64-2.31
																	c-0.05-1.35,1.06-2.51,2.47-2.58C379.32,315.17,380.51,316.2,380.55,317.55z"/>
															</g>
														</g>
													</g>
												</g>
												<g>
													<g>
														<g>
															<g>
																<g>
																	<path class="st7" d="M382.21,313.1c-0.32,0.33-2.26-1.1-5.01-1.09c-2.75-0.03-4.77,1.38-5.07,1.05
																		c-0.15-0.15,0.18-0.75,1.06-1.39c0.87-0.64,2.34-1.26,4.06-1.25c1.72,0.01,3.16,0.64,3.99,1.29
																		C382.08,312.35,382.36,312.95,382.21,313.1z"/>
																</g>
															</g>
														</g>
													</g>
												</g>
											</g>
											<g>
												<g>
													<g>
														<g>
															<g>
																<path class="st7" d="M353.63,317.55c0.05,1.35-1.06,2.51-2.47,2.58c-1.41,0.08-2.59-0.96-2.64-2.31
																	c-0.05-1.35,1.06-2.51,2.47-2.58C352.4,315.17,353.58,316.2,353.63,317.55z"/>
															</g>
														</g>
													</g>
												</g>
												<g>
													<g>
														<g>
															<g>
																<g>
																	<path class="st7" d="M355.14,313.62c-0.32,0.33-2.26-1.1-5.01-1.09c-2.75-0.03-4.77,1.38-5.07,1.05
																		c-0.15-0.15,0.17-0.75,1.06-1.39c0.87-0.64,2.34-1.26,4.06-1.25c1.72,0.01,3.16,0.64,3.99,1.29
																		C355.01,312.86,355.29,313.47,355.14,313.62z"/>
																</g>
															</g>
														</g>
													</g>
												</g>
											</g>
											<g>
												<g>
													<g>
														<g>
															<g>
																<path class="st7" d="M365.13,334.04c-0.01-0.16,1.7-0.45,4.47-0.81c0.7-0.07,1.37-0.21,1.49-0.69
																	c0.17-0.51-0.13-1.27-0.47-2.08c-0.66-1.7-1.35-3.49-2.08-5.35c-2.89-7.62-4.98-13.89-4.67-14.01
																	c0.31-0.11,2.9,5.97,5.79,13.6c0.69,1.88,1.36,3.67,1.99,5.39c0.27,0.8,0.72,1.71,0.36,2.76
																	c-0.19,0.53-0.71,0.91-1.16,1.03c-0.45,0.14-0.85,0.15-1.19,0.17C366.88,334.18,365.14,334.19,365.13,334.04z"/>
															</g>
														</g>
													</g>
												</g>
											</g>
											<g>
												<g>
													<g>
														<g>
															<path class="st34" d="M364.24,366.62c0,0-10.63,0.87-23.93-7.12c0,0,4.2,14.06,24.17,12.19L364.24,366.62z"/>
														</g>
													</g>
												</g>
											</g>
											<g>
												<g>
													<g>
														<g>
															<path class="st34" d="M363.97,340.68c-0.99-1.31-2.73-2.03-4.45-1.84c-1.2,0.13-2.4,0.7-3.13,1.68
																c-0.73,0.97-0.88,2.35-0.22,3.28c0.74,1.04,2.3,1.29,3.61,0.91c1.31-0.37,2.45-1.24,3.52-2.1
																c0.3-0.24,0.6-0.49,0.79-0.81c0.19-0.33,0.22-0.75,0-1.03"/>
														</g>
													</g>
												</g>
											</g>
											<g>
												<g>
													<g>
														<g>
															<g>
																<path class="st7" d="M357.03,335.94c0.45-0.03,0.45,2.96,3.01,5.09c2.55,2.13,5.74,1.79,5.76,2.21
																	c0.04,0.19-0.71,0.58-2.05,0.62c-1.32,0.05-3.25-0.38-4.81-1.68c-1.56-1.3-2.23-3.04-2.33-4.26
																	C356.49,336.67,356.82,335.93,357.03,335.94z"/>
															</g>
														</g>
													</g>
												</g>
											</g>
										</g>
									</g>
								</g>
								<g>
									<g>
										<g>
											<g>
												<path class="st7" d="M356.38,308.79c-0.27,0.75-3.02,0.39-6.25,0.78c-3.24,0.32-5.84,1.27-6.27,0.6
													c-0.19-0.32,0.26-1.03,1.32-1.75c1.04-0.72,2.71-1.41,4.65-1.63c1.94-0.21,3.72,0.1,4.89,0.57
													C355.9,307.85,356.49,308.44,356.38,308.79z"/>
											</g>
										</g>
									</g>
								</g>
								<g>
									<g>
										<g>
											<g>
												<path class="st7" d="M381.2,307.48c-0.48,0.63-2.38-0.02-4.66-0.05c-2.28-0.11-4.21,0.42-4.66-0.23
													c-0.19-0.32,0.11-0.94,0.95-1.54c0.83-0.59,2.22-1.07,3.79-1.03c1.57,0.05,2.93,0.62,3.72,1.26
													C381.14,306.53,381.41,307.17,381.2,307.48z"/>
											</g>
										</g>
									</g>
								</g>
							</g>
						</g>
					</g>
				</g>
			</g>
		</g>
		<g>
			<path class="st7" d="M352.73,334.66c-0.24-0.1-0.54,0.11-0.54,0.37c0,0.26,0.31,0.46,0.55,0.36c0.24-0.1,0.3-0.46,0.12-0.64"/>
		</g>
	</g>
	<g>
		<path class="st7" d="M368.91,296.26c-2.9,4.27-7.8,7.11-12.95,7.51c-3.38,0.26-7.22-0.33-9.77,1.9c-1.86,1.63-2.39,4.25-3.21,6.58
			c-1.26,3.54-3.54,6.84-6.82,8.68c-2.57,1.45-5.75,2.05-7.6,4.34c-1.95,2.41-1.76,5.83-1.81,8.93c-0.05,3.1-0.78,6.71-3.57,8.06
			c-0.1-11.3-0.2-22.6-0.3-33.9c-0.01-1.68-0.02-3.41,0.59-4.98c1.37-3.55,5.37-5.23,9.04-6.23c10.39-2.83,21.27-3.17,32.03-3.49"/>
	</g>
	<g>
		<g>
			<g>
				<linearGradient id="SVGID_12_" gradientUnits="userSpaceOnUse" x1="355.3221" y1="251.2576" x2="356.0424" y2="293.7551">
					<stop  offset="0" style="stop-color:#75D6CC"/>
					<stop  offset="1" style="stop-color:#19A1CC"/>
				</linearGradient>
				<path class="st26" d="M396.58,299.39c0,0-6.63-27.26-7.2-28.59c-0.57-1.33-8.34-13.26-26.91-16.67h-15.35
					c0,0-21.79,7.01-25.77,12.32c-3.98,5.31-5.68,31.08-5.68,31.08l43.04-9.36l29.27,7.14L396.58,299.39z"/>
			</g>
			<g>
				<linearGradient id="SVGID_13_" gradientUnits="userSpaceOnUse" x1="355.0502" y1="251.2622" x2="355.7705" y2="293.7597">
					<stop  offset="0" style="stop-color:#75D6CC"/>
					<stop  offset="1" style="stop-color:#19A1CC"/>
				</linearGradient>
				<path class="st29" d="M357.45,251c0.59,0,6.59,0,6.59,0s2.31,2.15,2.62,6.93c0.31,4.77,1.39,37.51,1.39,37.51l-19.24-0.88
					l0.62-40.43l-6.53,1.45l0.21-2.29l1.73-2.04L357.45,251z"/>
			</g>
			<g>
				<path class="st27" d="M388.39,301.81l-0.38-9.91l-28.96-8.63l-36.16,10.65v10.65C322.9,304.58,352.3,289.31,388.39,301.81z"/>
			</g>
			<g>
				<linearGradient id="SVGID_14_" gradientUnits="userSpaceOnUse" x1="354.5227" y1="251.2711" x2="355.243" y2="293.7687">
					<stop  offset="0" style="stop-color:#75D6CC"/>
					<stop  offset="1" style="stop-color:#19A1CC"/>
				</linearGradient>
				<path class="st35" d="M386.21,289.8l1.27,1.23l10.42,6.54c0,0-20.02-5.63-40.74-5.41c-20.72,0.22-44.42,7.21-44.42,7.21
					l13.73-8.26l0,0c4.36-4.66,10.42-7.37,16.81-7.49l26.01-0.51C375.59,283.01,381.68,285.41,386.21,289.8z"/>
			</g>
			<g>
				<g>
					<path class="st7" d="M367.6,282.43c0.32-0.02,0.23-6.22-0.2-13.85c-0.42-7.63-1.03-13.81-1.34-13.79
						c-0.32,0.02-0.23,6.22,0.2,13.85C366.68,276.28,367.28,282.45,367.6,282.43z"/>
				</g>
			</g>
			<g>
				<g>
					<path class="st7" d="M342.88,255.58c-0.01,0.18,2.02-0.18,4.85-0.62c0.58,0.03,1.18,0.55,1.19,1.22
						c-0.03,0.92-0.06,1.87-0.09,2.85c-0.05,2.09-0.1,4.3-0.16,6.61c-0.08,4.69-0.09,8.94-0.04,12.02c0.05,3.08,0.16,4.98,0.32,4.98
						s0.33-1.9,0.49-4.98c0.16-3.07,0.29-7.32,0.37-12.02c0.02-2.32,0.05-4.53,0.07-6.61c0-1-0.01-1.98-0.01-2.92
						c-0.09-1.19-1.17-1.99-2.11-1.96C344.57,254.82,342.9,255.44,342.88,255.58z"/>
				</g>
			</g>
			<g>
				<g>
					<path class="st7" d="M398.55,297.46c0.02-0.03-0.26-0.21-0.81-0.52c-0.55-0.3-1.39-0.7-2.48-1.17
						c-1.09-0.48-2.44-1.01-3.92-1.76c-1.45-0.76-3.09-1.79-4.23-3.48c-1.24-1.59-1.41-4.09-3.13-6.2c-0.81-1.09-2.2-1.8-3.55-2.05
						c-1.38-0.28-2.76-0.3-4.15-0.38c-5.61-0.29-11.79-0.37-18.27-0.19c-6.48,0.17-12.64,0.57-18.24,1.06
						c-2.76,0.23-5.72,0.77-7.65,2.73c-0.93,0.94-1.59,1.98-2.24,2.93c-0.33,0.47-0.65,0.93-0.96,1.38l-0.49,0.65
						c-0.12,0.15-0.28,0.23-0.52,0.38c-3.71,1.91-6.92,3.25-9.01,4.35c-1.06,0.53-1.87,0.97-2.42,1.29
						c-0.54,0.32-0.81,0.5-0.79,0.54c0.04,0.08,1.22-0.49,3.4-1.42c2.17-0.98,5.34-2.17,9.22-4.05c0.22-0.12,0.54-0.3,0.77-0.57
						l0.52-0.66c0.33-0.45,0.66-0.92,1.01-1.39c0.67-0.94,1.33-1.94,2.18-2.76c1.67-1.66,4.34-2.16,7.08-2.36
						c5.58-0.43,11.72-0.8,18.18-0.97c6.45-0.17,12.6-0.12,18.19,0.1c2.75,0.1,5.59,0.09,7.02,1.98c1.54,1.77,1.79,4.28,3.2,6.07
						c1.3,1.82,3.08,2.86,4.6,3.59c1.55,0.72,2.93,1.19,4.04,1.6C397.33,296.97,398.51,297.53,398.55,297.46z"/>
				</g>
			</g>
			<g>
				<g>
					<path class="st7" d="M394.68,298.99c0.02-0.03-0.2-0.22-0.65-0.57c-0.43-0.37-1.14-0.82-2.09-1.31c-1.9-1-4.82-2.1-8.54-2.97
						c-7.43-1.72-18.04-2.82-29.64-1.76c-5.77,0.41-11.3,0.7-16.3,1.41c-5.01,0.77-9.4,1.78-13.1,2.76c-1.84,0.51-3.48,1.05-4.9,1.6
						c-1.42,0.52-2.66,1.14-3.41,1.99c-0.76,0.84-0.98,1.74-0.97,2.32c0.01,0.59,0.18,0.86,0.21,0.85c0.1,0.05-0.4-1.36,1.09-2.86
						c0.72-0.72,1.89-1.24,3.31-1.7c1.42-0.48,3.06-0.96,4.89-1.42c3.66-0.87,8.12-1.8,13.04-2.5c4.95-0.65,10.45-0.9,16.24-1.31
						c11.5-1.05,22-0.09,29.38,1.41c3.7,0.76,6.6,1.72,8.52,2.58C393.68,298.35,394.59,299.11,394.68,298.99z"/>
				</g>
			</g>
			<g>
				<g>
					<path class="st1" d="M364.54,283.72c0-0.03-0.49-0.05-1.37-0.05c-1.16,0.02-2.39,0.04-3.73,0.06c-3.15,0.09-7.5,0.3-12.29,0.7
						c-2.4,0.2-4.68,0.43-6.75,0.66c-2.06,0.26-3.95,0.38-5.48,0.91c-1.54,0.51-2.54,1.48-2.98,2.26c-0.46,0.79-0.43,1.31-0.43,1.31
						c0.05,0.02,0.09-0.49,0.58-1.22c0.47-0.71,1.45-1.59,2.93-2.04c1.47-0.47,3.36-0.56,5.43-0.8c2.13-0.2,4.38-0.4,6.74-0.62
						c4.78-0.4,9.12-0.66,12.27-0.83c1.34-0.07,2.57-0.14,3.72-0.2C364.06,283.79,364.54,283.75,364.54,283.72z"/>
				</g>
			</g>
			<g>
				<g>
					<path class="st1" d="M350.05,279.89c0.03,0,0.1-0.34,0.19-0.97c0.09-0.63,0.2-1.53,0.32-2.66c0.23-2.25,0.47-5.36,0.57-8.81
						c0.1-3.45,0.05-6.57-0.05-8.83c-0.05-1.13-0.11-2.04-0.16-2.67c-0.05-0.63-0.1-0.98-0.13-0.98c-0.03,0-0.05,0.35-0.05,0.98
						c0.01,0.89,0.01,1.77,0.02,2.67c0.02,2.25,0.02,5.37-0.09,8.81c-0.1,3.44-0.28,6.54-0.44,8.79c-0.06,0.9-0.12,1.78-0.17,2.67
						C350.03,279.53,350.02,279.88,350.05,279.89z"/>
				</g>
			</g>
			<g>
				<g>
					<path class="st1" d="M328.38,292.1c-0.01-0.03-0.33,0.07-0.89,0.28c-0.79,0.31-1.57,0.61-2.36,0.92
						c-2.49,1.03-4.99,2.06-7.72,3.19c-1.49,0.65-2.96,1.19-4.18,1.98c-1.22,0.76-2.12,1.85-2.43,2.92
						c-0.33,1.07-0.18,2.01,0.07,2.57c0.27,0.56,0.57,0.75,0.57,0.75c0.03-0.03-0.2-0.27-0.4-0.82c-0.19-0.54-0.28-1.42,0.07-2.4
						c0.32-0.99,1.16-1.95,2.35-2.67c1.17-0.73,2.64-1.26,4.14-1.91c2.71-1.17,5.19-2.25,7.67-3.32c0.77-0.35,1.53-0.7,2.3-1.05
						C328.1,292.29,328.39,292.13,328.38,292.1z"/>
				</g>
			</g>
		</g>
		<g>
			<g>
				<path class="st1" d="M361.27,251.84c0-0.06-1.04-0.1-2.71-0.11c-1.67-0.01-3.98,0.01-6.53,0.05c-2.55,0.1-4.85-0.02-6.55,0.34
					c-0.84,0.2-1.47,0.58-1.78,0.96c-0.31,0.38-0.37,0.65-0.35,0.66c0.04,0.06,0.52-1.04,2.19-1.3c1.6-0.27,3.95-0.1,6.49-0.2
					c2.55-0.05,4.86-0.11,6.53-0.19C360.24,251.98,361.27,251.91,361.27,251.84z"/>
			</g>
		</g>
	</g>
	<g>
		<path class="st7" d="M388.39,301.81c1.96,8.67,1.52,17.97-1.87,26.19c0,0,0.03-8.96-1.5-16.22c-0.45-2.14-1.15-5.77-2.49-7.5
			c-1.69-2.19-4.7-2.73-7.4-3.31c-2.7-0.58-5.72-1.02-6.72-3.6C376.02,297.91,381.76,299.63,388.39,301.81"/>
	</g>
	<g>
		<path class="st7" d="M364.48,371.69c2.65,0.36,6.09,1.24,7.93,3.53c1.84,2.29,3.02,5.17,5.34,6.96c2.19,1.69,5.17,2.21,7.16,4.14
			c3.9,3.77,1.98,10.37,3.68,15.52c0.99,3.01,3.2,5.44,4.91,8.11c1.71,2.67,2.94,6.05,1.71,8.98c-1.01,2.41-3.54,3.94-6.13,4.33
			c-2.59,0.39-5.22-0.21-7.7-1.06c0.1-2.04,0.2-4.08,0.31-6.11c-0.32,1.17-0.66,2.37-1.43,3.31c-0.77,0.93-2.09,1.53-3.22,1.08
			c-1.77-0.71-1.82-3.15-1.64-5.05c0.69-6.99,0.34-14.53-3.63-20.33c-1.88-2.75-5.07-5.65-6.67-8.57L364.48,371.69"/>
	</g>
	<g>
		<g>
			<path class="st33" d="M477.53,481.54c0,0-3.94-8.6-9.67-8.24S446,475.45,446,475.45l-1.79,7.88l35.11-1.79"/>
		</g>
		<g>
			<path class="st93" d="M460.8,481.63l-9.82-30.48c-0.51-1.58-1.98-2.65-3.64-2.65l0,0c-2.54,0-4.37,2.43-3.68,4.87l8.51,29.97
				L460.8,481.63z"/>
		</g>
		<g>
			<polygon class="st7" points="495.81,481.59 400.23,481.59 336.83,567.75 426.24,566.45 			"/>
		</g>
		<g>
			<path class="st33" d="M377.43,513.05c0,0-7.79-0.9-12.79-0.4c-5.01,0.5-23.82,4.76-23.82,4.76l-7.99,24.99l9.34-0.83l6.28,3.03
				c10.01,1.32,21.52,2.66,23.71,2.11c0,0,3.77-2.12,2.64-4.26c0,0,8.54-1.01,7.67-7.79c0,0,4.9-0.88,5.53-6.16l15.66-0.86
				c1.54-0.08,2.79-1.29,2.92-2.83l0,0c0.15-1.76-2.22-2.37-3.98-2.44l-24.4-1.05c-2.9-0.13-4.45-3.46-2.68-5.76L377.43,513.05z"/>
		</g>
	</g>
	<g class="st57">
		<polygon class="st32" points="370.3,573.4 297.64,557.85 289.5,584.74 371.29,593.77 		"/>
	</g>
	<g class="st57">
		<polygon class="st32" points="373.29,572.93 422.12,555.54 433.29,582 374.51,592.86 		"/>
	</g>
	<g>
		<g>
			<path class="st27" d="M310.33,334.38c-0.11-0.07-0.73,1.23-0.19,3.3c0.52,1.98,2.06,4.73,5.16,6.08c3.18,1.04,6.18,0.2,7.93-0.91
				c1.79-1.15,2.29-2.44,2.19-2.48c-0.16-0.13-0.88,0.92-2.59,1.77c-1.64,0.84-4.46,1.43-7.11,0.55c-2.58-1.09-4.17-3.52-4.8-5.25
				C310.24,335.65,310.52,334.41,310.33,334.38z"/>
		</g>
	</g>
	<g>
		<g>
			<path class="st27" d="M310.51,333.78c-0.1,0.07,0.55,1.43,2.38,3.05c0.92,0.78,2.19,1.6,3.8,2.01c1.58,0.42,3.57,0.37,5.29-0.57
				c1.72-0.92,2.93-2.37,3.68-3.81c0.76-1.45,1.09-2.88,1.27-4.07c0.32-2.38,0.12-3.85-0.01-3.85c-0.18-0.01-0.28,1.46-0.79,3.7
				c-0.49,2.17-1.69,5.39-4.68,7.01c-1.45,0.79-3.1,0.87-4.52,0.56c-1.43-0.3-2.62-0.96-3.54-1.62
				C311.55,334.84,310.66,333.66,310.51,333.78z"/>
		</g>
	</g>
	<g>
		<g>
			<path class="st7" d="M300.48,474.81c0.03,0.02,0.24-0.21,0.61-0.67c0.36-0.47,0.92-1.14,1.54-2.08c1.3-1.83,3.03-4.6,4.82-8.21
				c3.6-7.16,7.15-18.03,7.27-30.4c0.12-12.38-3.21-23.31-6.68-30.54c-1.72-3.64-3.4-6.44-4.66-8.3c-0.61-0.95-1.15-1.63-1.5-2.11
				c-0.36-0.47-0.56-0.71-0.6-0.68c-0.08,0.05,0.58,1.1,1.72,3.02c1.14,1.92,2.69,4.76,4.3,8.4c3.24,7.24,6.39,18.03,6.27,30.2
				c-0.11,12.16-3.47,22.89-6.85,30.06c-1.68,3.61-3.28,6.42-4.46,8.32C301.08,473.72,300.4,474.75,300.48,474.81z"/>
		</g>
	</g>
	<g>
		<g>
			<path class="st7" d="M361.93,457.23c0.05-0.07-0.91-0.8-2.61-2.14c-1.7-1.34-4.1-3.36-6.87-6.06
				c-5.57-5.36-12.31-13.76-18.14-24.04c-5.83-10.28-9.95-20.21-12.93-27.37c-1.42-3.44-2.6-6.3-3.51-8.5
				c-0.84-2-1.34-3.1-1.42-3.07c-0.07,0.03,0.29,1.18,1,3.23s1.79,5.01,3.18,8.64c2.8,7.25,6.81,17.27,12.69,27.63
				c5.87,10.37,12.8,18.8,18.57,24.06c2.87,2.65,5.36,4.6,7.16,5.83c0.88,0.64,1.61,1.07,2.1,1.38
				C361.64,457.12,361.91,457.26,361.93,457.23z"/>
		</g>
	</g>
	<g>
		<g>
			<path class="st7" d="M379.78,387.63c-0.22,0.06,1.01,3.78,1.88,9.97c0.46,3.09,0.7,6.82,0.67,10.94
				c-0.1,4.13-0.51,8.65-1.43,13.33c-0.97,4.67-2.35,9-3.86,12.84c-1.58,3.81-3.25,7.15-4.88,9.82c-3.22,5.37-5.79,8.31-5.61,8.46
				c0.06,0.05,0.72-0.66,1.88-2c0.59-0.66,1.28-1.49,2-2.52c0.73-1.02,1.62-2.15,2.42-3.51c1.74-2.65,3.5-5.99,5.16-9.84
				c1.59-3.88,3.02-8.27,4.01-13.02c0.93-4.75,1.32-9.36,1.36-13.55c-0.03-4.19-0.36-7.96-0.93-11.07
				c-0.21-1.57-0.59-2.95-0.87-4.18c-0.26-1.23-0.58-2.26-0.86-3.1C380.19,388.52,379.85,387.61,379.78,387.63z"/>
		</g>
	</g>
	<g>
		<g>
			<path class="st7" d="M387.78,383.77c-0.31,0.07,3.3,17.44,8.06,38.79c4.76,21.36,8.87,38.61,9.18,38.55
				c0.31-0.07-3.3-17.43-8.06-38.8C392.2,400.96,388.09,383.7,387.78,383.77z"/>
		</g>
	</g>
	<path class="st7" d="M287.73,403.2c-8.32,10.4-16.11,24.26-22.09,34.64c-5.97,10.38-21.24,36.45-27.35,46.71
		c-1.47,2.58-2.76,5.26-3.76,8.04c-0.95,2.79-1.63,5.69-1.19,8.56c0.4,2.89,1.4,5.7,2.71,8.33c1.32,2.63,2.93,4.1,4.92,6.25
		c0.99,1.08,2.09,2.02,3.34,2.75c1.25,0.74,2.6,1.34,3.98,1.89c2.77,1.07,10.82,4.06,13.68,4.91l70.49,18.37
		c-5.84-1.32-64.9-16.1-70.7-17.65c-2.9-0.78-11-3.66-13.83-4.72c-1.41-0.55-2.81-1.15-4.14-1.93c-1.34-0.76-2.55-1.79-3.59-2.9
		c-2.1-2.23-3.78-3.76-5.17-6.47c-1.34-2.73-2.37-5.64-2.78-8.69c-0.22-1.52-0.15-3.12,0.09-4.63c0.25-1.52,0.7-2.98,1.19-4.42
		c1.04-2.86,2.37-5.58,3.87-8.2l27.63-46.56C271.1,427.15,279.41,413.61,287.73,403.2z"/>
</g>
<g>
	<g>
		<rect x="716.75" y="654.62" class="st71" width="177.12" height="355.41"/>
	</g>
	<g>
		<rect x="658.48" y="654.62" class="st72" width="177.12" height="355.41"/>
	</g>
	<linearGradient id="SVGID_15_" gradientUnits="userSpaceOnUse" x1="776.1731" y1="655.7693" x2="776.1731" y2="1068.5796">
		<stop  offset="0" style="stop-color:#FAFAFA;stop-opacity:0.2"/>
		<stop  offset="1" style="stop-color:#001D6F;stop-opacity:0.3"/>
	</linearGradient>
	<polygon style="opacity:0.5;fill-rule:evenodd;clip-rule:evenodd;fill:url(#SVGID_15_);" points="835.6,654.62 716.75,654.62 
		658.48,654.62 658.48,1010.03 716.75,1010.03 835.6,1010.03 893.87,1010.03 893.87,654.62 	"/>
	<g>
		<g>
			<g>
				<path class="st74" d="M694.64,698.38v-9.91h-16.72v9.91c0,4.24,3.2,7.76,7.3,8.28l0,8.63h-3.72c-1.3,0-2.37,0.75-2.37,1.66
					h14.29c0-0.91-1.07-1.66-2.37-1.66h-3.72v-8.63C691.44,706.14,694.64,702.61,694.64,698.38z"/>
			</g>
			<g>
				<path class="st74" d="M726.65,697.71c-1.31-5.29-6.11-9.25-11.78-9.25h0c-5.68,0-10.48,3.96-11.78,9.25h10.66v15.54
					c-0.1,1.21-1.11,2.17-2.35,2.17c-1.24,0-2.26-0.95-2.36-2.17h-2.27c0.1,2.47,2.13,4.44,4.62,4.44c2.49,0,4.52-1.97,4.62-4.44
					v-15.54H726.65z"/>
			</g>
		</g>
		<g>
			<g>
				<path class="st32" d="M894.31,824.68c0,0.46-53.16,0.84-118.72,0.84c-65.58,0-118.73-0.38-118.73-0.84
					c0-0.46,53.15-0.84,118.73-0.84C841.15,823.84,894.31,824.22,894.31,824.68z"/>
			</g>
		</g>
		<g>
			<g>
				<path class="st32" d="M747.04,1011.5c-0.3,0-0.54-80.01-0.54-178.68c0-98.71,0.24-178.7,0.54-178.7c0.3,0,0.54,79.99,0.54,178.7
					C747.58,931.49,747.33,1011.5,747.04,1011.5z"/>
			</g>
		</g>
	</g>
</g>
<g>
	<linearGradient id="SVGID_16_" gradientUnits="userSpaceOnUse" x1="930.4152" y1="386.4511" x2="1313.3816" y2="386.4511">
		<stop  offset="0" style="stop-color:#75D6CC"/>
		<stop  offset="1" style="stop-color:#19A1CC"/>
	</linearGradient>
	<polygon class="st37" points="1224.79,479.42 1224.79,478.96 930.86,478.96 1019.01,386.68 930.42,293.48 1224.79,293.48 
		1313.38,386.68 	"/>
	<linearGradient id="SVGID_17_" gradientUnits="userSpaceOnUse" x1="1224.3304" y1="386.4511" x2="1607.2969" y2="386.4511">
		<stop  offset="0" style="stop-color:#549DE2"/>
		<stop  offset="1" style="stop-color:#2C5EDB"/>
	</linearGradient>
	<polygon class="st43" points="1518.71,479.42 1518.71,478.96 1224.77,478.96 1312.92,386.68 1224.33,293.48 1518.71,293.48 
		1607.3,386.68 	"/>
	<g>
		<path class="st32" d="M1496.35,315.52l67.59,71.11l-67.24,70.39h-225.79l65.25-68.31l1.97-2.07l-1.97-2.07l-65.63-69.05H1496.35
			 M1497.64,312.52h-234.09l70.45,74.12l-70.1,73.38h233.74v0.37l70.45-73.75L1497.64,312.52L1497.64,312.52z"/>
	</g>
	<g>
		<path class="st32" d="M1221.86,315.52l67.59,71.11l-67.24,70.39H996.42l65.25-68.31l1.97-2.07l-1.97-2.07l-65.63-69.05H1221.86
			 M1223.15,312.52H989.06l70.45,74.12l-70.1,73.38h233.74v0.37l70.45-73.75L1223.15,312.52L1223.15,312.52z"/>
	</g>
	<linearGradient id="SVGID_18_" gradientUnits="userSpaceOnUse" x1="636.5" y1="386.4511" x2="1019.4664" y2="386.4511">
		<stop  offset="0" style="stop-color:#75F2AA"/>
		<stop  offset="1" style="stop-color:#19A192"/>
	</linearGradient>
	<polygon class="st44" points="930.88,479.42 930.88,478.96 636.94,478.96 725.09,386.68 636.5,293.48 930.88,293.48 
		1019.47,386.68 	"/>
	<g>
		<path class="st32" d="M908.17,315.52l67.59,71.11l-67.24,70.39H682.73l65.25-68.31l1.97-2.07l-1.97-2.07l-65.63-69.05H908.17
			 M909.45,312.52H675.36l70.45,74.12l-70.1,73.38h233.74v0.37l70.45-73.75L909.45,312.52L909.45,312.52z"/>
	</g>
</g>
<line class="st98" x1="914.62" y1="894.92" x2="914.62" y2="913.87"/>
<line class="st98" x1="946.95" y1="894.92" x2="946.95" y2="913.87"/>
<line class="st98" x1="979.28" y1="894.92" x2="979.28" y2="913.87"/>
<line class="st98" x1="1011.61" y1="894.92" x2="1011.61" y2="913.87"/>
<line class="st98" x1="1043.94" y1="894.92" x2="1043.94" y2="913.87"/>
<line class="st98" x1="1076.27" y1="894.92" x2="1076.27" y2="913.87"/>
<line class="st98" x1="1108.6" y1="894.92" x2="1108.6" y2="913.87"/>
<line class="st98" x1="1140.93" y1="894.92" x2="1140.93" y2="913.87"/>
<line class="st98" x1="1173.26" y1="894.92" x2="1173.26" y2="913.87"/>
<line class="st98" x1="1189.43" y1="894.92" x2="1189.43" y2="913.87"/>
<line class="st98" x1="1205.59" y1="894.92" x2="1205.59" y2="913.87"/>
<line class="st98" x1="1221.75" y1="894.92" x2="1221.75" y2="913.87"/>
<line class="st98" x1="1237.92" y1="894.92" x2="1237.92" y2="913.87"/>
<line class="st98" x1="1254.08" y1="894.92" x2="1254.08" y2="913.87"/>
<line class="st98" x1="1270.25" y1="894.92" x2="1270.25" y2="913.87"/>
<line class="st98" x1="1286.41" y1="894.92" x2="1286.41" y2="913.87"/>
<line class="st98" x1="1302.58" y1="894.92" x2="1302.58" y2="913.87"/>
<line class="st98" x1="1318.74" y1="894.92" x2="1318.74" y2="913.87"/>
<line class="st98" x1="1334.91" y1="894.92" x2="1334.91" y2="913.87"/>
<line class="st98" x1="1351.07" y1="894.92" x2="1351.07" y2="913.87"/>
<line class="st98" x1="1367.24" y1="894.92" x2="1367.24" y2="913.87"/>
<line class="st98" x1="1383.4" y1="894.92" x2="1383.4" y2="913.87"/>
<line class="st98" x1="1399.57" y1="894.92" x2="1399.57" y2="913.87"/>
<line class="st98" x1="1415.73" y1="894.92" x2="1415.73" y2="913.87"/>
<line class="st98" x1="1431.9" y1="894.92" x2="1431.9" y2="913.87"/>
<line class="st98" x1="1448.06" y1="894.92" x2="1448.06" y2="913.87"/>
<line class="st98" x1="1464.23" y1="894.92" x2="1464.23" y2="913.87"/>
<line class="st98" x1="1480.39" y1="894.92" x2="1480.39" y2="913.87"/>
<line class="st98" x1="1496.56" y1="894.92" x2="1496.56" y2="913.87"/>
<line class="st98" x1="1512.72" y1="894.92" x2="1512.72" y2="913.87"/>
<line class="st98" x1="1528.89" y1="894.92" x2="1528.89" y2="913.87"/>
<line class="st98" x1="1545.05" y1="894.92" x2="1545.05" y2="913.87"/>
<line class="st98" x1="1561.22" y1="894.92" x2="1561.22" y2="913.87"/>
<line class="st98" x1="1577.38" y1="894.92" x2="1577.38" y2="913.87"/>
<line class="st98" x1="1593.55" y1="894.92" x2="1593.55" y2="913.87"/>
<line class="st98" x1="1609.71" y1="894.92" x2="1609.71" y2="913.87"/>
<line class="st98" x1="1625.88" y1="894.92" x2="1625.88" y2="913.87"/>
<line class="st98" x1="1642.04" y1="894.92" x2="1642.04" y2="913.87"/>
<line class="st98" x1="1663.31" y1="901.46" x2="1657.17" y2="915.77"/>
<line class="st98" x1="1678.64" y1="915.77" x2="1669.7" y2="925.04"/>
<line class="st98" x1="1688.86" y1="933.15" x2="1678.17" y2="937.68"/>
<line class="st98" x1="1691.42" y1="953.04" x2="1681.06" y2="952.62"/>
<line class="st98" x1="1687.84" y1="971.99" x2="1677.94" y2="967.51"/>
<line class="st98" x1="1679.66" y1="990.39" x2="1669.29" y2="980.03"/>
<line class="st98" x1="1662.29" y1="1002.66" x2="1656.46" y2="988.21"/>
<line class="st98" x1="1641.48" y1="1010.86" x2="1641.48" y2="994.69"/>
<line class="st98" x1="1625.88" y1="1010.86" x2="1625.88" y2="994.69"/>
<line class="st98" x1="1610.27" y1="1010.86" x2="1610.27" y2="994.69"/>
<line class="st98" x1="1594.66" y1="1010.86" x2="1594.66" y2="994.69"/>
<line class="st98" x1="1579.05" y1="1010.86" x2="1579.05" y2="994.69"/>
<line class="st98" x1="1563.45" y1="1010.86" x2="1563.45" y2="994.69"/>
<line class="st98" x1="1547.84" y1="1010.86" x2="1547.84" y2="994.69"/>
<line class="st98" x1="1532.23" y1="1010.86" x2="1532.23" y2="994.69"/>
<line class="st98" x1="1516.62" y1="1010.86" x2="1516.62" y2="994.69"/>
<line class="st98" x1="1501.02" y1="1010.86" x2="1501.02" y2="994.69"/>
<line class="st98" x1="1485.41" y1="1010.86" x2="1485.41" y2="994.69"/>
<line class="st98" x1="1469.8" y1="1010.86" x2="1469.8" y2="994.69"/>
<line class="st98" x1="1454.19" y1="1010.86" x2="1454.19" y2="994.69"/>
<line class="st98" x1="1438.59" y1="1010.86" x2="1438.59" y2="994.69"/>
<line class="st98" x1="1422.98" y1="1010.86" x2="1422.98" y2="994.69"/>
<line class="st98" x1="1407.37" y1="1010.86" x2="1407.37" y2="994.69"/>
<line class="st98" x1="1391.76" y1="1010.86" x2="1391.76" y2="994.69"/>
<line class="st98" x1="1376.16" y1="1010.86" x2="1376.16" y2="994.69"/>
<line class="st98" x1="1360.55" y1="1010.86" x2="1360.55" y2="994.69"/>
<line class="st98" x1="1344.94" y1="1010.86" x2="1344.94" y2="994.69"/>
<line class="st98" x1="1329.33" y1="1010.86" x2="1329.33" y2="994.69"/>
<line class="st98" x1="1313.73" y1="1010.86" x2="1313.73" y2="994.69"/>
<line class="st98" x1="1298.12" y1="1010.86" x2="1298.12" y2="994.69"/>
<line class="st98" x1="1282.51" y1="1010.86" x2="1282.51" y2="994.69"/>
<line class="st98" x1="1266.91" y1="1010.86" x2="1266.91" y2="994.69"/>
<line class="st98" x1="1251.3" y1="1010.86" x2="1251.3" y2="994.69"/>
<line class="st98" x1="1235.69" y1="1010.86" x2="1235.69" y2="994.69"/>
<line class="st98" x1="1220.08" y1="1010.86" x2="1220.08" y2="994.69"/>
<line class="st98" x1="1204.48" y1="1010.86" x2="1204.48" y2="994.69"/>
<line class="st98" x1="1188.87" y1="1010.86" x2="1188.87" y2="994.69"/>
<line class="st98" x1="1173.26" y1="1010.86" x2="1173.26" y2="994.69"/>
<line class="st98" x1="1157.65" y1="1010.86" x2="1157.65" y2="994.69"/>
<line class="st98" x1="1142.05" y1="1010.86" x2="1142.05" y2="994.69"/>
<line class="st98" x1="1110.83" y1="1010.86" x2="1110.83" y2="994.69"/>
<line class="st98" x1="1079.62" y1="1010.86" x2="1079.62" y2="994.69"/>
<line class="st98" x1="1048.4" y1="1010.86" x2="1048.4" y2="994.69"/>
<line class="st98" x1="1017.19" y1="1010.86" x2="1017.19" y2="994.69"/>
<line class="st98" x1="985.97" y1="1010.86" x2="985.97" y2="994.69"/>
<line class="st98" x1="954.76" y1="1010.86" x2="954.76" y2="994.69"/>
<line class="st98" x1="923.54" y1="1010.86" x2="923.54" y2="994.69"/>
<g>
	<g>
		<path class="st99" d="M1025.61,610h-41.16c-1.89,0-3.42-1.53-3.42-3.42v-41.16c0-1.89,1.53-3.42,3.42-3.42h41.16
			c1.89,0,3.42,1.53,3.42,3.42v41.16C1029.03,608.47,1027.49,610,1025.61,610z"/>
	</g>
	<g>
		<path class="st32" d="M1002.01,592.92c-0.01,0-0.02,0-0.04,0c-0.31-0.01-0.61-0.15-0.81-0.39l-6.72-7.84
			c-0.4-0.47-0.35-1.18,0.12-1.58c0.47-0.4,1.18-0.35,1.58,0.12l5.93,6.92l15.58-15.93c0.43-0.44,1.14-0.45,1.58-0.02
			c0.44,0.43,0.45,1.14,0.02,1.58l-16.43,16.81C1002.6,592.8,1002.31,592.92,1002.01,592.92z"/>
	</g>
</g>
</svg>
